<svg width="52" height="52" viewBox="0 0 52 52" fill="none" xmlns="http://www.w3.org/2000/svg">
<circle cx="26" cy="26" r="24.5" fill="#1C3661" stroke="#D3BB8C" stroke-width="3"/>
<path d="M37.6939 14.2716C33.4674 12.2417 26.3088 12.0107 25.9919 12C25.6912 12 18.5326 12.2417 14.3061 14.2716C14.1196 14.3605 14.0006 14.5484 14 14.755V26.3119C14 26.6664 14.2148 35.0602 25.8147 40.1942C25.9532 40.2556 26.1112 40.2556 26.2497 40.1942C37.8067 35.0602 37.9946 26.6556 38 26.3066V14.755C37.9994 14.5484 37.8804 14.3605 37.6939 14.2716ZM36.9259 26.3012C36.9259 26.3817 36.7272 34.2493 25.9919 39.1148C15.2996 34.2815 15.0633 26.6288 15.058 26.3066V15.0987C19.0105 13.3372 25.6214 13.0848 25.9919 13.0741C26.3625 13.0633 32.9734 13.3372 36.9259 15.0987V26.3012Z" fill="#D3BB8C"/>
<path d="M35.1591 16.8011C31.851 15.19 26.2605 15.0289 26.0295 15.0235H25.9919C25.7395 15.0289 20.149 15.2061 16.8624 16.8011C16.6759 16.8899 16.5569 17.0779 16.5563 17.2844V26.269C16.5563 26.5482 16.7281 33.1484 25.7932 37.1707C25.9317 37.2321 26.0897 37.2321 26.2282 37.1707C35.2987 33.1484 35.4652 26.5482 35.4652 26.2636V17.2844C35.4646 17.0779 35.3456 16.8899 35.1591 16.8011ZM17.6089 17.6281C20.6699 16.3016 25.6644 16.1083 25.9919 16.0922C28.0619 16.1804 30.1197 16.4536 32.141 16.9085L17.6089 25.9199V17.6281ZM34.375 26.2582C34.3697 26.5053 34.1817 32.3589 25.9919 36.0913C23.8145 35.1563 21.8598 33.7708 20.2564 32.026L34.375 23.2347V26.2582ZM19.5475 31.1774C18.6345 29.9788 17.9998 28.592 17.6894 27.1175L33.5104 17.3113C33.8004 17.4079 34.085 17.5153 34.3535 17.6281L34.375 21.9727L19.5475 31.1774Z" fill="#D3BB8C"/>
</svg>
