<svg width="63" height="55" viewBox="0 0 63 55" fill="none" xmlns="http://www.w3.org/2000/svg">
<path d="M7.875 54.3559V42H3.9375C1.76662 42 0 40.2334 0 38.0625V3.9375C0 1.76662 1.76662 0 3.9375 0H59.0625C61.2334 0 63 1.76662 63 3.9375V38.0625C63 40.2334 61.2334 42 59.0625 42H20.2309L7.875 54.3559ZM3.9375 2.625C3.213 2.625 2.625 3.213 2.625 3.9375V38.0625C2.625 38.787 3.213 39.375 3.9375 39.375H10.5V48.0191L19.1441 39.375H59.0625C59.787 39.375 60.375 38.787 60.375 38.0625V3.9375C60.375 3.213 59.787 2.625 59.0625 2.625H3.9375Z" fill="#1C3661"/>
<path d="M21 23.6255C22.4497 23.6255 23.625 22.4502 23.625 21.0005C23.625 19.5507 22.4497 18.3755 21 18.3755C19.5503 18.3755 18.375 19.5507 18.375 21.0005C18.375 22.4502 19.5503 23.6255 21 23.6255Z" fill="#1C3661"/>
<path d="M42 23.6255C43.4497 23.6255 44.625 22.4502 44.625 21.0005C44.625 19.5507 43.4497 18.3755 42 18.3755C40.5503 18.3755 39.375 19.5507 39.375 21.0005C39.375 22.4502 40.5503 23.6255 42 23.6255Z" fill="#1C3661"/>
<path d="M31.5 23.6255C32.9497 23.6255 34.125 22.4502 34.125 21.0005C34.125 19.5507 32.9497 18.3755 31.5 18.3755C30.0503 18.3755 28.875 19.5507 28.875 21.0005C28.875 22.4502 30.0503 23.6255 31.5 23.6255Z" fill="#1C3661"/>
</svg>
