<svg width="77" height="76" viewBox="0 0 77 76" fill="none" xmlns="http://www.w3.org/2000/svg">
<circle cx="38.5" cy="38" r="36.5" fill="#1C3661" stroke="#D3BB8C" stroke-width="3"/>
<path d="M28.8612 41.9132C29.0592 41.6478 29.1619 41.3233 29.1527 40.9924C29.1435 40.6614 29.0229 40.3432 28.8104 40.0892L28.4081 39.6057C28.3334 39.5164 28.2906 39.4048 28.2865 39.2885C28.2823 39.1723 28.3171 39.0579 28.3852 38.9636C28.4966 38.8048 28.5883 38.6331 28.6583 38.4521L28.9687 37.6882C28.993 37.6302 29.0056 37.568 29.0057 37.5051C29.0057 37.4422 28.9934 37.3799 28.9692 37.3218C28.9451 37.2637 28.9096 37.211 28.865 37.1667C28.8203 37.1224 28.7673 37.0874 28.709 37.0637C28.6508 37.04 28.5884 37.0281 28.5255 37.0287C28.4626 37.0293 28.4004 37.0424 28.3426 37.0672C28.2848 37.092 28.2324 37.128 28.1887 37.1732C28.1449 37.2183 28.1104 37.2717 28.0874 37.3303L27.7771 38.0942C27.7353 38.2045 27.6805 38.3095 27.614 38.4069C27.4223 38.6724 27.3246 38.9942 27.336 39.3214C27.3475 39.6487 27.4676 39.9628 27.6774 40.2142L28.0799 40.6977C28.1553 40.788 28.1982 40.9011 28.2014 41.0187C28.2047 41.1363 28.1682 41.2516 28.0979 41.3459L27.5444 42.091C27.3493 42.3537 27.247 42.6738 27.2537 43.001C27.2604 43.3282 27.3756 43.6439 27.5814 43.8984L28.0467 44.4741C28.1249 44.5705 28.1662 44.6916 28.1633 44.8158C28.1604 44.9399 28.1134 45.0589 28.0308 45.1516L27.1078 46.1929C27.0242 46.2873 26.9814 46.411 26.989 46.5369C26.9966 46.6628 27.0539 46.7806 27.1483 46.8643C27.2426 46.9479 27.3664 46.9907 27.4923 46.9831C27.6182 46.9755 27.736 46.9182 27.8197 46.8238L28.7427 45.7826C28.9751 45.5218 29.1071 45.1867 29.1151 44.8374C29.1231 44.4881 29.0064 44.1473 28.7861 43.8762L28.3208 43.3004C28.2477 43.21 28.2068 43.0979 28.2044 42.9817C28.202 42.8654 28.2383 42.7517 28.3076 42.6584L28.8612 41.9132Z" fill="#D3BB8C"/>
<path d="M47.9679 45.1518C47.8853 45.0591 47.8384 44.9401 47.8355 44.816C47.8326 44.6919 47.8739 44.5708 47.9521 44.4743L48.4174 43.8986C48.6231 43.6441 48.7385 43.3285 48.7452 43.0013C48.7519 42.6741 48.6496 42.354 48.4544 42.0913L47.9008 41.3462C47.8305 41.2518 47.7941 41.1365 47.7974 41.0189C47.8006 40.9013 47.8435 40.7883 47.9189 40.698L48.3214 40.2145C48.5311 39.963 48.6512 39.6489 48.6627 39.3217C48.6742 38.9944 48.5764 38.6727 48.3848 38.4071C48.3182 38.3097 48.2635 38.2047 48.2216 38.0944L47.9113 37.3305C47.8638 37.2136 47.7719 37.1204 47.6557 37.0713C47.5395 37.0223 47.4085 37.0214 47.2917 37.0688C47.1748 37.1163 47.0816 37.2083 47.0325 37.3245C46.9834 37.4407 46.9825 37.5716 47.03 37.6885L47.3403 38.4525C47.4104 38.6334 47.5021 38.8051 47.6135 38.9638C47.6816 39.0582 47.7163 39.1725 47.7121 39.2888C47.708 39.405 47.6653 39.5166 47.5907 39.6059L47.1882 40.0894C46.9758 40.3434 46.8552 40.6616 46.846 40.9926C46.8367 41.3236 46.9394 41.648 47.1374 41.9134L47.691 42.6585C47.7603 42.7519 47.7967 42.8656 47.7943 42.9818C47.7919 43.0981 47.7509 43.2102 47.6778 43.3006L47.2125 43.8763C46.9921 44.1475 46.8755 44.4883 46.8835 44.8376C46.8915 45.1869 47.0235 45.522 47.256 45.7828L48.1792 46.8244C48.2204 46.8719 48.2706 46.9107 48.3269 46.9387C48.3832 46.9666 48.4446 46.9831 48.5073 46.9873C48.57 46.9914 48.633 46.983 48.6925 46.9626C48.752 46.9422 48.8068 46.9103 48.8539 46.8685C48.9009 46.8268 48.9392 46.7762 48.9666 46.7196C48.9939 46.663 49.0098 46.6015 49.0133 46.5387C49.0167 46.4759 49.0077 46.4131 48.9867 46.3538C48.9657 46.2945 48.9331 46.24 48.8909 46.1934L47.9679 45.1518Z" fill="#D3BB8C"/>
<path d="M33.7451 25.083L34.5804 25.7743C34.7311 25.8996 34.9178 25.9736 35.1134 25.9857C35.309 25.9978 35.5033 25.9474 35.6683 25.8416L36.5339 25.2893L37.2838 25.8182C37.4428 25.9306 37.6333 25.9899 37.828 25.9877C38.0227 25.9854 38.2117 25.9217 38.3681 25.8057L39.0339 25.3125L39.7292 25.8474C39.8883 25.9688 40.0822 26.0357 40.2823 26.0381C40.4824 26.0406 40.6779 25.9784 40.8399 25.8609L41.8797 25.1005C41.9815 25.0261 42.0496 24.9142 42.069 24.7895C42.0883 24.6649 42.0573 24.5376 41.9829 24.4358C41.9084 24.334 41.7966 24.2659 41.6719 24.2466C41.5472 24.2272 41.42 24.2582 41.3182 24.3326L40.294 25.0817L39.3634 24.3659C39.2714 24.2956 39.1591 24.257 39.0433 24.256C38.9276 24.255 38.8146 24.2916 38.7214 24.3602L37.8169 25.0302L36.8524 24.3498C36.7661 24.2887 36.6634 24.2548 36.5577 24.2524C36.4519 24.25 36.3478 24.2793 36.2588 24.3365L35.1728 25.0296L34.3519 24.3502C34.2547 24.2697 34.1296 24.2312 34.004 24.2431C33.8784 24.2549 33.7627 24.3162 33.6823 24.4133C33.6018 24.5105 33.5633 24.6357 33.5752 24.7613C33.587 24.8868 33.6483 25.0026 33.7454 25.083H33.7451Z" fill="#D3BB8C"/>
<path d="M27.2958 25.6158H28.1406C28.2667 25.6158 28.3877 25.5657 28.4769 25.4765C28.5661 25.3873 28.6162 25.2663 28.6162 25.1402C28.6162 25.014 28.5661 24.893 28.4769 24.8038C28.3877 24.7147 28.2667 24.6645 28.1406 24.6645H27.2958C27.1696 24.6645 27.0486 24.7147 26.9595 24.8038C26.8703 24.893 26.8202 25.014 26.8202 25.1402C26.8202 25.2663 26.8703 25.3873 26.9595 25.4765C27.0486 25.5657 27.1696 25.6158 27.2958 25.6158Z" fill="#D3BB8C"/>
<path d="M47.1541 25.6069H47.999C48.1251 25.6069 48.2461 25.5568 48.3353 25.4676C48.4245 25.3784 48.4746 25.2574 48.4746 25.1313C48.4746 25.0051 48.4245 24.8842 48.3353 24.795C48.2461 24.7058 48.1251 24.6557 47.999 24.6557H47.1541C47.028 24.6557 46.907 24.7058 46.8178 24.795C46.7286 24.8842 46.6785 25.0051 46.6785 25.1313C46.6785 25.2574 46.7286 25.3784 46.8178 25.4676C46.907 25.5568 47.028 25.6069 47.1541 25.6069Z" fill="#D3BB8C"/>
<path d="M56.2086 20H19.7914C19.449 20.0004 19.1208 20.1366 18.8787 20.3787C18.6366 20.6208 18.5004 20.949 18.5 21.2914V21.5025C18.5007 22.1375 18.7533 22.7464 19.2024 23.1954C19.6515 23.6445 20.2603 23.8971 20.8954 23.8978H21.858V25.2415C21.859 25.8059 22.0839 26.3469 22.4833 26.7457C22.8827 27.1446 23.4239 27.3687 23.9884 27.3689H24.3206C24.6748 27.653 25.784 28.7517 25.1748 30.9672H24.7475C24.5223 30.9675 24.3064 31.057 24.1472 31.2162C23.988 31.3754 23.8984 31.5913 23.8982 31.8164V33.7009C23.8984 33.926 23.988 34.1419 24.1472 34.3011C24.3064 34.4603 24.5222 34.5498 24.7474 34.5501H25.2418V51.5329H24.7899C24.5648 51.5332 24.3489 51.6227 24.1897 51.7819C24.0305 51.9411 23.941 52.157 23.9407 52.3821V54.2666C23.941 54.4917 24.0305 54.7076 24.1897 54.8668C24.3488 55.026 24.5646 55.1156 24.7898 55.1159H31.3942C31.6193 55.1156 31.8352 55.0261 31.9944 54.8669C32.1536 54.7076 32.2431 54.4918 32.2434 54.2667V52.3822C32.2431 52.157 32.1536 51.9412 31.9944 51.782C31.8352 51.6227 31.6193 51.5332 31.3942 51.5329H30.8579V34.5501H31.3522C31.5774 34.5499 31.7933 34.4603 31.9525 34.3011C32.1117 34.1419 32.2012 33.926 32.2014 33.7009V31.8164C32.2012 31.5913 32.1116 31.3754 31.9524 31.2162C31.7932 31.057 31.5774 30.9675 31.3522 30.9672H30.925C30.3157 28.7517 31.4249 27.653 31.7791 27.3689H44.1785C44.5243 27.6481 45.6409 28.7528 45.033 30.9672H44.6058C44.3807 30.9675 44.1648 31.057 44.0056 31.2162C43.8464 31.3754 43.7569 31.5913 43.7566 31.8164V33.7009C43.7569 33.926 43.8464 34.1419 44.0056 34.3011C44.1648 34.4603 44.3807 34.5498 44.6058 34.5501H45.1001V51.5329H44.6483C44.4232 51.5332 44.2073 51.6227 44.0481 51.7819C43.8889 51.9411 43.7993 52.157 43.7991 52.3821V54.2666C43.7993 54.4917 43.8889 54.7076 44.048 54.8668C44.2072 55.026 44.423 55.1156 44.6482 55.1159H51.2525C51.4777 55.1156 51.6936 55.0261 51.8528 54.8669C52.012 54.7077 52.1016 54.4918 52.1018 54.2667V52.3822C52.1016 52.157 52.012 51.9412 51.8528 51.7819C51.6936 51.6227 51.4777 51.5332 51.2525 51.5329H50.7158V34.5501H51.2102C51.4354 34.5498 51.6512 34.4603 51.8104 34.3011C51.9696 34.1419 52.0592 33.926 52.0594 33.7009V31.8164C52.0592 31.5913 51.9696 31.3754 51.8104 31.2162C51.6512 31.057 51.4354 30.9675 51.2102 30.9672H50.7829C50.1736 28.7517 51.2828 27.653 51.6371 27.3689H52.0116C52.5761 27.3687 53.1173 27.1446 53.5167 26.7457C53.9161 26.3469 54.141 25.8059 54.142 25.2415V23.8978H55.1046C55.7397 23.8971 56.3485 23.6445 56.7976 23.1954C57.2467 22.7464 57.4993 22.1375 57.5 21.5025V21.2914C57.4996 20.949 57.3634 20.6208 57.1213 20.3787C56.8792 20.1366 56.551 20.0004 56.2086 20ZM21.2856 22.9466H20.8954C20.5125 22.9461 20.1454 22.7939 19.8747 22.5231C19.604 22.2524 19.4517 21.8853 19.4512 21.5025V21.2914C19.4514 21.2013 19.4873 21.1148 19.5511 21.0511C19.6148 20.9873 19.7013 20.9514 19.7914 20.9512H21.2856V22.9466ZM49.6248 20.9512H51.2386V22.9466H49.6248V20.9512ZM47.0597 20.9512H48.6736V22.9466H47.0597V20.9512ZM44.6602 20.9512H46.1085V22.9466H44.6602V20.9512ZM42.0952 20.9512H43.709V22.9466H42.0952V20.9512ZM39.6956 20.9512H41.1439V22.9466H39.6956V20.9512ZM37.1306 20.9512H38.7444V22.9466H37.1306V20.9512ZM34.7311 20.9512H36.1794V22.9466H34.7311V20.9512ZM32.166 20.9512H33.7798V22.9466H32.1659L32.166 20.9512ZM29.7664 20.9512H31.2146V22.9466H29.7664V20.9512ZM27.2014 20.9512H28.8152V22.9466H27.2014V20.9512ZM24.8018 20.9512H26.2501V22.9466H24.8018V20.9512ZM22.2368 22.9466V20.9512H23.8506V22.9466H22.2368ZM31.2922 52.4841V54.1646H24.8918V52.4841H31.2922ZM29.9067 49.9159V51.5329H26.1931V49.9159H29.9067ZM26.1935 48.9646V34.5501H29.9067V48.9646H26.1935ZM31.2502 31.9182V33.5987H24.8494V31.9182H31.2502ZM51.1506 52.4841V54.1646H44.7502V52.4841H51.1506ZM49.7647 49.9159V51.5329H46.0514V49.9159H49.7647ZM46.0514 48.9646V34.5501H49.7647V48.9646H46.0514ZM51.1083 31.9182V33.5987H44.7078V31.9182H51.1083ZM49.8011 30.967H46.015C46.3612 29.4768 46.0413 28.4027 45.682 27.738C45.6131 27.6107 45.5371 27.4875 45.4544 27.3687H50.3611C50.2784 27.4875 50.2024 27.6107 50.1334 27.738C49.7747 28.4029 49.4548 29.4767 49.8011 30.9672L49.8011 30.967ZM53.1909 24.6731H49.4718C49.3456 24.6731 49.2247 24.7232 49.1355 24.8124C49.0463 24.9016 48.9962 25.0226 48.9962 25.1487C48.9962 25.2749 49.0463 25.3958 49.1355 25.485C49.2247 25.5742 49.3456 25.6243 49.4718 25.6243H53.1253C53.045 25.8558 52.8946 26.0565 52.695 26.1986C52.4955 26.3407 52.2566 26.4172 52.0116 26.4174H29.4209C29.2947 26.4174 29.1738 26.4675 29.0846 26.5567C28.9954 26.6459 28.9453 26.7669 28.9453 26.893C28.9453 27.0192 28.9954 27.1401 29.0846 27.2293C29.1738 27.3185 29.2947 27.3686 29.4209 27.3686H30.5031C30.4204 27.4874 30.3444 27.6107 30.2755 27.7379C29.9165 28.4026 29.5965 29.4764 29.9425 30.9669H26.1566C26.5028 29.4767 26.1829 28.4026 25.8237 27.7379C25.7547 27.6107 25.6787 27.4874 25.5959 27.3686H26.2499C26.376 27.3686 26.497 27.3185 26.5862 27.2293C26.6754 27.1401 26.7255 27.0192 26.7255 26.893C26.7255 26.7669 26.6754 26.6459 26.5862 26.5567C26.497 26.4675 26.376 26.4174 26.2499 26.4174H23.9884C23.7418 26.4172 23.5014 26.3397 23.3011 26.1959C23.1007 26.052 22.9505 25.8491 22.8714 25.6154H25.8318C25.9579 25.6154 26.0789 25.5653 26.1681 25.4761C26.2573 25.3869 26.3074 25.266 26.3074 25.1398C26.3074 25.0137 26.2573 24.8927 26.1681 24.8035C26.0789 24.7143 25.9579 24.6642 25.8318 24.6642H22.8092V23.8978H53.1908L53.1909 24.6731ZM53.8037 22.9462H52.1898V20.9512H53.8036L53.8037 22.9462ZM56.5488 21.5025C56.5483 21.8853 56.396 22.2524 56.1253 22.5231C55.8546 22.7939 55.4875 22.9461 55.1046 22.9466H54.7549V20.9512H56.2086C56.2987 20.9514 56.3852 20.9873 56.4489 21.0511C56.5127 21.1148 56.5486 21.2013 56.5488 21.2914V21.5025Z" fill="#D3BB8C"/>
</svg>
