<svg width="52" height="52" viewBox="0 0 52 52" fill="none" xmlns="http://www.w3.org/2000/svg">
<circle cx="26" cy="26" r="24.5" fill="#D3BB8C" stroke="#1C3661" stroke-width="3"/>
<path d="M35.4621 27.3517L32.9337 29.8801C32.9006 29.8401 32.8656 29.8013 32.8282 29.7638L29.5628 26.4984C29.3822 26.3179 29.0896 26.3179 28.9091 26.4984C28.7286 26.679 28.7286 26.9717 28.9091 27.1521L32.1745 30.4175C32.4552 30.6982 32.4552 31.155 32.1745 31.4356C31.8937 31.7163 31.437 31.7164 31.1564 31.4356L29.3419 29.6211C29.1613 29.4406 28.8687 29.4406 28.6881 29.6211C28.5076 29.8016 28.5076 30.0943 28.6881 30.2748L30.5026 32.0893C30.5027 32.0894 30.5028 32.0894 30.5029 32.0895C30.6387 32.2255 30.7136 32.4062 30.7136 32.5984C30.7136 32.7907 30.6387 32.9714 30.5026 33.1075C30.3667 33.2434 30.1859 33.3183 29.9936 33.3183C29.8013 33.3183 29.6206 33.2434 29.4846 33.1075L27.6701 31.2929C27.4895 31.1124 27.1969 31.1124 27.0164 31.2929C26.8358 31.4735 26.8358 31.7662 27.0164 31.9466L28.8309 33.7611C29.1116 34.0418 29.1116 34.4986 28.8309 34.7792C28.6949 34.9153 28.5141 34.9901 28.3218 34.9901C28.1295 34.9901 27.9487 34.9153 27.8128 34.7793L25.9982 32.9648C25.8177 32.7843 25.525 32.7843 25.3445 32.9648C25.164 33.1453 25.164 33.438 25.3445 33.6185L27.159 35.433C27.4398 35.7136 27.4398 36.1704 27.159 36.4511C27.0231 36.587 26.8423 36.6619 26.65 36.6619C26.4577 36.6619 26.277 36.587 26.141 36.4511L24.9655 35.2756C25.34 34.6514 25.2588 33.8281 24.7213 33.2906L24.6934 33.2628C24.3353 32.9047 23.8502 32.7492 23.3817 32.796C23.3554 32.4039 23.1905 32.0388 22.91 31.7582C22.693 31.5412 22.4293 31.3986 22.151 31.3303C22.2219 31.1462 22.2594 30.9488 22.2594 30.7456C22.2594 30.3116 22.0904 29.9036 21.7836 29.5967C21.4767 29.2898 21.0687 29.1208 20.6347 29.1208C20.3874 29.1208 20.1486 29.1759 19.9321 29.2799C19.8592 29.0212 19.7216 28.7771 19.5184 28.5738C18.885 27.9404 17.8542 27.9405 17.2207 28.5738L17.0301 28.7645L16.8911 28.6255C16.6675 28.402 16.5445 28.1048 16.5445 27.7887V26.5832C16.5445 26.4606 16.4958 26.343 16.4091 26.2564L14.4358 24.283L14.9906 23.7281C15.1712 23.5475 15.1712 23.2549 14.9906 23.0744C14.8101 22.8938 14.5174 22.8939 14.3369 23.0744L13.5936 23.8177C13.4535 23.9579 13.2253 23.958 13.0852 23.8177L10.7065 21.439C10.5259 21.2585 10.2333 21.2585 10.0527 21.439C9.87221 21.6195 9.87221 21.9121 10.0527 22.0927L12.4315 24.4714C12.6818 24.7217 13.0106 24.8468 13.3393 24.8468C13.4446 24.8468 13.5496 24.8325 13.6522 24.8069L15.62 26.7746V27.7887C15.62 28.3517 15.8393 28.881 16.2373 29.2791L16.3764 29.4182L16.2217 29.5728C15.9148 29.8797 15.7458 30.2877 15.7458 30.7217C15.7458 31.1558 15.9148 31.5638 16.2216 31.8706C16.5384 32.1873 16.9545 32.3457 17.3706 32.3457C17.3772 32.3457 17.3838 32.3453 17.3904 32.3452C17.3903 32.352 17.3899 32.3588 17.3899 32.3657C17.3899 32.7997 17.5589 33.2077 17.8657 33.5145C18.1726 33.8214 18.5807 33.9904 19.0146 33.9904C19.0215 33.9904 19.0283 33.99 19.0351 33.9899C19.03 34.4125 19.188 34.8368 19.5097 35.1585C19.8265 35.4753 20.2426 35.6337 20.6587 35.6337C20.6655 35.6337 20.6724 35.6332 20.6791 35.6332C20.6738 36.056 20.8318 36.4806 21.1538 36.8026L21.1816 36.8304C21.4885 37.1373 21.8965 37.3063 22.3304 37.3063C22.7645 37.3063 23.1725 37.1373 23.4793 36.8304L24.3462 35.9636L25.4874 37.1048C25.7979 37.4154 26.2109 37.5865 26.6501 37.5865C27.0894 37.5865 27.5023 37.4154 27.8129 37.1048C28.1406 36.7771 28.3003 36.3444 28.2931 35.914C28.3027 35.9141 28.3122 35.9146 28.3219 35.9146C28.7612 35.9146 29.1741 35.7436 29.4847 35.433C29.8126 35.1051 29.9724 34.672 29.9649 34.2414C29.9745 34.2416 29.9841 34.2421 29.9937 34.2421C30.4148 34.242 30.836 34.0817 31.1564 33.7612C31.4671 33.4506 31.6381 33.0377 31.6381 32.5984C31.6381 32.5888 31.6375 32.5792 31.6374 32.5696C31.6468 32.5698 31.6562 32.5703 31.6655 32.5703C32.0866 32.5703 32.5077 32.41 32.8283 32.0894C33.1769 31.7408 33.3355 31.2734 33.3051 30.8164L36.116 28.0055C36.2965 27.825 36.2965 27.5323 36.116 27.3518C35.9353 27.1712 35.6427 27.1712 35.4621 27.3517ZM16.8753 31.2168C16.743 31.0846 16.6703 30.9087 16.6703 30.7217C16.6703 30.5347 16.7431 30.3588 16.8754 30.2266L17.8744 29.2276C18.0109 29.0911 18.1902 29.0228 18.3696 29.0228C18.5489 29.0228 18.7282 29.091 18.8647 29.2275C19.1377 29.5006 19.1377 29.9449 18.8647 30.2178L17.8656 31.2169C17.5926 31.4899 17.1484 31.4899 16.8753 31.2168ZM19.0145 33.066C18.8275 33.066 18.6516 32.9931 18.5193 32.8609C18.3871 32.7286 18.3143 32.5528 18.3143 32.3658C18.3143 32.1788 18.3871 32.0029 18.5194 31.8706L19.5185 30.8716L20.1396 30.2504C20.2719 30.1182 20.4476 30.0453 20.6347 30.0453C20.8217 30.0453 20.9976 30.1182 21.1298 30.2504C21.262 30.3827 21.3349 30.5586 21.3349 30.7456C21.3349 30.9326 21.262 31.1085 21.1298 31.2407L19.5096 32.8609C19.3773 32.9931 19.2016 33.066 19.0145 33.066ZM20.1633 34.5049C19.8903 34.2318 19.8903 33.7876 20.1633 33.5145L21.266 32.4118C21.4025 32.2754 21.5818 32.2071 21.7611 32.2071C21.9404 32.2071 22.1198 32.2754 22.2562 32.4119C22.3885 32.5441 22.4614 32.72 22.4614 32.907C22.4614 33.094 22.3886 33.2697 22.2565 33.4019L21.1536 34.5048C20.8806 34.7779 20.4364 34.7779 20.1633 34.5049ZM22.8254 36.1767C22.6932 36.309 22.5174 36.3818 22.3303 36.3818C22.1433 36.3818 21.9674 36.309 21.8352 36.1767L21.8074 36.1489C21.5343 35.8759 21.5343 35.4316 21.8074 35.1586L22.91 34.056C22.9104 34.0556 22.9107 34.0552 22.911 34.0549L23.0494 33.9165C23.186 33.78 23.3653 33.7118 23.5446 33.7118C23.7239 33.7118 23.9032 33.7801 24.0397 33.9165L24.0675 33.9443C24.3406 34.2173 24.3406 34.6616 24.0675 34.9346L22.8254 36.1767Z" fill="#1C3661"/>
<path d="M41.274 23.3866C41.0935 23.2061 40.8009 23.206 40.6203 23.3866L38.8881 25.1189C38.8642 25.1427 38.8249 25.1431 38.8006 25.1198L32.6767 19.2701C32.6641 19.2581 32.6575 19.2431 32.6573 19.2256C32.6572 19.2081 32.6634 19.1929 32.6757 19.1806L36.3079 15.5485C36.4884 15.3679 36.4884 15.0752 36.3079 14.8948C36.1274 14.7143 35.8347 14.7143 35.6541 14.8948L32.022 18.5269C31.8325 18.7164 31.7299 18.9683 31.733 19.2362C31.7355 19.4522 31.8075 19.6555 31.9364 19.8235L30.2741 21.4536L28.708 20.5801C28.5033 20.4659 28.2713 20.4056 28.0369 20.4056H23.587L23.2484 20.067C22.9337 19.7523 22.5633 19.5124 22.1474 19.354L20.9156 18.8846L20.3463 18.3154C20.6407 17.8224 20.5773 17.1736 20.1532 16.7496L18.2984 14.8948C18.1179 14.7143 17.8253 14.7143 17.6447 14.8948C17.4642 15.0753 17.4642 15.368 17.6447 15.5485L19.4995 17.4033C19.6397 17.5434 19.6397 17.7715 19.4995 17.9118L15.7299 21.6814C15.5494 21.8619 15.5494 22.1546 15.7299 22.335C15.8202 22.4253 15.9385 22.4705 16.0568 22.4705C16.1751 22.4705 16.2934 22.4253 16.3837 22.335L19.7211 18.9976L20.3317 19.6082C20.3778 19.6543 20.4332 19.6901 20.4941 19.7133L21.8183 20.2179C22.104 20.3268 22.3591 20.4906 22.5772 20.7042C22.5492 20.7278 22.5216 20.7522 22.4954 20.7785L20.7374 22.5366C20.3885 22.8854 20.1964 23.3493 20.1964 23.8427C20.1964 24.3361 20.3885 24.7999 20.7373 25.1488C21.0978 25.5093 21.5694 25.6922 22.043 25.6922C22.4569 25.6922 22.8724 25.5524 23.2165 25.2695L24.5469 24.1758H25.9327L27.5162 25.7593C27.6064 25.8495 27.7248 25.8947 27.843 25.8947C27.9613 25.8947 28.0797 25.8496 28.1699 25.7593C28.3505 25.5788 28.3505 25.2861 28.1699 25.1056L27.026 23.9616C27.0718 23.8899 27.0987 23.805 27.0987 23.7136C27.0987 23.4583 26.8918 23.2513 26.6364 23.2513H24.3812C24.2742 23.2513 24.1704 23.2885 24.0877 23.3565L22.6294 24.5554C22.2606 24.8585 21.7284 24.8325 21.3911 24.4951C21.2168 24.3208 21.1208 24.0892 21.1208 23.8428C21.1208 23.5964 21.2168 23.3646 21.3911 23.1904L23.1491 21.4323C23.2149 21.3664 23.3024 21.3302 23.3955 21.3302H28.0368C28.1139 21.3302 28.1902 21.35 28.2576 21.3876L29.9897 22.3537C30.2468 22.4972 30.5738 22.4538 30.7852 22.2472L32.5958 20.4715L37.5807 25.2331L36.855 25.9588C36.6745 26.1393 36.6745 26.432 36.8551 26.6125C36.9453 26.7027 37.0636 26.7479 37.1819 26.7479C37.3002 26.7479 37.4185 26.7027 37.5088 26.6125L38.2553 25.8659C38.4289 25.9945 38.636 26.0594 38.8436 26.0594C39.0972 26.0594 39.3508 25.9636 39.5417 25.7726L41.274 24.0404C41.4545 23.8598 41.4545 23.5671 41.274 23.3866Z" fill="#1C3661"/>
</svg>
