<svg width="63" height="41" viewBox="0 0 63 41" fill="none" xmlns="http://www.w3.org/2000/svg">
<path d="M31.5 40.4688C22.0371 40.4688 13.0822 36.4595 6.27949 29.1798C5.44302 28.2856 5.49183 26.8811 6.38599 26.0447C7.28237 25.2082 8.68462 25.257 9.5233 26.1512C15.4762 32.5234 23.2796 36.0312 31.5 36.0312C42.0679 36.0312 51.7994 30.2514 57.77 20.5C51.8016 10.7486 42.0679 4.96875 31.5 4.96875C20.5438 4.96875 10.484 11.1835 4.58658 21.5938C3.98308 22.6611 2.62521 23.0383 1.56243 22.4303C0.495209 21.8268 0.122459 20.4734 0.725959 19.4062C7.41993 7.58687 18.9264 0.53125 31.5 0.53125C44.0759 0.53125 55.5801 7.58687 62.2741 19.4062C62.6579 20.0851 62.6579 20.9149 62.2741 21.5916C55.5801 33.4109 44.0759 40.4688 31.5 40.4688Z" fill="#1C3661"/>
<path d="M31.5 31.5938C25.3829 31.5938 20.4062 26.6171 20.4062 20.5C20.4062 14.3829 25.3829 9.40625 31.5 9.40625C37.6171 9.40625 42.5938 14.3829 42.5938 20.5C42.5938 26.6171 37.6171 31.5938 31.5 31.5938ZM31.5 13.8438C27.8302 13.8438 24.8438 16.8302 24.8438 20.5C24.8438 24.1698 27.8302 27.1562 31.5 27.1562C35.1698 27.1562 38.1562 24.1698 38.1562 20.5C38.1562 16.8302 35.1698 13.8438 31.5 13.8438Z" fill="#1C3661"/>
</svg>
