<svg width="512" height="470" viewBox="0 0 512 470" fill="none" xmlns="http://www.w3.org/2000/svg">
<path d="M491.126 311.545L432.369 288.042C432.051 287.915 431.757 287.753 431.459 287.597C472.042 278.363 491.262 262.921 492.115 262.222C494.144 260.559 495.157 257.957 494.786 255.36C494.701 254.766 486.292 195.225 486.292 136.456C486.292 80.346 440.643 34.697 384.533 34.697C328.423 34.697 282.775 80.345 282.775 136.456C282.775 151.83 282.077 170.634 280.941 188.435L264.568 196.622L216.508 172.593C216.37 172.524 216.225 172.474 216.084 172.414C218.37 165.751 219.865 158.725 220.414 151.434C230.467 148.328 237.792 138.947 237.792 127.887C237.792 120.438 234.464 113.756 229.223 109.234V59.334C229.223 45.549 222.258 32.651 210.836 24.901C206.966 10.521 194.046 0.420044 178.878 0.420044H110.326C73.116 0.420044 42.843 30.693 42.843 67.903V109.233C37.602 113.754 34.274 120.437 34.274 127.886C34.274 138.946 41.599 148.327 51.652 151.433C53.546 176.612 66.522 198.735 85.688 212.973V233.703L23.664 252.31C9.51 256.557 0 269.338 0 284.116V367.817C0 371.959 3.358 375.317 7.5 375.317H8.569V462.076C8.569 466.218 11.927 469.576 16.069 469.576C20.211 469.576 23.569 466.218 23.569 462.076V375.317H51.414V462.076C51.414 466.218 54.772 469.576 58.914 469.576C63.056 469.576 66.414 466.218 66.414 462.076V332.756C66.414 326.178 64.485 319.808 60.837 314.336L48.017 295.106C45.719 291.659 41.062 290.729 37.617 293.025C34.17 295.322 33.239 299.979 35.537 303.426L48.357 322.657C50.357 325.657 51.415 329.149 51.415 332.756V360.317H16.069H15V284.116C15 276.013 20.214 269.006 27.976 266.677L53.723 258.953C62.689 296.495 96.74 323.903 136.035 323.903C150.152 323.903 163.862 320.422 176.139 313.798C180.626 319.919 187.863 323.903 196.017 323.903H197.086V324.972C197.086 350.115 210.918 372.075 231.362 383.684V395.917C231.362 396.377 231.068 396.785 230.631 396.931L202.654 406.257C189.073 410.784 179.948 423.444 179.948 437.76V462.076C179.948 466.218 183.306 469.576 187.448 469.576C191.59 469.576 194.948 466.218 194.948 462.076V437.76C194.948 429.911 199.951 422.969 207.397 420.488L215.624 417.745C226.508 433.977 244.813 443.87 264.568 443.87C284.344 443.87 302.632 433.983 313.514 417.746L321.739 420.488C329.185 422.97 334.188 429.911 334.188 437.76V462.076C334.188 466.218 337.546 469.576 341.688 469.576C345.83 469.576 349.188 466.218 349.188 462.076V437.76C349.188 423.444 340.063 410.784 326.482 406.258L298.505 396.932C298.068 396.786 297.774 396.379 297.774 395.918V383.685C313.081 374.993 324.667 360.497 329.527 343.204C343.7 358.034 363.495 366.75 384.532 366.75C417.744 366.75 446.885 345.281 456.923 314.022L485.552 325.473C492.505 328.254 496.997 334.89 496.997 342.377V377.456H495.928H469.152V367.818C469.152 363.676 465.794 360.318 461.652 360.318C457.51 360.318 454.152 363.676 454.152 367.818V462.077C454.152 466.219 457.51 469.577 461.652 469.577C465.794 469.577 469.152 466.219 469.152 462.077V392.456H488.428V462.077C488.428 466.219 491.786 469.577 495.928 469.577C500.07 469.577 503.428 466.219 503.428 462.077V392.456H504.497C506.486 392.456 508.393 391.666 509.8 390.26C511.207 388.853 511.997 386.946 511.997 384.956V342.377C512 328.719 503.807 316.617 491.126 311.545ZM297.776 136.455C297.776 88.616 336.696 49.696 384.535 49.696C432.374 49.696 471.293 88.616 471.293 136.455C471.293 186.818 477.358 237.729 479.329 252.934C472.608 257.331 455.4 267.015 426.311 273.379V261.444C430.295 259.186 434.109 256.609 437.695 253.711C452.453 241.782 462.882 225.075 467.058 206.669C468.45 200.536 469.156 194.211 469.156 187.87C469.156 145.479 438.499 139.393 408.851 133.507C389.986 129.762 370.479 125.889 354.945 113.462C352.694 111.661 349.61 111.31 347.011 112.559C344.412 113.808 342.76 116.435 342.76 119.319C342.76 119.518 342.433 139.252 314.165 146.319C310.146 147.324 307.703 151.396 308.708 155.415C309.712 159.434 313.785 161.875 317.803 160.872C341.463 154.957 351.115 141.684 355.051 131.712C371.315 141.35 389.534 144.966 405.93 148.221C437.619 154.512 454.156 159.133 454.156 187.871C454.156 193.097 453.575 198.305 452.43 203.351C448.995 218.485 440.414 232.227 428.265 242.047C415.765 252.151 400.643 257.491 384.535 257.491C369.851 257.491 355.876 252.987 344.016 244.476C339.671 232.617 332.692 221.767 323.483 212.827V179.302C323.483 176.702 322.137 174.288 319.926 172.922C317.715 171.556 314.955 171.431 312.629 172.594L296.436 180.69C297.324 165.071 297.776 150.221 297.776 136.455ZM308.483 191.435V218.578L281.339 205.007L308.483 191.435ZM220.655 191.435L247.798 205.007L220.655 218.578V191.435ZM179.948 273.558V280.681C174.578 285.318 171.379 292.104 171.379 299.264C160.697 305.575 148.562 308.903 136.034 308.903C103.41 308.903 75.185 285.945 68.124 254.633L86.653 249.074C91.224 272.162 111.625 289.627 136.035 289.627C155.418 289.627 172.266 278.61 180.676 262.515C180.195 266.157 179.948 269.845 179.948 273.558ZM100.69 239.27V221.897C111.452 226.867 123.424 229.644 136.035 229.644C148.645 229.644 160.618 226.866 171.38 221.898V239.281C171.38 258.77 155.525 274.626 136.035 274.626C116.578 274.626 100.745 258.822 100.692 239.377C100.692 239.341 100.69 239.305 100.69 239.27ZM136.035 214.644C97.645 214.644 66.414 183.413 66.414 145.024C66.414 140.882 63.056 137.524 58.914 137.524C53.6 137.524 49.276 133.2 49.276 127.886C49.276 122.572 53.599 118.248 58.914 118.248H76.052C79.28 118.248 82.146 116.183 83.167 113.12L90.051 92.468C107.286 92.079 160.715 89.656 190.802 74.612C194.507 72.759 196.009 68.255 194.156 64.55C192.304 60.845 187.8 59.343 184.094 61.196C151.813 77.336 85.287 77.542 84.619 77.542C81.391 77.543 78.525 79.608 77.505 82.671L70.646 103.249H58.914C58.556 103.249 58.2 103.261 57.845 103.276V67.903C57.845 38.964 81.389 15.42 110.328 15.42H178.88C187.836 15.42 195.36 21.875 196.773 30.767C197.132 33.027 198.503 34.999 200.496 36.123C208.964 40.899 214.225 49.792 214.225 59.333V103.274C213.87 103.258 213.515 103.247 213.156 103.247H204.587C200.445 103.247 197.087 106.605 197.087 110.747C197.087 114.889 200.445 118.247 204.587 118.247H213.156C218.47 118.247 222.794 122.57 222.794 127.885C222.794 133.2 218.471 137.523 213.156 137.523C209.014 137.523 205.656 140.881 205.656 145.023C205.656 183.412 174.425 214.644 136.035 214.644ZM186.379 239.283V212.973C193.84 207.43 200.361 200.697 205.655 193.045V212.826C197.256 220.98 190.709 230.721 186.326 241.369C186.355 240.676 186.379 239.982 186.379 239.283ZM298.548 412.756C290.291 422.843 277.887 428.869 264.569 428.869C251.267 428.869 238.855 422.839 230.595 412.755L235.375 411.162C241.947 408.972 246.363 402.845 246.363 395.918V389.94C252.159 391.567 258.261 392.456 264.57 392.456C270.879 392.456 276.981 391.567 282.777 389.94V395.918C282.776 402.844 287.191 408.971 293.764 411.161L298.548 412.756ZM324.553 308.903C320.411 308.903 317.053 312.261 317.053 316.403V323.86C317.053 323.925 317.052 323.99 317.053 324.055V324.972C317.052 353.911 293.508 377.455 264.569 377.455C235.63 377.455 212.087 353.911 212.087 324.972V316.403C212.087 312.261 208.729 308.903 204.587 308.903H196.018C190.704 308.903 186.38 304.58 186.38 299.265C186.38 295.845 188.19 292.75 191.221 290.986C191.898 290.592 192.487 290.093 192.997 289.529C211.537 288.992 271.636 285.503 311.135 262.932C314.731 260.877 315.981 256.296 313.926 252.699C311.871 249.102 307.288 247.853 303.693 249.908C269.091 269.68 214.719 273.639 194.949 274.43V273.558C194.949 259.609 199.173 246.1 206.827 234.711C207.426 235.66 208.227 236.484 209.213 237.093C210.418 237.837 211.785 238.213 213.156 238.213C214.302 238.213 215.451 237.95 216.51 237.421L264.57 213.391L312.63 237.421C313.689 237.95 314.838 238.213 315.984 238.213C317.356 238.213 318.723 237.837 319.927 237.093C320.912 236.484 321.713 235.659 322.312 234.711C329.966 246.1 334.19 259.609 334.19 273.558V284.504C334.19 287.174 335.609 289.643 337.918 290.986C340.95 292.751 342.76 295.845 342.76 299.265C342.76 304.579 338.436 308.903 333.122 308.903H324.553V308.903ZM384.535 351.748C363.771 351.748 344.507 341.177 333.293 323.899C346.799 323.806 357.759 312.793 357.759 299.266C357.759 292.106 354.56 285.319 349.19 280.682V273.559C349.19 270.54 349.027 267.538 348.708 264.564C359.829 269.778 371.971 272.489 384.535 272.489C393.68 272.489 402.724 270.974 411.311 268.11V279.093C411.311 289.226 417.39 298.206 426.798 301.969L442.971 308.438C435.22 334.066 411.55 351.748 384.535 351.748Z" fill="#1C3661"/>
</svg>
