<svg width="77" height="76" viewBox="0 0 77 76" fill="none" xmlns="http://www.w3.org/2000/svg">
<circle cx="38.5" cy="38" r="36.5" fill="#1C3661" stroke="#D3BB8C" stroke-width="3"/>
<path d="M26.3151 51.0996C26.1881 50.9724 26.0117 50.8993 25.8319 50.8993C25.6521 50.8993 25.4757 50.9724 25.3486 51.0996C25.2214 51.2268 25.1483 51.4031 25.1483 51.5829C25.1483 51.7627 25.2214 51.9391 25.3486 52.0661C25.4757 52.1933 25.6521 52.2665 25.8319 52.2665C26.0117 52.2665 26.1881 52.1934 26.3151 52.0661C26.4423 51.9391 26.5155 51.7627 26.5155 51.5829C26.5155 51.4031 26.4424 51.2267 26.3151 51.0996Z" fill="#D3BB8C"/>
<path d="M52.5967 32.5058C52.4696 32.3786 52.2939 32.3055 52.1134 32.3055C51.9336 32.3055 51.7572 32.3786 51.6301 32.5058C51.503 32.633 51.4298 32.8094 51.4298 32.9892C51.4298 33.169 51.5029 33.3453 51.6301 33.4724C51.7572 33.5996 51.9336 33.6728 52.1134 33.6728C52.2939 33.6728 52.4696 33.5996 52.5967 33.4724C52.7245 33.3453 52.7976 33.169 52.7976 32.9892C52.7976 32.8094 52.7245 32.633 52.5967 32.5058Z" fill="#D3BB8C"/>
<path d="M55.2998 20.2002C55.1715 20.0721 54.9976 20 54.8163 20L37.9998 20.0009C37.6223 20.0009 37.3163 20.307 37.3163 20.6845V22.6394L30.8364 24.3757C30.4717 24.4735 30.2553 24.8483 30.353 25.2129L33.7114 37.7464L30.8061 40.6517C30.4364 40.1118 29.8155 39.7567 29.1132 39.7567H22.5508C21.4199 39.7567 20.5 40.6767 20.5 41.8075V52.9501C20.5 54.0809 21.4199 55.0009 22.5508 55.0009H29.1133C30.074 55.0009 30.8821 54.3367 31.1036 53.4436L31.9164 54.1525C32.5439 54.6996 33.3479 55.001 34.1804 55.001H54.8164C55.1939 55.001 55.5 54.6948 55.5 54.3173V20.6836C55.4999 20.5023 55.4279 20.3284 55.2998 20.2002ZM29.7968 52.9501C29.7968 53.327 29.4901 53.6337 29.1132 53.6337H22.5507C22.1738 53.6337 21.8671 53.3271 21.8671 52.9501V41.8075C21.8671 41.4306 22.1738 41.1239 22.5507 41.1239H25.1484V48.9988C25.1484 49.3763 25.4545 49.6824 25.832 49.6824C26.2095 49.6824 26.5156 49.3763 26.5156 48.9988V41.1239H29.1132C29.4902 41.1239 29.7968 41.4306 29.7968 41.8075V52.9501H29.7968ZM31.8505 25.5194L37.3163 24.0548V26.588L36.8581 26.7107C36.6829 26.7577 36.5337 26.8722 36.443 27.0292C36.3524 27.1863 36.3278 27.3728 36.3747 27.548C36.6375 28.5283 36.0536 29.5396 35.0732 29.8023C34.8979 29.8493 34.7484 29.964 34.6578 30.1214C34.5672 30.2787 34.5428 30.4656 34.5902 30.6409L37.2548 40.508H35.8828L35.1758 37.7418C35.1533 37.6538 35.1139 37.5726 35.0612 37.5021L31.8505 25.5194ZM37.3163 29.7229V35.4913L36.0694 30.8745C36.5903 30.6056 37.0165 30.2032 37.3163 29.7229ZM47.1373 53.6337H34.1803C33.6782 53.6337 33.1933 53.452 32.8148 53.122L31.164 51.6822V42.2274L34.1485 39.2429L34.6898 41.3607C34.7672 41.6634 35.0397 41.875 35.3521 41.875L48.7921 41.8758C49.3199 41.8758 49.7492 42.3051 49.7492 42.8329C49.7492 43.3606 49.3199 43.7899 48.7921 43.7899H41.9054C41.5279 43.7899 41.2218 44.0961 41.2218 44.4736C41.2218 44.851 41.5279 45.1572 41.9054 45.1572H50.9318C51.4596 45.1572 51.8889 45.5865 51.8889 46.1142C51.8889 46.642 51.4596 47.0713 50.9318 47.0713H41.9054C41.5279 47.0713 41.2218 47.3774 41.2218 47.7549C41.2218 48.1324 41.5279 48.4385 41.9054 48.4385H49.4691C49.9969 48.4385 50.4262 48.8678 50.4262 49.3956C50.4262 49.9233 49.9969 50.3526 49.4691 50.3526H41.9054C41.5279 50.3526 41.2218 50.6587 41.2218 51.0362C41.2218 51.4137 41.5279 51.7198 41.9054 51.7198H47.1373C47.6651 51.7198 48.0944 52.1491 48.0944 52.6769C48.0943 53.2044 47.665 53.6337 47.1373 53.6337ZM54.1328 53.6337H54.1327H49.2545C49.3871 53.3416 49.4615 53.0177 49.4615 52.6766C49.4615 52.3355 49.3871 52.0117 49.2545 51.7196H49.4691C50.7507 51.7196 51.7933 50.6769 51.7933 49.3953C51.7933 49.0215 51.7041 48.6683 51.5466 48.3551C52.5307 48.0848 53.256 47.1828 53.256 46.1141C53.256 45.5956 53.0852 45.1164 52.7972 44.7294V36.0653C52.7972 35.6878 52.4911 35.3817 52.1136 35.3817C51.7361 35.3817 51.43 35.6878 51.43 36.0653V43.8443C51.2693 43.8091 51.1027 43.7899 50.9317 43.7899H50.9093C51.0418 43.4978 51.1163 43.174 51.1163 42.8329C51.1163 41.5513 50.0736 40.5087 48.7921 40.5087H47.6932C48.86 40.0083 49.6795 38.8485 49.6795 37.5004C49.6795 35.6965 48.212 34.2288 46.408 34.2288C44.6041 34.2288 43.1364 35.6965 43.1364 37.5004C43.1364 38.8485 43.956 40.0083 45.1228 40.5087H41.386V27.5104C42.6072 27.2442 43.5708 26.2807 43.8368 25.0594H48.979C49.2451 26.2807 50.2087 27.2442 51.4299 27.5104V29.6357C51.4299 30.0132 51.736 30.3193 52.1135 30.3193C52.491 30.3193 52.7971 30.0132 52.7971 29.6357V26.9C52.7971 26.5225 52.491 26.2164 52.1135 26.2164C51.0986 26.2164 50.273 25.3907 50.273 24.3758C50.273 23.9983 49.9669 23.6922 49.5894 23.6922H43.2266C42.8491 23.6922 42.543 23.9983 42.543 24.3758C42.543 25.3908 41.7173 26.2164 40.7024 26.2164C40.3249 26.2164 40.0188 26.5225 40.0188 26.9V40.5086H38.6836V21.368L54.1328 21.3672V53.6337ZM46.4081 39.4048C45.358 39.4048 44.5038 38.5505 44.5038 37.5005C44.5038 36.4505 45.3581 35.5961 46.4081 35.5961C47.4581 35.5961 48.3124 36.4504 48.3124 37.5004C48.3124 38.5505 47.4582 39.4048 46.4081 39.4048Z" fill="#D3BB8C"/>
</svg>
