<svg width="60" height="60" viewBox="0 0 60 60" fill="none" xmlns="http://www.w3.org/2000/svg">
<path d="M17.6719 37.3125C17.0391 37.3125 16.5234 37.8281 16.5234 38.4609V55.9453H7.875V38.5078C7.875 37.875 7.35938 37.3594 6.72656 37.3594C6.09375 37.3594 5.57812 37.875 5.57812 38.5078V57.1172C5.57812 57.75 6.09375 58.2656 6.72656 58.2656H17.6719C18.3047 58.2656 18.8203 57.75 18.8203 57.1172V38.4844C18.8203 37.8281 18.3047 37.3125 17.6719 37.3125Z" fill="#1C3661"/>
<path d="M35.4609 32.8594C34.8281 32.8594 34.3125 33.375 34.3125 34.0078V55.9453H25.6875V37.4531C25.6875 36.8203 25.1719 36.3047 24.5391 36.3047C23.9062 36.3047 23.3906 36.8203 23.3906 37.4531V57.0938C23.3906 57.7266 23.9062 58.2422 24.5391 58.2422H35.4844C36.1172 58.2422 36.6328 57.7266 36.6328 57.0938V34.0078C36.6328 33.375 36.1172 32.8594 35.4609 32.8594Z" fill="#1C3661"/>
<path d="M53.2969 22.2422C52.6641 22.2422 52.1484 22.7578 52.1484 23.3906V55.9453H43.5V30.2109C43.5 29.5781 42.9844 29.0625 42.3516 29.0625C41.7187 29.0625 41.2031 29.5781 41.2031 30.2109V57.0938C41.2031 57.7266 41.7187 58.2422 42.3516 58.2422H53.2969C53.9297 58.2422 54.4453 57.7266 54.4453 57.0938V23.4141C54.4453 22.7578 53.9297 22.2422 53.2969 22.2422Z" fill="#1C3661"/>
<path d="M55.0547 2.8125C55.0312 2.39062 54.7734 2.03906 54.4219 1.85156C54.0469 1.66406 53.6016 1.6875 53.2734 1.92187L40.6641 10.3125C40.3125 10.5469 40.125 10.9453 40.1484 11.3438C40.1719 11.7656 40.4297 12.1172 40.7813 12.3047L46.4063 15.0938C40.4297 28.3594 20.9766 33.4922 5.25 31.5469C4.61719 31.4531 4.03125 31.9219 3.96094 32.5547C3.89063 33.1875 4.33594 33.7734 4.96876 33.8438C7.28907 34.125 9.65626 34.2656 12.0703 34.2656C27.1641 34.2656 42.8906 28.5 48.4922 16.1016L54.375 19.0312C54.5391 19.1016 54.7031 19.1484 54.8906 19.1484C55.125 19.1484 55.3359 19.0781 55.5234 18.9609C55.875 18.7266 56.0625 18.3281 56.0391 17.9297L55.0547 2.8125ZM48.3516 13.4766C48.3281 13.4766 48.3281 13.4531 48.3516 13.4766C48.3281 13.4531 48.3281 13.4531 48.3281 13.4531L43.6406 11.1328L52.8984 4.96875L53.625 16.0781L48.3516 13.4766Z" fill="#1C3661"/>
</svg>
