<svg width="512" height="450" viewBox="0 0 512 450" fill="none" xmlns="http://www.w3.org/2000/svg">
<path d="M255.995 70.946C261.517 70.946 265.995 66.468 265.995 60.946V10.006C265.995 4.48398 261.518 0.00598145 255.995 0.00598145C250.472 0.00598145 245.995 4.48298 245.995 10.006V60.946C245.996 66.468 250.473 70.946 255.995 70.946Z" fill="#1C3661"/>
<path d="M180.812 87.3729C182.713 90.3899 185.96 92.0419 189.281 92.0419C191.103 92.0419 192.948 91.5439 194.603 90.5009C199.275 87.5569 200.675 81.3819 197.731 76.7089L171.087 34.4339C168.142 29.7619 161.967 28.3609 157.296 31.3059C152.624 34.2499 151.224 40.4249 154.168 45.0979L180.812 87.3729Z" fill="#1C3661"/>
<path d="M317.42 90.504C319.075 91.545 320.918 92.042 322.738 92.042C326.06 92.042 329.309 90.388 331.21 87.369L357.826 45.094C360.768 40.42 359.365 34.247 354.691 31.303C350.015 28.362 343.844 29.766 340.901 34.438L314.285 76.713C311.343 81.388 312.747 87.561 317.42 90.504V90.504Z" fill="#1C3661"/>
<path d="M508.776 235.432L491.401 204.737C488.679 199.929 482.577 198.239 477.774 200.961C472.967 203.682 471.277 209.783 473.998 214.588L491.365 245.27C492.235 246.812 492.009 248.299 491.797 249.048C491.593 249.769 491.031 251.1 489.561 251.912L462.783 266.745C460.404 268.059 457.299 267.229 456.002 264.941L449.199 252.907C449.171 252.853 449.139 252.803 449.11 252.75L378.78 128.356C377.911 126.825 378.131 125.357 378.339 124.618C378.54 123.903 379.098 122.582 380.568 121.769L407.378 106.933C409.787 105.599 412.816 106.409 414.133 108.743L429.807 136.436C432.528 141.243 438.631 142.932 443.435 140.213C448.242 137.493 449.932 131.391 447.212 126.585L431.545 98.904C424.863 87.058 409.681 82.809 397.699 89.432L370.89 104.268C365.089 107.474 360.898 112.773 359.09 119.192C357.384 125.244 357.994 131.562 360.787 137.107L346.019 141.387C339.728 143.207 335.91 144.194 333.791 144.194C333.782 144.194 333.774 144.194 333.766 144.194C332.307 144.189 330.716 143.632 326.175 141.912C324.115 141.132 321.55 140.16 318.397 139.06L292.232 129.913C277.761 124.859 271.234 125.131 261.778 125.994L217.162 129.987C196.823 131.789 183.856 136.377 176.698 144.334L151.272 136.967C154.008 131.446 154.595 125.189 152.905 119.192C151.097 112.777 146.909 107.479 141.114 104.273L114.32 89.43C102.328 82.801 87.137 87.052 80.454 98.895L3.24999 235.418C-0.0550132 241.237 -0.873013 248.005 0.948987 254.476C2.75899 260.902 6.94899 266.206 12.739 269.408L39.533 284.249C43.364 286.367 47.526 287.373 51.633 287.373C60.358 287.373 68.84 282.834 73.399 274.785L76.23 269.777C83.956 273.178 90.443 278.119 94.864 283.969C90.546 289.015 87.826 295.242 87.063 302.015C86.055 310.972 88.585 319.76 94.187 326.765C99.741 333.71 107.683 338.092 116.564 339.124C115.624 348.005 118.164 356.707 123.723 363.634C129.469 370.818 137.59 375.009 146.085 375.998C145.149 384.866 147.68 393.56 153.222 400.491C158.773 407.451 166.717 411.842 175.607 412.874C174.666 421.762 177.206 430.469 182.765 437.397C189.391 445.681 199.173 449.994 209.048 449.993C216.42 449.993 223.844 447.589 230.042 442.639L250.98 425.885C252.643 424.558 254.154 423.091 255.513 421.511L267.473 431.065C273.658 436.001 281.065 438.399 288.427 438.398C298.307 438.397 308.105 434.079 314.74 425.787C318.237 421.415 320.451 416.425 321.451 411.274C324.948 412.484 328.64 413.109 332.404 413.108C333.666 413.108 334.936 413.038 336.21 412.897C345.17 411.902 353.182 407.496 358.749 400.514C364.318 393.576 366.858 384.875 365.919 375.995C374.408 375.004 382.533 370.814 388.296 363.633C394.036 356.456 396.34 347.62 395.438 339.122C404.314 338.088 412.252 333.707 417.793 326.778C423.399 319.792 425.94 311.017 424.947 302.067C424.193 295.273 421.471 289.025 417.145 283.965C421.553 278.117 428.027 273.17 435.758 269.771L438.595 274.789C443.151 282.835 451.629 287.372 460.356 287.372C464.465 287.371 468.631 286.365 472.466 284.245L499.245 269.411C505.033 266.211 509.221 260.915 511.038 254.5C512.87 248.035 512.069 241.267 508.776 235.432V235.432ZM55.993 264.936C54.693 267.232 51.586 268.06 49.217 266.749L22.424 251.909C20.961 251.099 20.403 249.773 20.199 249.054C19.99 248.309 19.767 246.83 20.649 245.28L97.865 108.73C98.749 107.163 100.415 106.285 102.145 106.285C102.987 106.285 103.843 106.492 104.633 106.929L131.419 121.767C131.422 121.769 131.425 121.771 131.428 121.772C132.894 122.583 133.451 123.904 133.653 124.619C133.861 125.358 134.081 126.826 133.202 128.374L55.993 264.936ZM128.967 316.396C126.147 318.655 122.586 319.676 118.947 319.271C115.306 318.867 112.061 317.093 109.807 314.275C107.548 311.45 106.53 307.89 106.939 304.252C107.346 300.629 109.121 297.4 111.955 295.145L149.393 265.219C155.269 260.528 163.87 261.493 168.566 267.358C170.824 270.181 171.843 273.735 171.435 277.362C171.029 280.977 169.253 284.203 166.435 286.445C166.373 286.494 166.32 286.549 166.26 286.6L128.976 316.389C128.973 316.391 128.97 316.394 128.967 316.396V316.396ZM139.331 351.13C137.074 348.317 136.054 344.772 136.457 341.148C136.86 337.521 138.637 334.277 141.459 332.014L141.462 332.012C141.464 332.011 141.466 332.009 141.468 332.008C141.469 332.008 141.469 332.007 141.47 332.006L195.396 288.922C201.271 284.23 209.874 285.188 214.569 291.061C216.824 293.88 217.843 297.43 217.44 301.056C217.036 304.686 215.254 307.93 212.425 310.19L158.513 353.258C152.631 357.952 144.031 357.005 139.331 351.13V351.13ZM177.989 393.02C174.349 392.616 171.107 390.84 168.85 388.01C166.595 385.191 165.576 381.641 165.979 378.015C166.383 374.388 168.162 371.147 170.987 368.887C170.989 368.885 170.992 368.883 170.994 368.881L208.312 339.069C208.356 339.035 208.404 339.006 208.448 338.971C214.308 334.28 222.908 335.235 227.608 341.093C229.867 343.917 230.886 347.477 230.477 351.115C230.069 354.738 228.294 357.967 225.461 360.222L188.024 390.147C185.195 392.406 181.63 393.422 177.989 393.02V393.02ZM243.507 401.138C243.102 404.765 241.325 408.002 238.495 410.262L217.556 427.019C211.673 431.714 203.073 430.769 198.375 424.893C196.118 422.082 195.097 418.534 195.5 414.903C195.903 411.272 197.678 408.033 200.495 405.783C200.498 405.781 200.502 405.778 200.505 405.776L221.439 389.042C221.45 389.033 221.462 389.026 221.473 389.018C227.35 384.328 235.951 385.289 240.647 391.157C242.896 393.971 243.913 397.514 243.507 401.138V401.138ZM402.185 314.274C399.931 317.092 396.685 318.867 393.045 319.271C389.408 319.68 385.845 318.656 383.025 316.396C383.024 316.395 383.022 316.394 383.02 316.393C383.019 316.392 383.017 316.391 383.016 316.39L356.258 295.011C351.942 291.563 345.65 292.267 342.204 296.581C338.757 300.895 339.46 307.188 343.774 310.635L370.523 332.007C376.391 336.706 377.358 345.29 372.688 351.129C367.976 357.001 359.375 357.956 353.503 353.253L324.478 330.091C320.162 326.647 313.87 327.354 310.425 331.67C306.981 335.986 307.687 342.278 312.004 345.723L341.015 368.874C343.842 371.138 345.621 374.384 346.025 378.015C346.428 381.639 345.408 385.185 343.132 388.02C340.883 390.84 337.641 392.615 334.002 393.02C330.359 393.421 326.794 392.404 323.976 390.155L309.534 378.605C309.509 378.585 309.487 378.564 309.462 378.544L297.26 368.789L294.979 366.965C290.664 363.515 284.372 364.216 280.924 368.528C280.493 369.068 280.126 369.638 279.824 370.23C278.376 373.06 278.4 376.379 279.759 379.162C280.388 380.451 281.294 381.628 282.488 382.583L297.009 394.196C302.838 398.903 303.791 407.458 299.124 413.293C294.427 419.164 285.825 420.123 279.952 415.438L263.477 402.276C264.163 393.717 261.627 385.37 256.263 378.663C252.929 374.496 248.794 371.34 244.253 369.223C247.581 364.606 249.694 359.182 250.35 353.35C251.358 344.394 248.828 335.606 243.216 328.589C239.881 324.433 235.751 321.284 231.219 319.172C234.553 314.541 236.666 309.106 237.316 303.266C238.311 294.33 235.779 285.559 230.187 278.566C220.565 266.536 204.293 262.879 190.75 268.627C189.666 263.649 187.451 258.953 184.181 254.864C172.603 240.396 151.401 238.029 136.91 249.591L110.134 270.994C104.079 263.267 95.848 256.859 86.116 252.289L141.195 154.868L170.521 163.365C170.655 164.934 170.909 166.584 171.334 168.332C178.433 197.52 205.307 211.12 241.47 203.833C271.94 197.702 284.484 206.835 309.467 225.028C312.059 226.915 314.752 228.876 317.571 230.895C335.538 243.785 354.738 258.936 367.611 269.205L400.071 295.147C402.891 297.397 404.666 300.637 405.069 304.271C405.472 307.902 404.452 311.45 402.185 314.274V314.274ZM401.874 270.988L380.091 253.579C367.04 243.168 347.569 227.805 329.224 214.643C326.444 212.652 323.793 210.721 321.241 208.863C295.335 189.998 276.612 176.368 237.524 184.229C225.56 186.64 197.056 189.459 190.769 163.611C189.883 159.962 190.783 158.708 191.166 158.173C192.503 156.309 197.883 151.772 218.932 149.908L263.595 145.911C270.873 145.247 274.524 144.913 285.632 148.793L311.8 157.941C314.709 158.957 317.035 159.837 319.088 160.615C331.688 165.388 335.027 165.387 351.58 160.596L370.872 155.006L425.877 252.295C416.142 256.862 407.919 263.265 401.874 270.988Z" fill="#1C3661"/>
<path d="M460.57 180.599C466.092 180.599 470.57 176.107 470.57 170.584C470.57 165.061 466.092 160.584 460.57 160.584C455.048 160.584 450.57 165.062 450.57 170.584V170.612C450.57 176.135 455.048 180.599 460.57 180.599Z" fill="#1C3661"/>
</svg>
