<svg width="512" height="512" viewBox="0 0 512 512" fill="none" xmlns="http://www.w3.org/2000/svg">
<path d="M456 204.72L466.52 211.864C467.856 212.768 469.416 213.248 471.016 213.248C471.512 213.248 472.024 213.2 472.52 213.104C474.6 212.704 476.44 211.496 477.632 209.736L495.6 183.248C498.088 179.592 497.128 174.616 493.472 172.136L260.496 14.048C257.776 12.208 254.232 12.208 251.512 14.048L18.52 172.144C14.864 174.624 13.912 179.6 16.392 183.256L34.36 209.744C35.544 211.504 37.392 212.712 39.472 213.112C41.568 213.512 43.72 213.056 45.472 211.872L56 204.72V284.76C51.312 286.808 47.48 290.592 45.472 295.568C32.024 328.816 16 372.512 16 392C16 420.72 32.72 443.024 56 447.224V480H16V496H496V480H456V204.72ZM43.112 194.136L34.128 180.88L256 30.328L477.872 180.88L468.888 194.128L260.496 52.72C259.136 51.8 257.568 51.336 256 51.336C254.432 51.336 252.864 51.8 251.504 52.72L43.112 194.136ZM32 392C32 379 42.312 346.04 60.296 301.568C61.216 299.304 63.192 299.064 64 299.064C64.808 299.064 66.784 299.304 67.704 301.568C85.688 346.04 96 379 96 392C96 415.176 82.536 432 64 432C45.464 432 32 415.176 32 392V392ZM72 447.224C95.28 443.024 112 420.72 112 392C112 372.512 95.976 328.816 82.528 295.568C80.52 290.592 76.688 286.808 72 284.76V193.864L256 69.008L440 193.864V349.584L438.656 347.568C435.688 343.112 428.312 343.112 425.344 347.568L409.344 371.568C408.472 372.872 408 374.424 408 376V392H392V376C392 374.424 391.528 372.872 390.656 371.56L374.656 347.56C371.688 343.104 364.312 343.104 361.344 347.56L345.344 371.56C344.472 372.872 344 374.424 344 376V392H328V376C328 374.424 327.528 372.872 326.656 371.56L310.656 347.56C307.688 343.104 300.312 343.104 297.344 347.56L281.344 371.56C280.472 372.872 280 374.424 280 376V480H232V328C232 323.576 228.424 320 224 320H136C131.576 320 128 323.576 128 328V480H72V447.224ZM312 480H296V378.424L304 366.424L312 378.424V480ZM328 408H344V424H328V408ZM328 440H344V480H328V440ZM376 480H360V378.424L368 366.424L376 378.424V480ZM392 408H408V424H392V408ZM392 440H408V480H392V440ZM216 480H144V336H216V480ZM424 480V378.424L432 366.424L440 378.424V480H424Z" fill="#1C3661"/>
<path d="M232 264H280C297.648 264 312 249.648 312 232V184C312 166.352 297.648 152 280 152H232C214.352 152 200 166.352 200 184V232C200 249.648 214.352 264 232 264ZM216 232V216H248V248H232C223.176 248 216 240.824 216 232ZM280 248H264V216H296V232C296 240.824 288.824 248 280 248ZM296 184V200H264V168H280C288.824 168 296 175.176 296 184ZM232 168H248V200H216V184C216 175.176 223.176 168 232 168Z" fill="#1C3661"/>
<path d="M184 400H200V416H184V400Z" fill="#1C3661"/>
</svg>
