<svg width="74" height="79" viewBox="0 0 74 79" fill="none" xmlns="http://www.w3.org/2000/svg">
<path fill-rule="evenodd" clip-rule="evenodd" d="M65.5387 68.9577H7.71351C4.35204 68.9577 1.62665 66.0171 1.62665 62.3903V27.9114C1.62665 24.2846 4.35204 21.344 7.71351 21.344H30.5392V14.7766C30.5392 11.1498 33.2646 8.20923 36.6261 8.20923C39.9876 8.20923 42.7129 11.1498 42.7129 14.7766V21.344H65.5387C68.9001 21.344 71.6255 24.2846 71.6255 27.9114V62.3903C71.6255 66.0171 68.9001 68.9577 65.5387 68.9577ZM25.9954 56.6241C25.9954 56.629 25.9954 56.6307 25.9954 56.6307C25.9893 56.6307 25.968 55.3484 25.968 55.3484C25.968 55.3484 27.7423 54.3616 29.0586 53.0859C29.8301 52.4013 30.1862 50.8497 30.1862 50.8497C30.3947 49.4903 30.5484 46.1261 30.5484 44.7699C30.5484 41.3844 28.9764 37.7428 24.4508 37.7428V37.7297V37.7412C19.9253 37.7412 18.3533 41.3844 18.3533 44.7683C18.3533 46.1245 18.5086 49.4886 18.7155 50.8481C18.7155 50.8481 19.0716 52.3996 19.8431 53.0843C21.1594 54.36 22.9337 55.3467 22.9337 55.3467C22.9337 55.3467 22.9124 56.629 22.9063 56.629C22.9063 56.629 22.9063 56.6274 22.9063 56.6225C22.9063 56.6225 22.9504 58.504 22.9504 59.0639C22.9504 61.3001 20.8733 62.3771 19.5677 62.3771C19.5646 62.3771 19.5646 62.3771 19.5631 62.3771C15.6173 62.5627 14.686 63.9796 14.6784 63.9927C14.438 64.4098 14.1032 64.8235 13.7973 65.674H35.1074C34.8016 64.8235 34.4668 64.4098 34.2218 63.996C34.2142 63.9812 33.2829 62.566 29.3371 62.3804C29.3356 62.3804 29.3356 62.3804 29.3325 62.3804C28.0284 62.3804 25.9497 61.305 25.9497 59.0672C25.9497 58.5057 25.9954 56.6241 25.9954 56.6241ZM39.6695 14.7766C39.6695 12.964 38.3061 11.4929 36.6261 11.4929C34.9461 11.4929 33.5827 12.964 33.5827 14.7766V24.6277C33.5827 26.4403 34.9461 27.9114 36.6261 27.9114C38.3061 27.9114 39.6695 26.4403 39.6695 24.6277V14.7766ZM68.5821 27.9114C68.5821 26.0988 67.2186 24.6277 65.5387 24.6277H42.7129C42.7129 28.2546 39.9876 31.1951 36.6261 31.1951C33.2646 31.1951 30.5392 28.2546 30.5392 24.6277H7.71351C6.03353 24.6277 4.67008 26.0988 4.67008 27.9114V62.3903C4.67008 64.2029 6.03353 65.674 7.71351 65.674H10.448C10.7995 64.7069 11.4463 63.1307 12.2132 61.9962C12.2513 61.9732 13.5036 59.1411 19.8187 59.0573C19.8279 59.0228 19.834 57.3465 19.8522 57.3711C19.3653 57.0395 18.7307 56.5239 18.2529 56.0314C17.8649 55.7753 16.4862 54.3419 16.0434 51.7905C15.911 50.9006 15.3008 46.7024 15.3008 44.9505C15.3008 39.7442 17.2257 34.4739 24.3595 34.4739C24.3915 34.4739 24.5117 34.4739 24.5437 34.4739C31.6775 34.4739 33.6024 39.7442 33.6024 44.9505C33.6024 46.7024 32.9922 50.9006 32.8598 51.7905C32.417 54.3419 31.0384 55.7753 30.6503 56.0314C30.174 56.5256 29.5395 57.0395 29.051 57.3711C29.0708 57.3465 29.0769 59.0245 29.0845 59.0573C35.4011 59.1411 36.6535 61.9732 36.69 61.9962C37.4569 63.1307 38.1037 64.7069 38.4552 65.674H65.5387C67.2186 65.674 68.5821 64.2029 68.5821 62.3903V27.9114ZM60.9735 42.6881H42.7129C41.8714 42.6881 41.1912 41.9542 41.1912 41.0462C41.1912 40.1383 41.8714 39.4044 42.7129 39.4044H60.9735C61.815 39.4044 62.4952 40.1383 62.4952 41.0462C62.4952 41.9542 61.815 42.6881 60.9735 42.6881ZM42.7129 49.2555H45.7564C46.5979 49.2555 47.2781 49.9894 47.2781 50.8973C47.2781 51.8053 46.5979 52.5392 45.7564 52.5392H42.7129C41.8714 52.5392 41.1912 51.8053 41.1912 50.8973C41.1912 49.9894 41.8714 49.2555 42.7129 49.2555ZM42.7129 55.8229H51.8432C52.6847 55.8229 53.365 56.5568 53.365 57.4647C53.365 58.3727 52.6847 59.1066 51.8432 59.1066H42.7129C41.8714 59.1066 41.1912 58.3727 41.1912 57.4647C41.1912 56.5568 41.8714 55.8229 42.7129 55.8229ZM48.7998 50.8973C48.7998 49.9894 49.48 49.2555 50.3215 49.2555H56.4084C57.2499 49.2555 57.9301 49.9894 57.9301 50.8973C57.9301 51.8053 57.2499 52.5392 56.4084 52.5392H50.3215C49.48 52.5392 48.7998 51.8053 48.7998 50.8973ZM35.1044 14.7766H38.1478V18.0603H35.1044V14.7766Z" fill="#1C3661"/>
</svg>
