<svg width="52" height="52" viewBox="0 0 52 52" fill="none" xmlns="http://www.w3.org/2000/svg">
<circle cx="26" cy="26" r="24.5" fill="#1C3661" stroke="#D3BB8C" stroke-width="3"/>
<g clip-path="url(#clip0)">
<path d="M39.0374 21.1703H38.7701L36.2643 14.4238C36.0449 13.8331 35.4742 13.4363 34.8441 13.4363H17.1559C16.5258 13.4363 15.9551 13.8331 15.7356 14.4238L13.2299 21.1703H12.9626C12.4318 21.1703 12 21.6022 12 22.133V22.9063C12 23.4371 12.4318 23.869 12.9626 23.869H13.1049V32.859C13.1049 33.0856 13.2885 33.2692 13.5151 33.2692C13.7416 33.2692 13.9252 33.0856 13.9252 32.859V23.869H20.3652C20.7256 23.869 21.0645 23.7286 21.3194 23.4737L26 18.793L30.6808 23.4737C30.9356 23.7286 31.2744 23.8689 31.6348 23.8689H38.0748V24.9563C38.0748 25.1828 38.2584 25.3665 38.485 25.3665C38.7116 25.3665 38.8951 25.1828 38.8951 24.9563V23.8689H39.0374C39.5682 23.8689 40.0001 23.4371 40.0001 22.9063V22.1329C40 21.6022 39.5682 21.1703 39.0374 21.1703V21.1703ZM16.5046 14.7094C16.6052 14.4385 16.867 14.2566 17.1559 14.2566H34.8441C35.133 14.2566 35.3947 14.4386 35.4953 14.7094L37.8951 21.1703H32.1937L26.9541 15.9307C26.6992 15.6759 26.3604 15.5355 26 15.5355C25.6396 15.5355 25.3008 15.6758 25.0459 15.9307L19.8063 21.1703H14.1049L16.5046 14.7094ZM39.1797 22.9063C39.1797 22.9848 39.1159 23.0486 39.0374 23.0486H31.6348C31.4935 23.0486 31.3606 22.9936 31.2608 22.8937L26.29 17.923C26.2131 17.846 26.1088 17.8028 25.9999 17.8028C25.8911 17.8028 25.7869 17.846 25.7099 17.923L20.7392 22.8937C20.6393 22.9936 20.5064 23.0486 20.3651 23.0486H12.9626C12.8841 23.0486 12.8203 22.9848 12.8203 22.9063V22.133C12.8203 22.0545 12.8841 21.9907 12.9626 21.9907H19.9762C20.0849 21.9907 20.1892 21.9475 20.2662 21.8705L25.626 16.5108C25.7259 16.4108 25.8587 16.3558 26.0001 16.3558C26.1414 16.3558 26.2742 16.4108 26.3741 16.5108L31.7339 21.8705C31.8108 21.9475 31.9151 21.9907 32.0239 21.9907H39.0375C39.116 21.9907 39.1798 22.0545 39.1798 22.133V22.9063H39.1797Z" fill="#D3BB8C"/>
<path d="M36.6619 35.2491C36.8885 35.2491 37.0721 35.0654 37.0721 34.8389V27.5468C37.0721 27.3203 36.8885 27.1367 36.6619 27.1367H31.1376C30.911 27.1367 30.7274 27.3203 30.7274 27.5468V34.8389C30.7274 35.0654 30.911 35.2491 31.1376 35.2491H36.6619ZM36.2518 32.661H34.3099V30.7191H36.2518V32.661ZM33.4896 32.661H31.5477V30.7191H33.4896V32.661ZM36.2518 34.4287H31.5477V33.4813H36.2518V34.4287ZM36.2518 29.8988H34.3099V27.9569H36.2518V29.8988ZM33.4896 27.957V29.8988H31.5477V27.957H33.4896Z" fill="#D3BB8C"/>
<path d="M20.8624 35.2491C21.0889 35.2491 21.2725 35.0654 21.2725 34.8389V27.5468C21.2725 27.3203 21.0889 27.1367 20.8624 27.1367H15.338C15.1114 27.1367 14.9279 27.3203 14.9279 27.5468V34.8389C14.9279 35.0654 15.1114 35.2491 15.338 35.2491H20.8624ZM20.4522 32.661H18.5104V30.7191H20.4522V32.661ZM17.6901 32.661H15.7482V30.7191H17.6901V32.661ZM20.4522 34.4287H15.7482V33.4813H20.4522V34.4287ZM20.4522 29.8988H18.5104V27.9569H20.4522V29.8988ZM17.6901 27.957V29.8988H15.7482V27.957H17.6901Z" fill="#D3BB8C"/>
<path d="M27.3259 28.9044H24.6742C24.4476 28.9044 24.264 29.0881 24.264 29.3146V31.0823C24.264 31.3089 24.4476 31.4925 24.6742 31.4925H27.3259C27.5525 31.4925 27.736 31.3089 27.736 31.0823V29.3146C27.736 29.0881 27.5525 28.9044 27.3259 28.9044ZM26.9157 30.6722H25.0844V29.7247H26.9157V30.6722Z" fill="#D3BB8C"/>
<path d="M28.1779 23.735C28.1779 22.5341 27.2009 21.5571 25.9999 21.5571C24.799 21.5571 23.822 22.5341 23.822 23.735C23.822 24.9359 24.799 25.913 25.9999 25.913C27.2009 25.913 28.1779 24.9359 28.1779 23.735V23.735ZM24.6423 23.735C24.6423 22.9864 25.2514 22.3774 25.9999 22.3774C26.7485 22.3774 27.3576 22.9864 27.3576 23.735C27.3576 24.4836 26.7485 25.0927 25.9999 25.0927C25.2514 25.0927 24.6423 24.4836 24.6423 23.735V23.735Z" fill="#D3BB8C"/>
<path d="M39.5898 35.865H38.8951V26.8749C38.8951 26.6484 38.7116 26.4648 38.485 26.4648C38.2584 26.4648 38.0748 26.6484 38.0748 26.8749V35.865H29.5038V27.5468C29.5038 27.3203 29.3202 27.1366 29.0936 27.1366H22.9064C22.6798 27.1366 22.4962 27.3203 22.4962 27.5468V35.865H13.9252V34.7776C13.9252 34.5511 13.7416 34.3675 13.515 34.3675C13.2884 34.3675 13.1049 34.5511 13.1049 34.7776V35.865H12.4102C12.1836 35.865 12 36.0487 12 36.2752V38.1535C12 38.38 12.1836 38.5636 12.4102 38.5636H39.5898C39.8164 38.5636 40 38.38 40 38.1535V36.2752C40 36.0487 39.8164 35.865 39.5898 35.865ZM23.3165 32.8736H23.9008C24.1274 32.8736 24.311 32.6899 24.311 32.4634C24.311 32.2369 24.1274 32.0532 23.9008 32.0532H23.3165V27.9569H28.6835V35.865H23.3165V32.8736ZM39.1797 37.7433H12.8203V36.6853H39.1797V37.7433Z" fill="#D3BB8C"/>
</g>
<defs>
<clipPath id="clip0">
<rect width="28" height="28" fill="white" transform="translate(12 12)"/>
</clipPath>
</defs>
</svg>
