<svg width="522" height="487" viewBox="0 0 522 487" fill="none" xmlns="http://www.w3.org/2000/svg">
<path d="M405.609 214.16C416.192 206.48 424.981 196.593 431.366 185.181C437.752 173.77 441.583 161.108 442.593 148.071C443.603 135.033 441.769 121.932 437.217 109.673C432.666 97.4145 425.505 86.291 416.231 77.0721C408.151 69.0198 398.539 62.6688 387.963 58.3944C377.387 54.1201 366.061 52.0091 354.655 52.1862C307.296 52.8613 268.84 92.8474 268.931 141.325C268.923 155.553 272.299 169.58 278.781 182.247C285.262 194.914 294.664 205.857 306.209 214.175C306.8 214.621 307.276 215.201 307.599 215.867C307.922 216.534 308.081 217.267 308.065 218.008V229.617C303.745 232.108 300.23 235.786 297.937 240.213C295.643 244.641 294.668 249.634 295.125 254.599C295.583 259.565 297.455 264.295 300.519 268.229C303.583 272.163 307.711 275.136 312.413 276.795V286.982C312.421 293.899 315.172 300.53 320.063 305.422C324.954 310.313 331.586 313.064 338.503 313.071H373.288C380.205 313.063 386.837 310.312 391.727 305.421C396.618 300.53 399.37 293.899 399.378 286.982V276.79C404.08 275.131 408.208 272.158 411.272 268.224C414.336 264.29 416.208 259.559 416.666 254.594C417.124 249.628 416.148 244.636 413.854 240.208C411.561 235.78 408.046 232.103 403.726 229.612V218.006C403.712 217.262 403.875 216.525 404.203 215.856C404.53 215.187 405.012 214.606 405.609 214.16V214.16ZM286.329 141.293C286.255 102.291 317.019 70.1193 354.909 69.579C355.235 69.579 355.569 69.5714 355.901 69.5714C373.943 69.571 391.249 76.7249 404.025 89.4645C411.492 96.9025 417.256 105.871 420.922 115.753C424.587 125.634 426.066 136.193 425.256 146.701C424.446 157.209 421.366 167.416 416.23 176.619C411.094 185.822 404.023 193.801 395.505 200.007C392.656 202.064 390.339 204.77 388.745 207.901C387.151 211.032 386.325 214.497 386.337 218.011V226.107H325.462V218.008C325.477 214.498 324.654 211.035 323.062 207.906C321.471 204.778 319.157 202.073 316.312 200.018C307.016 193.308 299.449 184.484 294.235 174.273C289.022 164.062 286.312 152.758 286.329 141.293V141.293ZM373.293 295.679H338.507C336.201 295.676 333.991 294.759 332.361 293.129C330.73 291.498 329.813 289.288 329.811 286.982V278.286H381.989V286.982C381.987 289.288 381.07 291.498 379.439 293.129C377.809 294.759 375.598 295.676 373.293 295.679V295.679ZM390.686 260.893H321.114C318.808 260.893 316.596 259.977 314.965 258.346C313.334 256.715 312.418 254.503 312.418 252.196C312.418 249.89 313.334 247.678 314.965 246.047C316.596 244.416 318.808 243.5 321.114 243.5H390.686C392.992 243.5 395.204 244.416 396.835 246.047C398.466 247.678 399.382 249.89 399.382 252.196C399.382 254.503 398.466 256.715 396.835 258.346C395.204 259.977 392.992 260.893 390.686 260.893Z" fill="#1C3661"/>
<path d="M369.999 107.122C375.467 109.416 380.346 112.918 384.269 117.366C388.192 121.813 391.058 127.09 392.652 132.802C393.303 134.991 394.79 136.836 396.79 137.939C398.791 139.041 401.145 139.312 403.343 138.693C405.542 138.075 407.409 136.616 408.541 134.632C409.673 132.648 409.979 130.298 409.393 128.091C407.073 119.837 402.917 112.216 397.235 105.796C391.553 99.3769 384.492 94.3262 376.581 91.0223C374.446 90.149 372.052 90.1596 369.925 91.0516C367.798 91.9436 366.113 93.644 365.239 95.7787C364.366 97.9135 364.376 100.308 365.268 102.435C366.16 104.562 367.861 106.247 369.996 107.12L369.999 107.122Z" fill="#1C3661"/>
<path d="M364.596 26.0893V8.69643C364.596 6.38999 363.68 4.17802 362.049 2.54713C360.418 0.91623 358.206 0 355.9 0C353.593 0 351.381 0.91623 349.75 2.54713C348.119 4.17802 347.203 6.38999 347.203 8.69643V26.0893C347.203 28.3957 348.119 30.6077 349.75 32.2386C351.381 33.8695 353.593 34.7857 355.9 34.7857C358.206 34.7857 360.418 33.8695 362.049 32.2386C363.68 30.6077 364.596 28.3957 364.596 26.0893V26.0893Z" fill="#1C3661"/>
<path d="M306.383 45.314C307.832 45.3112 309.257 44.947 310.529 44.2543C311.801 43.5616 312.88 42.5623 313.668 41.3471C314.456 40.1318 314.928 38.7391 315.042 37.2951C315.156 35.8512 314.907 34.4017 314.319 33.0781L307.244 17.1886C306.306 15.0816 304.569 13.4335 302.416 12.6069C300.263 11.7803 297.869 11.843 295.762 12.7812C293.655 13.7193 292.007 15.4561 291.181 17.6094C290.354 19.7627 290.417 22.1561 291.355 24.2632L298.429 40.1526C299.114 41.6904 300.229 42.9965 301.641 43.9127C303.053 44.8288 304.7 45.3156 306.383 45.314Z" fill="#1C3661"/>
<path d="M265.418 75.0697C267.177 75.0703 268.895 74.5374 270.345 73.5414C271.795 72.5453 272.909 71.1329 273.54 69.4906C274.17 67.8483 274.288 66.0534 273.877 64.3429C273.467 62.6323 272.547 61.0865 271.239 59.9096L258.314 48.2716C256.6 46.7283 254.342 45.9294 252.039 46.0505C249.735 46.1716 247.574 47.2028 246.031 48.9173C244.487 50.6319 243.688 52.8893 243.809 55.1929C243.93 57.4966 244.962 59.6578 246.676 61.2011L259.601 72.8325C261.196 74.2739 263.269 75.0713 265.418 75.0697V75.0697Z" fill="#1C3661"/>
<path d="M248.378 112.903C249.091 110.709 248.903 108.322 247.855 106.267C246.808 104.212 244.987 102.658 242.794 101.945L226.252 96.5717C225.164 96.2108 224.015 96.0687 222.872 96.1534C221.728 96.2382 220.613 96.5483 219.59 97.0657C218.567 97.5832 217.656 98.2978 216.91 99.1686C216.164 100.039 215.598 101.049 215.244 102.139C214.89 103.23 214.754 104.38 214.846 105.522C214.938 106.665 215.255 107.779 215.779 108.799C216.302 109.818 217.023 110.725 217.898 111.465C218.773 112.206 219.786 112.766 220.879 113.113L237.421 118.489C238.507 118.843 239.652 118.98 240.791 118.891C241.93 118.802 243.04 118.489 244.058 117.97C245.076 117.451 245.981 116.737 246.723 115.868C247.464 114.999 248.027 113.992 248.378 112.905V112.903Z" fill="#1C3661"/>
<path d="M233.906 151.917L216.609 153.735C215.467 153.847 214.359 154.184 213.348 154.726C212.337 155.268 211.443 156.005 210.718 156.894C209.993 157.782 209.451 158.806 209.123 159.905C208.795 161.005 208.688 162.158 208.808 163.299C208.928 164.44 209.272 165.546 209.821 166.553C210.37 167.56 211.113 168.449 212.007 169.168C212.902 169.887 213.929 170.421 215.031 170.741C216.132 171.061 217.286 171.16 218.426 171.032L235.725 169.214C238.008 168.96 240.098 167.813 241.538 166.023C242.978 164.233 243.652 161.946 243.412 159.661C243.172 157.377 242.037 155.28 240.256 153.829C238.475 152.378 236.192 151.69 233.906 151.917V151.917Z" fill="#1C3661"/>
<path d="M476.073 169.214L493.37 171.033C495.658 171.262 497.943 170.576 499.726 169.125C501.51 167.674 502.646 165.576 502.887 163.289C503.127 161.003 502.453 158.714 501.01 156.924C499.568 155.133 497.475 153.987 495.19 153.735L477.891 151.917C476.752 151.79 475.599 151.89 474.498 152.21C473.397 152.531 472.371 153.066 471.478 153.785C470.584 154.504 469.842 155.392 469.294 156.398C468.745 157.405 468.401 158.51 468.281 159.65C468.161 160.791 468.268 161.943 468.595 163.042C468.922 164.141 469.464 165.164 470.188 166.053C470.912 166.942 471.805 167.678 472.815 168.221C473.825 168.763 474.932 169.101 476.073 169.214V169.214Z" fill="#1C3661"/>
<path d="M471.687 118.915C472.601 118.915 473.508 118.77 474.377 118.487L490.919 113.113C492.005 112.76 493.011 112.197 493.879 111.455C494.748 110.714 495.461 109.808 495.98 108.791C496.498 107.773 496.811 106.664 496.901 105.525C496.991 104.386 496.855 103.241 496.502 102.155C496.149 101.069 495.586 100.063 494.844 99.1948C494.103 98.3264 493.197 97.6125 492.18 97.094C491.162 96.5755 490.052 96.2626 488.914 96.1729C487.775 96.0833 486.63 96.2188 485.544 96.5717L469.004 101.945C467.032 102.583 465.354 103.904 464.27 105.67C463.187 107.436 462.769 109.531 463.093 111.577C463.416 113.624 464.46 115.487 466.036 116.832C467.611 118.178 469.616 118.916 471.687 118.915V118.915Z" fill="#1C3661"/>
<path d="M452.197 72.8326L465.121 61.2011C466.835 59.6577 467.865 57.4966 467.986 55.1931C468.107 52.8897 467.308 50.6326 465.764 48.9185C464.221 47.2044 462.06 46.1736 459.756 46.0529C457.453 45.9323 455.196 46.7315 453.481 48.275L440.558 59.9097C438.875 61.4613 437.872 63.6136 437.766 65.8998C437.66 68.186 438.46 70.4219 439.991 72.1225C441.523 73.8231 443.663 74.8513 445.948 74.9843C448.233 75.1172 450.478 74.3441 452.197 72.8326Z" fill="#1C3661"/>
<path d="M405.414 45.314C407.096 45.3148 408.743 44.8276 410.154 43.9115C411.565 42.9954 412.68 41.6897 413.364 40.1526L420.438 24.2632C421.376 22.1561 421.439 19.7627 420.612 17.6094C419.786 15.4561 418.138 13.7193 416.031 12.7812C413.924 11.843 411.53 11.7803 409.377 12.6069C407.223 13.4335 405.487 15.0816 404.549 17.1886L397.474 33.0781C396.886 34.4017 396.637 35.8512 396.751 37.2951C396.865 38.7391 397.337 40.1318 398.125 41.3471C398.913 42.5623 399.992 43.5616 401.264 44.2543C402.536 44.947 403.961 45.3112 405.41 45.314H405.414Z" fill="#1C3661"/>
<path d="M495.804 417.429H382.75V408.732C382.75 395.676 365.757 386.165 360.55 383.561C360.103 383.338 359.638 383.153 359.16 383.009L274.044 357.473C268.657 352.715 249.404 336.007 225.865 319.059C188.284 292.003 159.143 278.286 139.25 278.286H69.6786V269.589C69.6786 267.283 68.7624 265.071 67.1315 263.44C65.5006 261.809 63.2886 260.893 60.9822 260.893H8.80361C6.49717 260.893 4.2852 261.809 2.6543 263.44C1.02341 265.071 0.107178 267.283 0.107178 269.589V460.911C0.107178 463.217 1.02341 465.429 2.6543 467.06C4.2852 468.691 6.49717 469.607 8.80361 469.607H60.9822C63.2886 469.607 65.5006 468.691 67.1315 467.06C68.7624 465.429 69.6786 463.217 69.6786 460.911V452.214H95.3624C100.788 452.936 145.168 461.698 184.398 469.443C262.864 484.935 273.949 487 276.396 487H495.804C502.72 486.992 509.352 484.241 514.243 479.35C519.134 474.459 521.885 467.828 521.893 460.911V443.518C521.885 436.601 519.134 429.97 514.243 425.079C509.352 420.188 502.72 417.437 495.804 417.429V417.429ZM52.2857 452.214H17.5V278.286H52.2857V452.214ZM504.5 460.911C504.497 463.216 503.58 465.427 501.95 467.057C500.32 468.687 498.109 469.605 495.804 469.607H276.801C271.376 468.885 226.996 460.124 187.772 452.378C109.3 436.887 98.2148 434.821 95.7679 434.821H69.6786V295.679H139.25C172.156 295.679 240.371 350.565 263.88 371.715C264.834 372.573 265.967 373.21 267.197 373.58L353.401 399.442C358.815 402.275 364.524 406.826 365.352 408.997V426.125C365.349 428.307 364.527 430.408 363.049 432.014C361.572 433.619 359.545 434.611 357.371 434.793L272.786 417.874L213.136 383.789C212.144 383.22 211.05 382.853 209.917 382.707C208.783 382.562 207.631 382.642 206.528 382.942C205.426 383.242 204.393 383.756 203.489 384.456C202.585 385.155 201.827 386.026 201.26 387.019C200.693 388.011 200.327 389.106 200.184 390.24C200.04 391.374 200.121 392.525 200.423 393.627C200.724 394.73 201.24 395.762 201.941 396.665C202.642 397.568 203.514 398.324 204.507 398.89L265.382 433.676C266.193 434.14 267.074 434.47 267.991 434.654L354.955 452.047C355.517 452.158 356.088 452.215 356.661 452.214C362.055 452.208 367.314 450.533 371.718 447.419C376.123 444.305 379.455 439.905 381.26 434.821H495.804C498.109 434.824 500.32 435.741 501.95 437.371C503.58 439.002 504.497 441.212 504.5 443.518V460.911Z" fill="#1C3661"/>
</svg>
