<svg width="511" height="511" viewBox="0 0 511 511" fill="none" xmlns="http://www.w3.org/2000/svg">
<path d="M464.776 0H46.2241C20.6955 0 0 20.6955 0 46.2241V464.775C0 490.304 20.6955 511 46.2241 511H464.775C490.304 511 511 490.304 511 464.775V46.2241C511 20.6955 490.305 0 464.776 0ZM158.125 441.231C158.125 448.661 152.103 454.683 144.673 454.683H87.4118C79.9822 454.683 73.9599 448.661 73.9599 441.231V201.194C73.9599 193.764 79.9822 187.742 87.4118 187.742H144.673C152.103 187.742 158.125 193.764 158.125 201.194V441.231ZM116.042 165.115C85.9992 165.115 61.6437 140.759 61.6437 110.716C61.6437 80.6725 85.9992 56.317 116.042 56.317C146.086 56.317 170.441 80.6725 170.441 110.716C170.441 140.759 146.087 165.115 116.042 165.115ZM457.372 442.315C457.372 449.145 451.834 454.683 445.003 454.683H383.558C376.727 454.683 371.189 449.145 371.189 442.315V329.723C371.189 312.927 376.116 256.122 327.296 256.122C289.427 256.122 281.746 295.004 280.203 312.452V442.315C280.203 449.145 274.666 454.683 267.835 454.683H208.406C201.576 454.683 196.038 449.145 196.038 442.315V200.11C196.038 193.28 201.576 187.742 208.406 187.742H267.835C274.665 187.742 280.203 193.28 280.203 200.11V221.052C294.245 199.979 315.113 183.714 359.545 183.714C457.935 183.714 457.372 275.635 457.372 326.141V442.315Z" fill="white"/>
</svg>
