<svg width="52" height="52" viewBox="0 0 52 52" fill="none" xmlns="http://www.w3.org/2000/svg">
<circle cx="26" cy="26" r="24.5" fill="#D3BB8C" stroke="#1C3661" stroke-width="3"/>
<g clip-path="url(#clip0)">
<path d="M27.9611 26.578C27.4139 26.0458 26.691 25.7636 25.9275 25.7853C24.4693 25.8258 23.2741 26.9982 23.2063 28.4545C23.1658 29.3246 23.5363 30.171 24.1999 30.731V32.707C24.1999 33.7032 25.0104 34.5137 26.0066 34.5137C27.0027 34.5137 27.8132 33.7032 27.8132 32.707V30.7311C28.4475 30.1965 28.81 29.4187 28.81 28.5877C28.81 27.8242 28.5085 27.1105 27.9611 26.578ZM27.0625 29.8969C26.8269 30.087 26.6918 30.3713 26.6918 30.6767V32.707C26.6918 33.0849 26.3844 33.3924 26.0066 33.3924C25.6287 33.3924 25.3213 33.0849 25.3213 32.707V30.6767C25.3213 30.3713 25.1863 30.0871 24.9509 29.897C24.9509 29.897 24.9509 29.897 24.9509 29.897C24.5288 29.5561 24.3011 29.0494 24.3264 28.5066C24.3671 27.6335 25.084 26.9305 25.9585 26.9063C25.9745 26.9059 25.9906 26.9056 26.0066 26.9056C26.4477 26.9056 26.8625 27.0737 27.1793 27.3818C27.5077 27.7014 27.6886 28.1296 27.6886 28.5877C27.6886 29.0982 27.4603 29.5754 27.0625 29.8969Z" fill="#1C3661"/>
<path d="M33.2954 23.0153V18.9354C33.2954 14.9163 30.0256 11.6466 26.0066 11.6466C21.9875 11.6466 18.7177 14.9163 18.7177 18.9354V23.0081C17.3507 24.4052 16.4021 26.176 16.0098 28.0916C15.9477 28.3949 16.1433 28.6912 16.4466 28.7534C16.7502 28.8156 17.0463 28.6199 17.1084 28.3165C17.9687 24.1153 21.711 21.066 26.0066 21.066C31.0149 21.066 35.0896 25.1406 35.0896 30.149C35.0896 35.1574 31.0149 39.232 26.0066 39.232C21.7103 39.232 17.9679 36.1821 17.1081 31.9801C17.0461 31.6768 16.7501 31.4811 16.4464 31.5433C16.143 31.6053 15.9475 31.9016 16.0095 32.205C16.4739 34.4742 17.7189 36.5404 19.5154 38.023C21.3363 39.5258 23.6416 40.3534 26.0066 40.3534C31.6333 40.3534 36.2109 35.7757 36.2109 30.149C36.2109 27.375 35.0978 24.8565 33.2954 23.0153ZM29.4828 20.5547C28.3973 20.1602 27.2267 19.9447 26.0066 19.9447C24.8145 19.9447 23.6377 20.1552 22.5303 20.5562V18.9354C22.5303 17.0186 24.0898 15.4592 26.0066 15.4592C27.9234 15.4592 29.4828 17.0186 29.4828 18.9354V20.5547ZM32.174 22.0251C31.6834 21.6518 31.1584 21.3217 30.6041 21.0408V18.9354C30.6041 16.4003 28.5417 14.3379 26.0066 14.3379C23.4714 14.3379 21.409 16.4003 21.409 18.9354V21.0399C20.859 21.3171 20.3331 21.6444 19.8391 22.0192V18.9354C19.8391 15.5347 22.6058 12.768 26.0066 12.768C29.4073 12.768 32.174 15.5347 32.174 18.9354V22.0251Z" fill="#1C3661"/>
<path d="M33.5796 29.7527C33.4754 29.6484 33.3307 29.5884 33.1832 29.5884C33.0358 29.5884 32.8911 29.6483 32.7868 29.7527C32.6826 29.8569 32.6226 30.0016 32.6226 30.1491C32.6226 30.2965 32.6826 30.4412 32.7868 30.5454C32.8911 30.6497 33.0358 30.7097 33.1832 30.7097C33.3307 30.7097 33.4754 30.6497 33.5796 30.5454C33.6839 30.4412 33.7439 30.2965 33.7439 30.1491C33.7439 30.0016 33.6839 29.8569 33.5796 29.7527Z" fill="#1C3661"/>
<path d="M33.5372 28.3655C33.1437 26.698 32.1866 25.1861 30.8423 24.1086C29.4771 23.0143 27.7597 22.4116 26.0065 22.4116C25.6969 22.4116 25.4459 22.6627 25.4459 22.9723C25.4459 23.2819 25.6969 23.533 26.0065 23.533C29.0907 23.533 31.7386 25.6261 32.4458 28.6231C32.5067 28.8812 32.7369 29.0551 32.9911 29.0551C33.0337 29.0551 33.077 29.0502 33.1203 29.04C33.4217 28.9688 33.6083 28.6669 33.5372 28.3655Z" fill="#1C3661"/>
<path d="M16.376 29.5884H16.3497C16.0401 29.5884 15.7891 29.8395 15.7891 30.1491C15.7891 30.4587 16.0401 30.7097 16.3497 30.7097H16.376C16.6857 30.7097 16.9367 30.4587 16.9367 30.1491C16.9367 29.8395 16.6857 29.5884 16.376 29.5884Z" fill="#1C3661"/>
</g>
<defs>
<clipPath id="clip0">
<rect width="28.7068" height="28.7068" fill="white" transform="translate(11.6466 11.6466)"/>
</clipPath>
</defs>
</svg>
