<svg width="526" height="268" viewBox="0 0 526 268" fill="none" xmlns="http://www.w3.org/2000/svg">
<path d="M516.82 267.102C517.017 267.063 517.211 267.01 517.405 266.959C517.571 266.917 517.738 266.882 517.901 266.832C518.091 266.774 518.277 266.702 518.462 266.635C518.627 266.576 518.792 266.523 518.955 266.454C519.13 266.381 519.299 266.296 519.469 266.216C519.635 266.137 519.804 266.064 519.967 265.975C520.129 265.889 520.283 265.79 520.441 265.695C520.604 265.598 520.768 265.507 520.926 265.4C521.095 265.288 521.252 265.163 521.414 265.041C521.551 264.94 521.691 264.844 521.825 264.734C522.072 264.532 522.306 264.316 522.534 264.094C522.575 264.054 522.619 264.021 522.66 263.98C522.703 263.937 522.739 263.89 522.78 263.846C522.999 263.621 523.212 263.39 523.413 263.146C523.53 263.003 523.632 262.854 523.742 262.707C523.854 262.555 523.973 262.407 524.078 262.249C524.19 262.08 524.289 261.905 524.393 261.732C524.479 261.586 524.572 261.443 524.653 261.292C524.747 261.117 524.826 260.936 524.91 260.758C524.984 260.6 525.063 260.444 525.132 260.281C525.205 260.106 525.263 259.928 525.326 259.75C525.389 259.577 525.456 259.405 525.509 259.228C525.564 259.049 525.603 258.866 525.649 258.684C525.693 258.504 525.745 258.328 525.78 258.147C525.822 257.932 525.848 257.716 525.879 257.501C525.9 257.348 525.929 257.198 525.944 257.044C525.982 256.666 526.002 256.287 526.002 255.907V12.0843C526.002 5.78299 520.896 0.677124 514.594 0.677124H155.267C155.167 0.677124 155.07 0.689283 154.969 0.692325C154.752 0.698409 154.536 0.70754 154.32 0.725791C154.148 0.73948 153.978 0.759256 153.807 0.782071C153.613 0.806406 153.419 0.835302 153.226 0.870284C153.045 0.902225 152.866 0.940246 152.688 0.981312C152.507 1.0239 152.326 1.06953 152.146 1.12124C151.968 1.17144 151.794 1.22618 151.62 1.28398C151.442 1.34482 151.264 1.40871 151.089 1.47867C150.924 1.54407 150.761 1.61099 150.6 1.68399C150.42 1.7646 150.242 1.85131 150.066 1.94104C149.915 2.01861 149.768 2.0977 149.622 2.18135C149.445 2.28174 149.272 2.3882 149.1 2.49771C148.958 2.58897 148.82 2.68327 148.683 2.77909C148.522 2.89316 148.362 3.01179 148.206 3.13651C148.063 3.25059 147.923 3.3677 147.784 3.48786C147.647 3.60802 147.512 3.72817 147.38 3.85593C147.229 4.00042 147.085 4.15099 146.942 4.30309C146.87 4.37914 146.794 4.44606 146.726 4.52363C146.685 4.56926 146.653 4.61946 146.613 4.66509C146.47 4.83087 146.336 5.00426 146.202 5.17917C146.105 5.30693 146.005 5.43469 145.913 5.56549C145.795 5.73584 145.685 5.91075 145.576 6.08718C145.486 6.23167 145.393 6.37464 145.311 6.52217C145.215 6.69252 145.132 6.86743 145.045 7.04234C144.966 7.20204 144.884 7.36175 144.812 7.52449C144.738 7.69636 144.672 7.87431 144.607 8.04922C144.542 8.22109 144.475 8.39143 144.418 8.56482C144.362 8.73973 144.316 8.91768 144.268 9.09564C144.219 9.27815 144.167 9.45915 144.126 9.64318C144.088 9.81505 144.062 9.98997 144.032 10.1634C143.999 10.3611 143.965 10.5588 143.941 10.7565C143.921 10.9208 143.912 11.0881 143.9 11.2554C143.885 11.4683 143.871 11.6813 143.868 11.8957C143.866 11.9581 143.859 12.0189 143.859 12.0813V82.4288C143.859 88.7301 148.965 93.836 155.266 93.836C161.567 93.836 166.673 88.7301 166.673 82.4288V37.4159L268.092 127.209C267.563 127.582 267.054 127.994 266.579 128.467L166.672 228.374V153.409C166.672 147.108 161.566 142.002 155.264 142.002C148.963 142.002 143.857 147.108 143.857 153.409V167.347H84.9199C78.6186 167.347 73.5127 172.453 73.5127 178.754C73.5127 185.056 78.6186 190.161 84.9199 190.161H143.857V255.914C143.857 262.215 148.963 267.321 155.264 267.321H514.591C514.967 267.321 515.343 267.302 515.717 267.265C515.892 267.248 516.061 267.215 516.233 267.191C516.43 267.163 516.625 267.14 516.82 267.102ZM503.186 228.376L403.277 128.468C403.213 128.404 403.145 128.351 403.079 128.29L478.189 64.5666C482.992 60.4904 483.582 53.2932 479.506 48.4885C475.433 43.6869 468.236 43.0937 463.428 47.1714L335.088 156.057L185.358 23.4931H503.186V228.376V228.376ZM282.713 144.603C283.527 143.789 284.187 142.882 284.703 141.918L327.367 179.691C329.524 181.6 332.225 182.558 334.929 182.558C337.555 182.558 340.178 181.656 342.311 179.849L385.79 142.96C386.186 143.538 386.631 144.09 387.144 144.603L487.051 244.51H182.806L282.713 144.603Z" fill="#1C3661"/>
<path d="M11.4072 130.591H204.063C210.364 130.591 215.47 125.486 215.47 119.184C215.47 112.883 210.364 107.777 204.063 107.777H11.4072C5.10587 107.777 0 112.883 0 119.184C0 125.486 5.10587 130.591 11.4072 130.591Z" fill="#1C3661"/>
<path d="M31.3699 67.7287H117.874C124.176 67.7287 129.282 62.6228 129.282 56.3215C129.282 50.0202 124.176 44.9143 117.874 44.9143H31.3699C25.0685 44.9143 19.9626 50.0202 19.9626 56.3215C19.9626 62.6228 25.0685 67.7287 31.3699 67.7287Z" fill="#1C3661"/>
<path d="M95.0601 215.513H11.4072C5.10587 215.513 0 220.619 0 226.92C0 233.221 5.10587 238.327 11.4072 238.327H95.0601C101.361 238.327 106.467 233.221 106.467 226.92C106.467 220.619 101.361 215.513 95.0601 215.513Z" fill="#1C3661"/>
</svg>
