<svg width="52" height="52" viewBox="0 0 52 52" fill="none" xmlns="http://www.w3.org/2000/svg">
<circle cx="26" cy="26" r="24.5" fill="#D3BB8C" stroke="#1C3661" stroke-width="3"/>
<path d="M30.5816 32.1105C29.8769 32.1105 29.2376 31.7516 28.8715 31.1505C28.734 30.9248 28.4396 30.8533 28.214 30.9908C27.9884 31.1282 27.9168 31.4226 28.0543 31.6483C28.309 32.0663 28.6537 32.4039 29.055 32.6454L28.5591 34.8957L27.3637 33.5192C27.5807 33.2697 27.5283 32.9782 27.3414 32.8156C27.1421 32.6423 26.8398 32.6633 26.6664 32.8627L25.8252 33.8301L23.7061 31.4756C23.8864 31.1293 23.9958 30.7492 24.027 30.3531C28.1281 31.5603 32.2306 28.4651 32.2306 24.2133V20.2586C32.2306 19.9944 32.0164 19.7802 31.7521 19.7802C31.4879 19.7802 31.2737 19.9944 31.2737 20.2586V24.2133C31.2737 27.2142 28.8323 29.6556 25.8314 29.6556C22.8304 29.6556 20.3891 27.2142 20.3891 24.2133V20.1529C21.5554 20.0867 22.5476 19.3544 22.9011 18.0272C24.8933 19.3029 27.1263 20.1295 29.4697 20.4575C29.7324 20.4941 29.9734 20.311 30.0099 20.05C30.0465 19.7884 29.8641 19.5465 29.6024 19.5099C27.2162 19.1758 24.8876 18.2828 22.8185 16.818C22.5022 16.594 22.0617 16.8219 22.0636 17.2116C22.0637 17.2235 22.0592 18.4101 21.1591 18.9516C20.5899 19.294 20.0143 19.1834 19.9152 19.1824C19.6707 19.18 19.4634 19.3635 19.4356 19.6056C19.4303 19.6518 19.4322 19.4943 19.4322 23.4341C19.1126 23.2683 18.8939 22.9384 18.8939 22.5588V16.7301C18.8939 16.1035 19.4036 15.5938 20.0302 15.5938C20.2258 15.5938 20.4018 15.4747 20.4745 15.293C21.128 13.6592 22.6873 12.6035 24.447 12.6035H28.5501C30.9094 12.6035 32.8286 14.5228 32.8286 16.8821V22.5588C32.8286 22.823 33.0429 23.0372 33.3071 23.0372C33.5713 23.0372 33.7855 22.823 33.7855 22.5588V16.8821C33.7855 13.9952 31.437 11.6466 28.5501 11.6466H24.447C22.3945 11.6466 20.5646 12.8206 19.7053 14.6621C18.7049 14.8187 17.937 15.6864 17.937 16.7301V22.5588C17.937 23.4741 18.5774 24.2434 19.437 24.4499C19.5263 26.8935 20.992 28.9917 23.0803 29.9902V30.1164C23.0803 30.6495 22.8724 31.1503 22.495 31.5267C21.8256 32.1942 20.982 32.1105 21.0811 32.1105C18.3518 32.1105 16.1429 34.3191 16.1429 37.0487V39.8749C16.1429 40.1391 16.3571 40.3534 16.6213 40.3534C16.8855 40.3534 17.0997 40.1391 17.0997 39.8749V37.0487C17.0997 34.8481 18.8805 33.0673 21.0812 33.0673C21.2906 33.0673 21.4996 33.0451 21.7063 33.0009L22.3739 36.0307C22.4584 36.4143 22.9451 36.5376 23.2024 36.2414L24.145 35.1561L23.5625 39.8156C23.5298 40.0778 23.7158 40.3169 23.9779 40.3496C24.2406 40.3824 24.4793 40.1961 24.5121 39.9342L25.1852 34.5493C25.2156 34.5831 25.4816 34.8813 25.5157 34.9114C25.7131 35.0847 26.014 35.0671 26.1896 34.8691C26.2842 34.7608 26.0394 35.0421 26.4765 34.5395L27.1508 39.9342C27.1835 40.196 27.4222 40.3824 27.6849 40.3496C27.9471 40.3168 28.1331 40.0777 28.1003 39.8155L27.5179 35.156L28.4605 36.2414C28.7181 36.538 29.2046 36.4136 29.289 36.0306L29.9566 33.0007C30.1593 33.0438 30.3682 33.0672 30.5816 33.0672C32.7821 33.0673 34.563 34.8479 34.563 37.0487V39.8749C34.563 40.1391 34.7772 40.3534 35.0415 40.3534C35.3057 40.3534 35.5199 40.1391 35.5199 39.8749V37.0487C35.5199 34.3193 33.3112 32.1103 30.5816 32.1105ZM23.1036 34.8957L22.6077 32.6448C22.7901 32.5346 22.9612 32.4034 23.1189 32.2534L24.2789 33.5424L23.1036 34.8957Z" fill="#1C3661"/>
</svg>
