<svg width="53" height="57" viewBox="0 0 53 57" fill="none" xmlns="http://www.w3.org/2000/svg">
<path d="M20.617 18.8787C20.8482 18.8787 21.0742 18.8101 21.2664 18.6817C21.4586 18.5532 21.6084 18.3707 21.6968 18.1571C21.7853 17.9435 21.8084 17.7085 21.7633 17.4818C21.7182 17.255 21.6069 17.0468 21.4434 16.8833C21.2799 16.7199 21.0716 16.6085 20.8449 16.5635C20.6182 16.5184 20.3832 16.5415 20.1696 16.63C19.956 16.7185 19.7735 16.8683 19.645 17.0605C19.5166 17.2527 19.4481 17.4787 19.4481 17.7099C19.4485 18.0198 19.5717 18.3169 19.7909 18.536C20.01 18.7551 20.3071 18.8784 20.617 18.8787Z" fill="#1C3661"/>
<path d="M32.2512 16.541C32.0201 16.541 31.7941 16.6095 31.6019 16.738C31.4096 16.8664 31.2598 17.0489 31.1713 17.2625C31.0829 17.4761 31.0597 17.7111 31.1048 17.9378C31.1499 18.1646 31.2612 18.3728 31.4246 18.5363C31.5881 18.6998 31.7963 18.8111 32.0231 18.8562C32.2498 18.9013 32.4848 18.8782 32.6984 18.7898C32.912 18.7013 33.0945 18.5515 33.223 18.3593C33.3514 18.1671 33.42 17.9411 33.42 17.71C33.4197 17.4001 33.2965 17.103 33.0773 16.8838C32.8582 16.6647 32.5611 16.5414 32.2512 16.541Z" fill="#1C3661"/>
<path d="M26.4819 29.9363C26.5154 29.9363 26.5491 29.936 26.5826 29.9351C27.1683 29.9207 27.7442 29.7822 28.2724 29.5288C28.8005 29.2753 29.2689 28.9126 29.6465 28.4648C29.6968 28.406 29.735 28.3379 29.7588 28.2643C29.7827 28.1908 29.7917 28.1132 29.7854 28.0362C29.7791 27.9591 29.7577 27.884 29.7222 27.8153C29.6868 27.7466 29.6381 27.6855 29.579 27.6357C29.5199 27.5859 29.4515 27.5482 29.3777 27.525C29.304 27.5017 29.2264 27.4932 29.1493 27.5001C29.0723 27.507 28.9974 27.529 28.929 27.565C28.8605 27.6009 28.7998 27.6501 28.7505 27.7096C28.4798 28.0307 28.144 28.2908 27.7654 28.4725C27.3867 28.6542 26.9738 28.7534 26.554 28.7636C26.1341 28.7738 25.7168 28.6948 25.3298 28.5317C24.9428 28.3686 24.5948 28.1252 24.3088 27.8176C24.203 27.7038 24.0563 27.6367 23.901 27.631C23.7457 27.6253 23.5945 27.6816 23.4807 27.7874C23.3669 27.8932 23.2998 28.0399 23.2941 28.1952C23.2884 28.3505 23.3447 28.5017 23.4505 28.6155C23.838 29.0321 24.3071 29.3644 24.8287 29.5916C25.3502 29.8188 25.913 29.9362 26.4819 29.9363Z" fill="#1C3661"/>
<path d="M36.1571 31.7798C37.2321 30.7222 38.0878 29.4629 38.675 28.0739C39.2622 26.6849 39.5694 25.1937 39.5791 23.6857C40.4294 23.6868 41.2524 23.3855 41.901 22.8357C42.5496 22.2858 42.9816 21.5232 43.1197 20.6842L43.6727 17.3769C43.7698 16.7988 43.7237 16.2058 43.5387 15.6496C43.3537 15.0934 43.0352 14.5909 42.6113 14.1862C42.6633 13.9767 42.6895 13.7616 42.6896 13.5458V11.704C42.6883 10.7072 42.3022 9.74934 41.6118 9.03035C40.9214 8.31137 39.98 7.88677 38.984 7.84514C38.2451 5.71377 36.8611 3.86524 35.024 2.55601C33.187 1.24679 30.988 0.541784 28.7322 0.538818H24.136C21.8802 0.541786 19.6812 1.24679 17.8442 2.55602C16.0071 3.86524 14.6231 5.71377 13.8842 7.84514C12.8882 7.88677 11.9469 8.31137 11.2564 9.03035C10.566 9.74934 10.1799 10.7072 10.1787 11.704V13.5458C10.1787 13.7616 10.205 13.9767 10.257 14.1862C9.83297 14.5909 9.51455 15.0934 9.32952 15.6495C9.1445 16.2057 9.0985 16.7988 9.19554 17.3769L9.74855 20.6842C9.88668 21.5232 10.3186 22.2858 10.9673 22.8356C11.6159 23.3855 12.4389 23.6867 13.2892 23.6856C13.2988 25.1936 13.606 26.6849 14.1933 28.0738C14.7805 29.4628 15.6362 30.7222 16.7112 31.7797C7.20523 35.6353 0.482697 44.9655 0.482697 55.8385C0.482697 55.9939 0.544429 56.1429 0.654313 56.2528C0.764198 56.3627 0.913234 56.4244 1.06863 56.4244H51.7996C51.955 56.4244 52.1041 56.3627 52.2139 56.2528C52.3238 56.1429 52.3856 55.9939 52.3856 55.8385C52.3856 44.9656 45.663 35.6354 36.1571 31.7798ZM29.3708 19.3967V15.3415H38.4093V19.3967C38.4081 20.3843 38.0153 21.3311 37.317 22.0294C36.6187 22.7278 35.6719 23.1206 34.6843 23.1217H33.0957C32.1082 23.1206 31.1614 22.7278 30.463 22.0294C29.7647 21.3311 29.3719 20.3843 29.3708 19.3967ZM42.5169 17.1836L41.9639 20.4909C41.8709 21.0558 41.5803 21.5693 41.1438 21.9397C40.7074 22.3102 40.1536 22.5137 39.5811 22.5137V14.3614H40.1274C40.4793 14.3614 40.8271 14.4381 41.1464 14.5861C41.4657 14.7341 41.7489 14.95 41.9763 15.2186C42.2038 15.4872 42.3699 15.8021 42.4633 16.1415C42.5566 16.4808 42.5749 16.8365 42.5169 17.1836ZM41.5177 11.704V13.4698C41.0775 13.2849 40.6048 13.1896 40.1274 13.1895H39.5811V11.3878C39.5807 10.6055 39.4956 9.82558 39.3273 9.06162C39.9427 9.17874 40.498 9.50662 40.8977 9.98887C41.2975 10.4711 41.5167 11.0776 41.5177 11.704ZM24.136 1.71066H28.7322C31.2978 1.71356 33.7575 2.73404 35.5717 4.54821C37.3859 6.36239 38.4064 8.8221 38.4093 11.3877V14.1696H28.7848C28.6294 14.1696 28.4804 14.2314 28.3705 14.3413C28.2606 14.4511 28.1989 14.6002 28.1989 14.7556V17.6024H24.6693V14.7556C24.6693 14.6002 24.6076 14.4511 24.4977 14.3413C24.3878 14.2314 24.2388 14.1696 24.0834 14.1696H14.459V11.3877C14.4619 8.8221 15.4823 6.36239 17.2965 4.54821C19.1107 2.73404 21.5704 1.71356 24.136 1.71066ZM28.0767 18.7743V22.0651C28.0767 22.5007 27.9036 22.9185 27.5956 23.2266C27.2875 23.5346 26.8697 23.7077 26.4341 23.7077C25.9984 23.7077 25.5806 23.5346 25.2726 23.2266C24.9645 22.9185 24.7914 22.5007 24.7914 22.0651V18.7743H28.0767ZM14.4589 15.3415H23.4974V19.3967C23.4963 20.3843 23.1035 21.3311 22.4052 22.0294C21.7068 22.7277 20.76 23.1206 19.7725 23.1217H18.184C17.1964 23.1206 16.2496 22.7278 15.5512 22.0294C14.8529 21.3311 14.4601 20.3843 14.459 19.3967L14.4589 15.3415ZM13.5408 9.06148C13.3726 9.82545 13.2875 10.6054 13.2871 11.3877V13.1894H12.7408C12.2634 13.1895 11.7907 13.2848 11.3505 13.4697V11.704C11.3515 11.0775 11.5707 10.471 11.9704 9.98877C12.3702 9.5065 12.9255 9.17861 13.5409 9.06148H13.5408ZM10.9043 20.4909L10.3513 17.1836C10.2933 16.8365 10.3116 16.4808 10.4049 16.1415C10.4983 15.8021 10.6644 15.4872 10.8918 15.2186C11.1193 14.95 11.4025 14.7341 11.7218 14.5861C12.0411 14.4381 12.3888 14.3614 12.7408 14.3614H13.287V22.5137C12.7146 22.5136 12.1608 22.3102 11.7243 21.9397C11.2879 21.5692 10.9973 21.0558 10.9043 20.4909ZM14.4589 23.6052V22.5702C14.9177 23.1104 15.4885 23.5443 16.1317 23.8419C16.7749 24.1395 17.4752 24.2937 18.1839 24.2936H19.7725C20.2976 24.2937 20.8193 24.2089 21.3173 24.0425C20.3971 25.3013 19.6191 26.892 19.6191 28.6746H20.791C20.791 26.2442 22.56 24.1686 23.7897 23.0193C23.9836 23.5593 24.3383 24.0271 24.8059 24.3597C25.2736 24.6922 25.8319 24.8736 26.4057 24.8794C26.9795 24.8852 27.5414 24.7152 28.0157 24.3922C28.49 24.0693 28.8541 23.6088 29.0589 23.0728C30.2854 24.2318 32.0011 26.2805 32.0011 28.6746H33.1729C33.1729 26.8756 32.3805 25.2722 31.4492 24.008C31.9775 24.1973 32.5345 24.2939 33.0957 24.2936H34.6842C35.393 24.2937 36.0932 24.1396 36.7365 23.8419C37.3797 23.5443 37.9505 23.1104 38.4093 22.5702V23.6052C38.4062 26.3417 37.3177 28.9652 35.3827 30.9002C33.4477 32.8352 30.8242 33.9236 28.0877 33.9267H24.7805C22.044 33.9236 19.4205 32.8351 17.4855 30.9001C15.5505 28.9652 14.4621 26.3416 14.459 23.6051L14.4589 23.6052ZM27.7471 44.3743C27.3599 44.6375 26.9024 44.7782 26.4341 44.7782C25.9659 44.7782 25.5084 44.6375 25.1211 44.3743C23.8889 43.5434 22.8797 42.4224 22.1823 41.11C21.485 39.7976 21.1208 38.3339 21.1218 36.8477V34.498C22.3006 34.8958 23.5363 35.0987 24.7804 35.0986H28.0877C29.3318 35.0987 30.5676 34.8958 31.7464 34.498V36.8477C31.7474 38.3339 31.3832 39.7976 30.6858 41.11C29.9885 42.4224 28.9793 43.5433 27.7471 44.3742L27.7471 44.3743ZM1.66121 55.2526C1.90248 44.9143 8.50806 36.124 17.7022 32.6504C18.396 33.195 19.1502 33.6581 19.9499 34.0304V36.8477C19.9488 38.5257 20.36 40.1782 21.1473 41.66C21.9347 43.1417 23.074 44.4073 24.4653 45.3454C25.046 45.7401 25.7319 45.9512 26.4341 45.9512C27.1363 45.9512 27.8222 45.7401 28.403 45.3454C29.7942 44.4073 30.9335 43.1417 31.7209 41.6599C32.5082 40.1782 32.9194 38.5256 32.9182 36.8477V34.0304C33.7178 33.658 34.472 33.1949 35.1659 32.6503C44.36 36.124 50.9656 44.9143 51.2068 55.2526L1.66121 55.2526Z" fill="#1C3661"/>
</svg>
