<svg width="77" height="76" viewBox="0 0 77 76" fill="none" xmlns="http://www.w3.org/2000/svg">
<circle cx="38.5" cy="38" r="36.5" fill="#D3BB8C" stroke="#1C3661" stroke-width="3"/>
<path d="M53.3725 40.1621L49.5249 44.0098C49.4746 43.9489 49.4214 43.8898 49.3644 43.8328L44.3953 38.8637C44.1205 38.589 43.6752 38.589 43.4005 38.8637C43.1258 39.1384 43.1258 39.5838 43.4005 39.8585L48.3696 44.8276C48.7968 45.2547 48.7968 45.9497 48.3697 46.3768C47.9423 46.804 47.2473 46.8041 46.8203 46.3768L44.0591 43.6156C43.7843 43.3409 43.339 43.3409 43.0643 43.6156C42.7896 43.8903 42.7896 44.3357 43.0643 44.6103L45.8255 47.3716C45.8256 47.3717 45.8258 47.3718 45.8259 47.3719C46.0326 47.5788 46.1465 47.8537 46.1465 48.1463C46.1465 48.4389 46.0325 48.714 45.8255 48.9209C45.6186 49.1278 45.3435 49.2418 45.0509 49.2418C44.7583 49.2418 44.4832 49.1278 44.2763 48.9209L41.5151 46.1597C41.2403 45.885 40.795 45.885 40.5203 46.1597C40.2456 46.4344 40.2456 46.8798 40.5203 47.1544L43.2815 49.9157C43.7087 50.3428 43.7087 51.0378 43.2816 51.465C43.0746 51.672 42.7994 51.7859 42.5068 51.7859C42.2142 51.7859 41.9391 51.672 41.7322 51.4651L38.971 48.7038C38.6962 48.4291 38.2509 48.4291 37.9762 48.7038C37.7015 48.9785 37.7015 49.4239 37.9762 49.6986L40.7374 52.4598C41.1646 52.8869 41.1646 53.582 40.7374 54.0091C40.5305 54.216 40.2554 54.3299 39.9628 54.3299C39.6702 54.3299 39.3951 54.216 39.1882 54.0091L37.3994 52.2202C37.9693 51.2704 37.8457 50.0175 37.0278 49.1997L36.9854 49.1573C36.4405 48.6124 35.7023 48.3758 34.9893 48.4469C34.9492 47.8503 34.6984 47.2947 34.2714 46.8677C33.9412 46.5375 33.54 46.3205 33.1164 46.2166C33.2244 45.9364 33.2815 45.636 33.2815 45.3268C33.2815 44.6663 33.0243 44.0455 32.5574 43.5785C32.0904 43.1115 31.4695 42.8543 30.8091 42.8543C30.4327 42.8543 30.0693 42.9381 29.7399 43.0964C29.629 42.7027 29.4196 42.3312 29.1104 42.022C28.1465 41.058 26.5779 41.0581 25.6138 42.022L25.3237 42.3121L25.1123 42.1006C24.7721 41.7604 24.5848 41.3082 24.5848 40.8272V38.9927C24.5848 38.8062 24.5107 38.6272 24.3788 38.4953L21.3759 35.4924L22.2203 34.648C22.495 34.3732 22.495 33.9278 22.2202 33.6532C21.9456 33.3784 21.5002 33.3785 21.2255 33.6532L20.0944 34.7844C19.8811 34.9977 19.5339 34.9978 19.3206 34.7844L15.7009 31.1646C15.4262 30.8899 14.9809 30.8899 14.7061 31.1646C14.4314 31.4393 14.4314 31.8846 14.7061 32.1593L18.3259 35.7791C18.7069 36.16 19.2072 36.3504 19.7074 36.3504C19.8676 36.3504 20.0273 36.3286 20.1836 36.2896L23.178 39.2839V40.8271C23.178 41.6839 23.5117 42.4893 24.1174 43.0952L24.329 43.3068L24.0936 43.5422C23.6266 44.0092 23.3694 44.63 23.3694 45.2905C23.3694 45.951 23.6266 46.5718 24.0935 47.0387C24.5756 47.5207 25.2088 47.7617 25.8419 47.7617C25.852 47.7617 25.862 47.7612 25.872 47.761C25.8719 47.7714 25.8713 47.7817 25.8713 47.7922C25.8713 48.4527 26.1285 49.0735 26.5954 49.5404C27.0624 50.0074 27.6834 50.2646 28.3437 50.2646C28.3541 50.2646 28.3646 50.2639 28.375 50.2638C28.3672 50.9069 28.6076 51.5526 29.0971 52.0421C29.5792 52.5241 30.2124 52.7651 30.8455 52.7651C30.8559 52.7651 30.8664 52.7645 30.8767 52.7644C30.8686 53.4079 31.109 54.054 31.5989 54.5439L31.6413 54.5863C32.1083 55.0533 32.7292 55.3105 33.3895 55.3105C34.05 55.3105 34.6709 55.0533 35.1379 54.5863L36.457 53.2673L38.1936 55.0039C38.6662 55.4766 39.2946 55.7368 39.963 55.7368C40.6314 55.7368 41.2598 55.4766 41.7324 55.0039C42.2311 54.5052 42.4742 53.8467 42.4631 53.1917C42.4777 53.192 42.4923 53.1927 42.507 53.1927C43.1754 53.1927 43.8038 52.9325 44.2765 52.4598C44.7755 51.9608 45.0186 51.3018 45.0072 50.6465C45.0218 50.6468 45.0365 50.6475 45.0511 50.6475C45.6918 50.6474 46.3327 50.4035 46.8204 49.9158C47.2931 49.4432 47.5534 48.8148 47.5534 48.1464C47.5534 48.1316 47.5525 48.1171 47.5523 48.1025C47.5666 48.1027 47.5809 48.1035 47.5951 48.1035C48.2359 48.1035 48.8767 47.8595 49.3646 47.3718C49.8951 46.8413 50.1364 46.13 50.0901 45.4346L54.3676 41.1571C54.6423 40.8823 54.6423 40.4369 54.3676 40.1623C54.0926 39.8874 53.6473 39.8874 53.3725 40.1621ZM25.0882 46.0439C24.887 45.8426 24.7762 45.5751 24.7762 45.2905C24.7762 45.0058 24.8871 44.7383 25.0883 44.537L26.6086 43.0168C26.8164 42.809 27.0892 42.7051 27.3621 42.7051C27.635 42.7051 27.9078 42.8089 28.1155 43.0167C28.531 43.4323 28.531 44.1083 28.1155 44.5237L26.5952 46.044C26.1798 46.4595 25.5038 46.4594 25.0882 46.0439ZM28.3435 48.8578C28.059 48.8578 27.7913 48.747 27.59 48.5457C27.3888 48.3444 27.278 48.0769 27.278 47.7923C27.278 47.5077 27.3889 47.2401 27.5901 47.0388L29.1105 45.5185L30.0557 44.5733C30.2569 44.372 30.5244 44.2612 30.8091 44.2612C31.0937 44.2612 31.3613 44.372 31.5625 44.5733C31.7637 44.7746 31.8746 45.0422 31.8746 45.3268C31.8746 45.6113 31.7637 45.879 31.5625 46.0803L29.0969 48.5458C28.8957 48.747 28.6282 48.8578 28.3435 48.8578ZM30.0918 51.0474C29.6763 50.6319 29.6763 49.9559 30.0918 49.5404L31.7697 47.8624C31.9775 47.6547 32.2503 47.5509 32.5232 47.5509C32.7961 47.5509 33.069 47.6548 33.2766 47.8625C33.4779 48.0637 33.5888 48.3314 33.5888 48.616C33.5888 48.9004 33.4781 49.1678 33.277 49.369L31.5987 51.0473C31.1833 51.4629 30.5072 51.4629 30.0918 51.0474ZM34.1428 53.5915C33.9415 53.7928 33.674 53.9036 33.3894 53.9036C33.1048 53.9036 32.8371 53.7928 32.636 53.5915L32.5937 53.5492C32.1781 53.1337 32.1781 52.4577 32.5937 52.0422L34.2715 50.3644C34.2721 50.3638 34.2726 50.3632 34.273 50.3628L34.4836 50.1521C34.6914 49.9444 34.9643 49.8405 35.2372 49.8405C35.51 49.8405 35.7829 49.9445 35.9906 50.1521L36.0329 50.1944C36.4485 50.6099 36.4485 51.2859 36.0329 51.7014L34.1428 53.5915Z" fill="#1C3661"/>
<path d="M62.2167 34.1284C61.942 33.8537 61.4967 33.8536 61.2219 34.1284L58.5859 36.7644C58.5496 36.8007 58.4899 36.8013 58.4528 36.7659L49.1338 27.8642C49.1146 27.8458 49.1047 27.823 49.1044 27.7964C49.1041 27.7697 49.1136 27.7467 49.1323 27.7279L54.6596 22.2008C54.9343 21.9261 54.9343 21.4807 54.6596 21.2061C54.3849 20.9314 53.9395 20.9314 53.6647 21.2061L48.1375 26.7332C47.8492 27.0216 47.6931 27.4049 47.6977 27.8126C47.7016 28.1412 47.8111 28.4507 48.0072 28.7062L45.4778 31.1868L43.0945 29.8577C42.783 29.6839 42.4299 29.5921 42.0733 29.5921H35.3017L34.7864 29.0768C34.3075 28.5979 33.7438 28.2329 33.111 27.9917L31.2365 27.2775L30.3702 26.4113C30.8182 25.6611 30.7218 24.6739 30.0764 24.0286L27.2538 21.2061C26.9791 20.9314 26.5338 20.9314 26.259 21.2061C25.9843 21.4808 25.9843 21.9262 26.259 22.2008L29.0816 25.0233C29.2949 25.2366 29.2949 25.5837 29.0816 25.7971L23.3452 31.5335C23.0705 31.8082 23.0705 32.2536 23.3452 32.5282C23.4826 32.6655 23.6627 32.7342 23.8427 32.7342C24.0227 32.7342 24.2027 32.6656 24.3401 32.5282L29.4189 27.4495L30.348 28.3786C30.4182 28.4488 30.5024 28.5033 30.5951 28.5386L32.6102 29.3064C33.045 29.4721 33.4331 29.7214 33.7651 30.0465C33.7224 30.0824 33.6805 30.1195 33.6406 30.1595L30.9653 32.8349C30.4344 33.3657 30.1421 34.0717 30.1421 34.8224C30.1421 35.5732 30.4344 36.2791 30.9652 36.81C31.5138 37.3586 32.2314 37.6368 32.9521 37.6368C33.582 37.6368 34.2143 37.4242 34.7379 36.9937L36.7624 35.3294H38.8712L41.2808 37.739C41.4182 37.8763 41.5983 37.945 41.7783 37.945C41.9583 37.945 42.1383 37.8764 42.2757 37.739C42.5504 37.4643 42.5504 37.0189 42.2757 36.7443L40.5349 35.0035C40.6046 34.8943 40.6455 34.765 40.6455 34.626C40.6455 34.2375 40.3307 33.9225 39.9421 33.9225H36.5103C36.3474 33.9225 36.1894 33.9791 36.0636 34.0826L33.8445 35.907C33.2833 36.3682 32.4735 36.3287 31.9601 35.8153C31.6948 35.5501 31.5488 35.1975 31.5488 34.8225C31.5488 34.4476 31.6948 34.0949 31.9601 33.8298L34.6354 31.1544C34.7354 31.0542 34.8686 30.9991 35.0102 30.9991H42.0732C42.1905 30.9991 42.3066 31.0293 42.4091 31.0865L45.0449 32.5565C45.4362 32.775 45.9338 32.7088 46.2555 32.3945L49.0107 29.6923L56.5964 36.9383L55.4921 38.0426C55.2174 38.3173 55.2174 38.7627 55.4922 39.0373C55.6295 39.1747 55.8096 39.2433 55.9896 39.2433C56.1695 39.2433 56.3496 39.1747 56.487 39.0373L57.6231 37.9012C57.8872 38.097 58.2024 38.1957 58.5182 38.1957C58.9042 38.1957 59.2901 38.0499 59.5806 37.7592L62.2167 35.1233C62.4914 34.8484 62.4914 34.4031 62.2167 34.1284Z" fill="#1C3661"/>
</svg>
