<svg width="52" height="52" viewBox="0 0 52 52" fill="none" xmlns="http://www.w3.org/2000/svg">
<circle cx="26" cy="26" r="24.5" fill="#1C3661" stroke="#D3BB8C" stroke-width="3"/>
<path d="M38.6875 38.25H36.5V25.125C36.5 25.009 36.4539 24.8977 36.3719 24.8156C36.2898 24.7336 36.1785 24.6875 36.0625 24.6875H33.4375C33.3215 24.6875 33.2102 24.7336 33.1281 24.8156C33.0461 24.8977 33 25.009 33 25.125V38.25H32.125V28.625C32.125 28.509 32.0789 28.3977 31.9969 28.3156C31.9148 28.2336 31.8035 28.1875 31.6875 28.1875H29.0625C28.9465 28.1875 28.8352 28.2336 28.7531 28.3156C28.6711 28.3977 28.625 28.509 28.625 28.625V38.25H27.75V27.3125C27.75 27.1965 27.7039 27.0852 27.6219 27.0031C27.5398 26.9211 27.4285 26.875 27.3125 26.875H24.6875C24.5715 26.875 24.4602 26.9211 24.3781 27.0031C24.2961 27.0852 24.25 27.1965 24.25 27.3125V38.25H23.375V29.0625C23.375 28.9465 23.3289 28.8352 23.2469 28.7531C23.1648 28.6711 23.0535 28.625 22.9375 28.625H20.3125C20.1965 28.625 20.0852 28.6711 20.0031 28.7531C19.9211 28.8352 19.875 28.9465 19.875 29.0625V38.25H19V30.8125C19 30.6965 18.9539 30.5852 18.8719 30.5031C18.7898 30.4211 18.6785 30.375 18.5625 30.375H15.9375C15.8215 30.375 15.7102 30.4211 15.6281 30.5031C15.5461 30.5852 15.5 30.6965 15.5 30.8125V38.25H13.3125C13.1965 38.25 13.0852 38.2961 13.0031 38.3781C12.9211 38.4602 12.875 38.5715 12.875 38.6875C12.875 38.8035 12.9211 38.9148 13.0031 38.9969C13.0852 39.0789 13.1965 39.125 13.3125 39.125H38.6875C38.8035 39.125 38.9148 39.0789 38.9969 38.9969C39.0789 38.9148 39.125 38.8035 39.125 38.6875C39.125 38.5715 39.0789 38.4602 38.9969 38.3781C38.9148 38.2961 38.8035 38.25 38.6875 38.25ZM16.375 38.25V31.25H18.125V38.25H16.375ZM20.75 38.25V29.5H22.5V38.25H20.75ZM25.125 38.25V27.75H26.875V38.25H25.125ZM29.5 38.25V29.0625H31.25V38.25H29.5ZM33.875 38.25V25.5625H35.625V38.25H33.875Z" fill="#D3BB8C"/>
<path d="M14.1875 29.9375C14.2466 29.9375 14.3052 29.9254 14.3596 29.9021L16.2855 29.0767C16.4644 29.271 16.6978 29.4069 16.9551 29.4664C17.2125 29.5259 17.4818 29.5064 17.7279 29.4103C17.9739 29.3142 18.1853 29.1461 18.3342 28.9279C18.4831 28.7097 18.5627 28.4517 18.5625 28.1875C18.5625 28.1696 18.5618 28.152 18.5611 28.1342L20.6392 27.303C20.8151 27.5037 21.048 27.6461 21.3069 27.711C21.5658 27.7759 21.8383 27.7603 22.0881 27.6662C22.3379 27.5721 22.553 27.4041 22.7048 27.1846C22.8565 26.965 22.9377 26.7044 22.9375 26.4375C22.9375 26.4196 22.9368 26.402 22.9361 26.3842L25.0142 25.553C25.1437 25.7008 25.3047 25.8176 25.4855 25.8948C25.6662 25.972 25.8619 26.0075 26.0583 25.9988C26.2546 25.99 26.4464 25.9372 26.6196 25.8443C26.7927 25.7514 26.9427 25.6207 27.0586 25.462L29.0638 26.0635C29.073 26.2561 29.1244 26.4442 29.2145 26.6146C29.3046 26.785 29.431 26.9335 29.585 27.0494C29.7389 27.1654 29.9165 27.2461 30.1051 27.2857C30.2937 27.3253 30.4887 27.3229 30.6763 27.2786C30.8639 27.2344 31.0394 27.1493 31.1904 27.0296C31.3414 26.9098 31.4642 26.7583 31.55 26.5857C31.6359 26.4131 31.6826 26.2238 31.687 26.0311C31.6914 25.8384 31.6533 25.6471 31.5754 25.4708L34.0309 23.1598C34.2773 23.3216 34.5711 23.3957 34.8648 23.3701C35.1585 23.3444 35.4349 23.2206 35.6496 23.0186C35.8643 22.8165 36.0046 22.548 36.048 22.2564C36.0914 21.9648 36.0352 21.6671 35.8886 21.4113L37.375 20.0125V20.3125C37.375 20.4285 37.4211 20.5398 37.5031 20.6219C37.5852 20.7039 37.6964 20.75 37.8125 20.75C37.9285 20.75 38.0398 20.7039 38.1218 20.6219C38.2039 20.5398 38.25 20.4285 38.25 20.3125V19C38.25 18.884 38.2039 18.7727 38.1218 18.6906C38.0398 18.6086 37.9285 18.5625 37.8125 18.5625H36.5C36.3839 18.5625 36.2727 18.6086 36.1906 18.6906C36.1086 18.7727 36.0625 18.884 36.0625 19C36.0625 19.116 36.1086 19.2273 36.1906 19.3094C36.2727 19.3914 36.3839 19.4375 36.5 19.4375H36.7093L35.2214 20.8379C34.9907 20.749 34.7396 20.727 34.497 20.7746C34.2544 20.8221 34.0302 20.9373 33.8502 21.1067C33.6701 21.2761 33.5416 21.493 33.4795 21.7322C33.4173 21.9715 33.424 22.2235 33.4987 22.4591L30.9757 24.8337C30.6978 24.6901 30.3777 24.6507 30.0733 24.7225C29.7689 24.7944 29.5003 24.9729 29.316 25.2256L27.3107 24.6241C27.2931 24.2826 27.143 23.9616 26.8922 23.7291C26.6415 23.4967 26.31 23.3713 25.9682 23.3796C25.6265 23.3878 25.3014 23.5291 25.0622 23.7734C24.823 24.0177 24.6886 24.3456 24.6875 24.6875C24.6875 24.7054 24.6881 24.7231 24.6888 24.7408L22.6107 25.572C22.4348 25.3713 22.2019 25.2289 21.943 25.164C21.6841 25.0991 21.4116 25.1147 21.1618 25.2088C20.9121 25.3029 20.6969 25.4709 20.5452 25.6904C20.3934 25.91 20.3122 26.1706 20.3125 26.4375C20.3125 26.4554 20.3131 26.473 20.3138 26.4908L18.2357 27.322C18.0598 27.1213 17.8269 26.9789 17.568 26.914C17.3091 26.8491 17.0366 26.8647 16.7868 26.9588C16.5371 27.0529 16.3219 27.2209 16.1702 27.4404C16.0184 27.66 15.9372 27.9206 15.9375 28.1875C15.9375 28.2162 15.9387 28.2445 15.9405 28.2727L14.0151 29.0978C13.9225 29.1375 13.8464 29.2079 13.7997 29.2972C13.753 29.3865 13.7386 29.4892 13.7588 29.588C13.7791 29.6867 13.8328 29.7754 13.9109 29.8391C13.989 29.9027 14.0867 29.9375 14.1875 29.9375V29.9375ZM34.75 21.625C34.8365 21.625 34.9211 21.6507 34.993 21.6987C35.065 21.7468 35.1211 21.8151 35.1542 21.8951C35.1873 21.975 35.1959 22.063 35.1791 22.1479C35.1622 22.2327 35.1205 22.3107 35.0593 22.3719C34.9981 22.433 34.9202 22.4747 34.8353 22.4916C34.7505 22.5085 34.6625 22.4998 34.5825 22.4667C34.5026 22.4336 34.4343 22.3775 34.3862 22.3056C34.3381 22.2336 34.3125 22.149 34.3125 22.0625C34.3126 21.9465 34.3587 21.8353 34.4408 21.7533C34.5228 21.6713 34.634 21.6251 34.75 21.625ZM30.375 25.5625C30.4615 25.5625 30.5461 25.5882 30.618 25.6362C30.69 25.6843 30.7461 25.7526 30.7792 25.8326C30.8123 25.9125 30.8209 26.0005 30.8041 26.0854C30.7872 26.1702 30.7455 26.2482 30.6843 26.3094C30.6231 26.3705 30.5452 26.4122 30.4603 26.4291C30.3755 26.446 30.2875 26.4373 30.2075 26.4042C30.1276 26.3711 30.0593 26.315 30.0112 26.2431C29.9631 26.1711 29.9375 26.0865 29.9375 26C29.9376 25.884 29.9837 25.7728 30.0658 25.6908C30.1478 25.6088 30.259 25.5626 30.375 25.5625ZM26 24.25C26.0865 24.25 26.1711 24.2757 26.243 24.3237C26.315 24.3718 26.3711 24.4401 26.4042 24.5201C26.4373 24.6 26.4459 24.688 26.4291 24.7729C26.4122 24.8577 26.3705 24.9357 26.3093 24.9969C26.2481 25.058 26.1702 25.0997 26.0853 25.1166C26.0005 25.1335 25.9125 25.1248 25.8325 25.0917C25.7526 25.0586 25.6843 25.0025 25.6362 24.9306C25.5881 24.8586 25.5625 24.774 25.5625 24.6875C25.5626 24.5715 25.6087 24.4603 25.6908 24.3783C25.7728 24.2963 25.884 24.2501 26 24.25ZM21.625 26C21.7115 26 21.7961 26.0257 21.868 26.0737C21.94 26.1218 21.9961 26.1901 22.0292 26.2701C22.0623 26.35 22.0709 26.438 22.0541 26.5229C22.0372 26.6077 21.9955 26.6857 21.9343 26.7469C21.8731 26.808 21.7952 26.8497 21.7103 26.8666C21.6255 26.8835 21.5375 26.8748 21.4575 26.8417C21.3776 26.8086 21.3093 26.7525 21.2612 26.6806C21.2131 26.6086 21.1875 26.524 21.1875 26.4375C21.1876 26.3215 21.2337 26.2103 21.3158 26.1283C21.3978 26.0463 21.509 26.0001 21.625 26ZM17.25 27.75C17.3365 27.75 17.4211 27.7757 17.493 27.8237C17.565 27.8718 17.6211 27.9401 17.6542 28.0201C17.6873 28.1 17.6959 28.188 17.6791 28.2729C17.6622 28.3577 17.6205 28.4357 17.5593 28.4969C17.4981 28.558 17.4202 28.5997 17.3353 28.6166C17.2505 28.6335 17.1625 28.6248 17.0825 28.5917C17.0026 28.5586 16.9343 28.5025 16.8862 28.4306C16.8381 28.3586 16.8125 28.274 16.8125 28.1875C16.8126 28.0715 16.8587 27.9603 16.9408 27.8783C17.0228 27.7963 17.134 27.7501 17.25 27.75V27.75Z" fill="#D3BB8C"/>
<path d="M22.0859 23.7114C22.1753 23.784 22.2897 23.8184 22.4043 23.8072C22.5189 23.7959 22.6244 23.74 22.698 23.6515C22.7716 23.563 22.8074 23.449 22.7976 23.3343C22.7877 23.2196 22.7331 23.1134 22.6455 23.0388C22.2894 22.7427 21.9739 22.4011 21.7071 22.0227H23.6232C23.6992 22.3717 23.7884 22.7184 23.8907 23.0629C23.9069 23.1182 23.9339 23.1698 23.9701 23.2147C24.0063 23.2596 24.0511 23.2969 24.1017 23.3244C24.1524 23.3519 24.208 23.3692 24.2654 23.3751C24.3227 23.3811 24.3807 23.3757 24.436 23.3591C24.4912 23.3426 24.5427 23.3153 24.5873 23.2789C24.632 23.2424 24.669 23.1974 24.6963 23.1466C24.7235 23.0958 24.7404 23.0401 24.746 22.9827C24.7517 22.9253 24.7459 22.8673 24.729 22.8122C24.6508 22.5507 24.5811 22.2875 24.5198 22.0227H27.4801C27.4184 22.2873 27.3487 22.5504 27.2709 22.8122C27.2541 22.8673 27.2483 22.9253 27.2539 22.9827C27.2596 23.0401 27.2765 23.0958 27.3037 23.1466C27.3309 23.1974 27.368 23.2424 27.4126 23.2789C27.4573 23.3153 27.5087 23.3426 27.564 23.3591C27.6192 23.3757 27.6772 23.3811 27.7346 23.3751C27.7919 23.3692 27.8475 23.3519 27.8982 23.3244C27.9489 23.2969 27.9936 23.2596 28.0298 23.2147C28.066 23.1698 28.093 23.1182 28.1092 23.0629C28.2121 22.7187 28.3014 22.372 28.3769 22.0227H30.2945C30.0993 22.2983 29.8783 22.5546 29.6346 22.7883C29.5508 22.8687 29.5025 22.979 29.5001 23.095C29.4977 23.211 29.5415 23.3232 29.6218 23.407C29.7022 23.4907 29.8125 23.5391 29.9285 23.5415C30.0445 23.5438 30.1567 23.5001 30.2404 23.4197C30.8387 22.8499 31.3143 22.1641 31.6384 21.4042C31.9624 20.6442 32.128 19.8262 32.125 19C32.1232 17.5807 31.6292 16.2058 30.7273 15.1098C29.8255 14.0138 28.5715 13.2644 27.179 12.9893C27.1674 12.9866 27.1556 12.9843 27.1438 12.9826C25.8097 12.7289 24.4292 12.9257 23.2192 13.5422C22.0092 14.1586 21.0383 15.1596 20.4593 16.388C19.8802 17.6163 19.7258 19.0022 20.0202 20.3279C20.3147 21.6535 21.0413 22.8437 22.0859 23.7114V23.7114ZM21.3466 21.1477C21.3028 21.1477 21.2592 21.1542 21.2173 21.1672C20.9696 20.6206 20.8176 20.0356 20.7681 19.4375H23.3044C23.322 20.0102 23.3743 20.5813 23.4609 21.1477H21.3466ZM21.4784 16.3352H23.55C23.4098 17.07 23.3278 17.8148 23.3048 18.5625H20.7684C20.8334 17.7759 21.0762 17.0143 21.4784 16.3352V16.3352ZM31.2317 18.5625H28.6955C28.6725 17.8148 28.5904 17.07 28.45 16.3352H30.5219C30.924 17.0143 31.1667 17.7759 31.2317 18.5625V18.5625ZM27.8202 18.5625H24.18C24.2047 17.814 24.2925 17.069 24.4423 16.3352H27.5581C27.7079 17.069 27.7956 17.814 27.8202 18.5625V18.5625ZM24.3466 21.1477C24.2543 20.5818 24.1986 20.0106 24.1799 19.4375H27.8203C27.8016 20.0106 27.7459 20.5818 27.6535 21.1477H24.3466ZM30.6534 21.1477H28.5393C28.626 20.5813 28.6782 20.0102 28.6957 19.4375H31.232C31.1841 20.0358 31.033 20.6213 30.7855 21.1682C30.7428 21.1546 30.6983 21.1477 30.6534 21.1477ZM29.8737 15.4602H28.2536C28.133 14.9916 27.9886 14.5295 27.8207 14.0757C28.6054 14.3676 29.3091 14.8422 29.8737 15.4602V15.4602ZM26.7729 13.807C27.0008 14.3448 27.193 14.8971 27.3483 15.4602H24.6522C24.8074 14.8971 24.9996 14.3448 25.2276 13.807C25.7399 13.731 26.2607 13.731 26.773 13.807H26.7729ZM24.1798 14.0756C24.0118 14.5295 23.8672 14.9916 23.7465 15.4602H22.1264C22.6911 14.8421 23.395 14.3674 24.1797 14.0756H24.1798Z" fill="#D3BB8C"/>
</svg>
