<svg width="50" height="62" viewBox="0 0 50 62" fill="none" xmlns="http://www.w3.org/2000/svg">
<g clip-path="url(#clip0)">
<path d="M36.1147 25.8181C40.0137 26.9297 43.3955 29.2592 45.7816 32.3434C48.1168 35.3615 49.5044 39.1051 49.5044 43.1416V60.2512V61.1979H48.5576H1.46594H0.519226V60.2512V43.1416C0.519226 39.1041 1.9068 35.3615 4.24202 32.3434C6.62812 29.2592 10.0099 26.9297 13.9089 25.8181L14.4241 25.6702L14.8141 26.0385C16.1527 27.2999 17.7447 28.3172 19.5072 29.0096C21.2009 29.6756 23.0614 30.0439 25.0113 30.0439C26.9613 30.0439 28.8217 29.6756 30.5154 29.0096C32.2779 28.3172 33.8699 27.2999 35.2085 26.0385L35.5985 25.6702L36.1138 25.8181H36.1147ZM39.2092 59.3054L39.2073 50.7897C39.2073 50.2697 39.6293 49.8477 40.1493 49.8477C40.6693 49.8477 41.0913 50.2697 41.0913 50.7897L41.0932 59.3054H47.6119V43.1425C47.6119 39.5346 46.3731 36.1915 44.2885 33.4973C42.2481 30.8607 39.3929 28.8363 36.0959 27.785C34.6716 29.0398 33.0183 30.0581 31.205 30.7693C29.2899 31.5219 27.1977 31.9383 25.0123 31.9383C22.8268 31.9383 20.7346 31.5229 18.8195 30.7693C17.0062 30.0571 15.353 29.0398 13.9286 27.785C10.6316 28.8363 7.77642 30.8597 5.73604 33.4973C3.65233 36.1915 2.41265 39.5346 2.41265 43.1425V59.3054H8.93414L8.93226 50.7897C8.93226 50.2697 9.35428 49.8477 9.87426 49.8477C10.3942 49.8477 10.8163 50.2697 10.8163 50.7897L10.8182 59.3054H39.2092ZM30.6888 40.3834H38.1683V42.2759H30.6888V40.3834ZM24.871 34.7078L22.2239 51.4745L25.0123 54.9609L27.8025 51.4745L25.1545 34.7078H24.8719H24.871ZM20.2975 51.5923L23.1358 33.617L23.263 32.8144H24.0665H25.958H26.7616L26.8887 33.617L29.7279 51.5923L29.792 51.9992L29.5329 52.3242L25.747 57.054L25.0113 57.9725L24.2756 57.054L20.4925 52.3242L20.2335 51.9992L20.2975 51.5923ZM25.0132 0.649658C28.5175 0.649658 31.6939 2.02969 33.9961 4.26036C36.3031 6.49479 37.7331 9.58833 37.7331 13.0022C37.7331 16.416 36.3041 19.5086 33.9961 21.7439C31.6939 23.9746 28.5175 25.3546 25.0132 25.3546C21.5089 25.3546 18.3325 23.9746 16.0303 21.7439C13.7233 19.5095 12.2933 16.416 12.2933 13.0022C12.2933 9.58833 13.7223 6.49573 16.0303 4.26036C18.3325 2.02969 21.5089 0.649658 25.0132 0.649658ZM32.6792 5.61213C30.7227 3.71588 28.0116 2.54309 25.0132 2.54309C22.0139 2.54309 19.3037 3.71588 17.3472 5.61213C15.3953 7.50273 14.1868 10.1177 14.1868 13.0012C14.1868 15.8856 15.3944 18.4997 17.3472 20.3903C19.3037 22.2865 22.0148 23.4593 25.0132 23.4593C28.0125 23.4593 30.7227 22.2865 32.6792 20.3903C34.6311 18.4997 35.8396 15.8847 35.8396 13.0012C35.8396 10.1168 34.632 7.50273 32.6792 5.61213Z" fill="#1C3661"/>
</g>
<defs>
<clipPath id="clip0">
<rect width="49.1954" height="60.5482" fill="white" transform="translate(0.414551 0.649658)"/>
</clipPath>
</defs>
</svg>
