<svg width="77" height="76" viewBox="0 0 77 76" fill="none" xmlns="http://www.w3.org/2000/svg">
<circle cx="38.5" cy="38" r="36.5" fill="#1C3661" stroke="#D3BB8C" stroke-width="3"/>
<path d="M48.5024 42.5738H47.9106C47.8393 42.49 47.7538 42.4181 47.6561 42.3643L46.717 41.8478C46.6366 41.8036 46.5523 41.7694 46.466 41.7442V39.9147L46.6745 39.742C47.831 38.7844 48.6006 37.4719 48.8795 36.0268C50.5971 35.9399 51.9679 34.5151 51.9679 32.7763V31.7497C51.9679 30.6955 51.1103 29.838 50.0562 29.838C49.6919 29.838 49.3315 29.9085 48.9962 30.0422V28.9082C49.0153 28.9003 49.0346 28.8933 49.0535 28.8841C49.3899 28.7194 49.5988 28.3844 49.5988 28.0099V24.8012C49.5988 23.6395 48.9787 22.5487 47.9805 21.9545L45.9133 20.7239C45.9133 20.7239 45.9133 20.7239 45.9133 20.7239C45.6458 20.5648 45.3277 20.5422 45.0404 20.6622C44.9311 20.7078 44.8336 20.7713 44.7502 20.8488C44.3461 20.6424 43.9246 20.4709 43.4909 20.3384C43.2126 20.2534 42.9176 20.41 42.8325 20.6887C42.7474 20.9672 42.9042 21.262 43.1828 21.3471C43.5845 21.4698 43.9743 21.631 44.3465 21.8271L44.2418 22.2493C43.7883 24.0779 44.4569 26.0058 45.945 27.1611L47.9415 28.7111V30.1242H46.2829C46.0352 28.8259 44.8922 27.8413 43.5229 27.8413C42.3125 27.8413 41.2784 28.6104 40.8836 29.6857C40.5737 29.5095 40.2223 29.4075 39.8534 29.3931C39.794 29.3898 39.7342 29.3903 39.6749 29.393C39.3049 29.407 38.9523 29.509 38.6415 29.6858C38.2468 28.6106 37.2126 27.8413 36.0022 27.8413C34.6328 27.8413 33.4898 28.826 33.2422 30.1243H31.5835V28.7113L33.58 27.1613C35.0681 26.006 35.7367 24.078 35.2833 22.2495L35.1787 21.8278C36.1398 21.3217 37.2155 21.0548 38.3106 21.0548H40.9183C41.2096 21.0548 41.4457 20.8187 41.4457 20.5274C41.4457 20.2361 41.2096 20 40.9183 20H38.3106C37.0774 20 35.8647 20.2927 34.7748 20.8488C34.6915 20.7712 34.5939 20.7077 34.4846 20.6622C34.1974 20.5422 33.8792 20.5648 33.6118 20.724L31.5446 21.9546C30.5464 22.5488 29.9262 23.6396 29.9262 24.8014V28.01C29.9262 28.3846 30.1352 28.7196 30.4715 28.8843C30.4903 28.8935 30.5096 28.9005 30.5287 28.9084V30.0423C30.1943 29.9085 29.8347 29.8381 29.4662 29.8381C28.4121 29.8381 27.5545 30.6957 27.5545 31.7498V32.7764C27.5545 34.5161 28.9266 35.9413 30.6454 36.027C30.9242 37.4721 31.6939 38.7846 32.8504 39.7422L33.0589 39.9148V41.7443C32.9725 41.7695 32.8883 41.8037 32.8078 41.8479L31.8687 42.3645C31.771 42.4182 31.6855 42.4901 31.6142 42.5739H31.0224C25.7717 42.5738 21.5 46.8455 21.5 52.0961V54.1211C21.5 54.6057 21.8943 55 22.3789 55H46.6958C46.9871 55 47.2232 54.7639 47.2232 54.4726C47.2232 54.1813 46.9872 53.9452 46.6958 53.9452H44.6347L48.5909 43.6296C53.2193 43.6773 56.97 47.4566 56.97 52.096V53.9452H49.2365C48.9452 53.9452 48.7091 54.1813 48.7091 54.4726C48.7091 54.7639 48.9452 55 49.2365 55H57.1457C57.6304 55 58.0247 54.6057 58.0247 54.1211V52.0961C58.0247 46.8455 53.753 42.5738 48.5024 42.5738ZM47.0193 43.2179L44.0967 48.0067C44.0946 48.0102 44.0889 48.0195 44.0741 48.0227C44.0592 48.026 44.0503 48.0197 44.0469 48.0174L40.4102 45.5328L46.0325 42.768C46.0884 42.7405 46.1542 42.742 46.2087 42.772L47.0193 43.2179ZM36.9612 48.2813C36.9929 48.3637 37.031 48.444 37.0756 48.5212L37.68 49.5682C37.7255 49.647 37.7775 49.7207 37.834 49.7901L37.2363 53.9452H36.0198L32.981 46.0217L34.5277 48.5561C34.8333 49.0799 35.5783 49.2405 36.0729 48.8883L36.9612 48.2813ZM38.3018 53.9453L38.8138 50.3863C38.9263 50.4097 39.0418 50.4221 39.159 50.4221H40.3679C40.485 50.4221 40.6006 50.4097 40.713 50.3863L41.225 53.9453H38.3018ZM41.5378 47.9938L40.9333 49.0408C40.817 49.2422 40.6003 49.3673 40.3678 49.3673H39.1589C38.9263 49.3673 38.7096 49.2422 38.5933 49.0408L37.9889 47.9938C37.9263 47.8855 37.8976 47.7613 37.9031 47.6379L39.7623 46.3676L41.6245 47.6398C41.6299 47.7627 41.6009 47.8848 41.5378 47.9938ZM50.913 31.7497V32.7763C50.913 33.8941 50.0747 34.8193 48.9939 34.9577C48.9951 34.907 48.996 34.8563 48.996 34.8054V31.2382C49.3053 31.0128 49.6696 30.8927 50.056 30.8927C50.5286 30.8927 50.913 31.2771 50.913 31.7497ZM45.2652 22.5032L45.4678 21.6863L47.4408 22.8608C48.1212 23.2658 48.544 24.0094 48.544 24.8012V27.8437L46.5917 26.3279C45.4328 25.4283 44.9123 23.927 45.2652 22.5032ZM43.5227 28.896C44.4907 28.896 45.2782 29.6835 45.2782 30.6515C45.2782 31.6195 44.4907 32.4071 43.5227 32.4071C42.5547 32.4071 41.7671 31.6195 41.7671 30.6515C41.7671 29.6835 42.5546 28.896 43.5227 28.896ZM41.3791 37.5248L40.2571 36.4028C40.125 36.2706 39.9492 36.1978 39.7623 36.1978C39.5754 36.1978 39.3997 36.2705 39.2677 36.4027L38.1456 37.5247C37.9288 37.7415 37.6405 37.8609 37.3339 37.8609H35.7073C36.0933 36.3355 37.3194 35.1381 38.8753 34.8023C39.1433 34.9555 39.4468 35.0389 39.7623 35.0389C40.0779 35.0389 40.3814 34.9555 40.6495 34.8023C42.2044 35.138 43.4314 36.3373 43.8173 37.8609H42.1907C41.8842 37.8609 41.5959 37.7415 41.3791 37.5248ZM40.3708 38.008C40.3376 38.0159 40.3034 38.0205 40.2683 38.0205H39.2565C39.2215 38.0205 39.1874 38.0156 39.1543 38.0077L39.7624 37.3996L40.3708 38.008ZM41.4299 33.5049H40.9501C40.6966 33.5049 40.457 33.6015 40.2752 33.7768C40.1366 33.9106 39.9544 33.9842 39.7623 33.9842C39.5702 33.9842 39.388 33.9106 39.2494 33.7767C39.0675 33.6015 38.8278 33.5049 38.5745 33.5049H38.0948C37.9571 33.5049 37.8451 33.3929 37.8451 33.2553C37.8451 33.1669 37.8925 33.0843 37.9687 33.0397L38.3592 32.8114C38.6751 32.6266 38.8713 32.2845 38.8713 31.9185V31.3363C38.8713 31.0923 38.9681 30.8646 39.1437 30.695C39.3207 30.524 39.558 30.4342 39.8035 30.4466C40.2728 30.4679 40.6533 30.8802 40.6533 31.3702V31.9185C40.6533 32.2844 40.8495 32.6266 41.1655 32.8114L41.5559 33.0397C41.6321 33.0843 41.6795 33.1669 41.6795 33.2553C41.6795 33.3929 41.5675 33.5049 41.4299 33.5049ZM36.002 28.896C36.9701 28.896 37.7576 29.6835 37.7576 30.6515C37.7576 31.6195 36.9701 32.4071 36.002 32.4071C35.034 32.4071 34.2465 31.6195 34.2465 30.6515C34.2464 29.6835 35.034 28.896 36.002 28.896ZM30.9808 24.8012C30.9808 24.0094 31.4035 23.2658 32.0839 22.8608L34.0569 21.6863L34.2594 22.5032C34.6125 23.927 34.0918 25.4283 32.9331 26.328L30.9807 27.8437V24.8012H30.9808ZM31.5834 34.8054V33.6376C31.5834 33.3464 31.3473 33.1102 31.056 33.1102C30.7647 33.1102 30.5286 33.3464 30.5286 33.6376V34.8054C30.5286 34.8563 30.5295 34.9072 30.5307 34.958C29.4486 34.8207 28.6091 33.895 28.6091 32.7763V31.7497C28.6091 31.2771 28.9936 30.8927 29.4661 30.8927C29.8513 30.8927 30.2213 31.0145 30.5286 31.2386V31.2476C30.5286 31.5389 30.7647 31.775 31.056 31.775C31.3473 31.775 31.5834 31.5389 31.5834 31.2476V31.1789H33.242C33.4897 32.4772 34.6327 33.4618 36.002 33.4618C36.2774 33.4618 36.5434 33.4213 36.7951 33.3471C36.8215 33.7227 37.0067 34.0545 37.2847 34.2757C35.8564 35.0443 34.8299 36.4542 34.5826 38.1118C34.5525 38.3136 34.6117 38.518 34.7448 38.6726C34.8779 38.8271 35.0711 38.9157 35.2749 38.9157H37.3339C37.6644 38.9157 37.9838 38.8433 38.274 38.7062C38.5411 38.9403 38.8872 39.0752 39.2564 39.0752H40.2682C40.6382 39.0752 40.9836 38.9419 41.2513 38.7065C41.5414 38.8435 41.8605 38.9157 42.1908 38.9157H44.2498C44.4535 38.9157 44.6467 38.8271 44.7797 38.6728C44.9129 38.5183 44.9721 38.314 44.9421 38.112C44.6951 36.4564 43.6678 35.0453 42.2395 34.2761C42.5178 34.0549 42.7032 33.7229 42.7296 33.3472C42.9813 33.4214 43.2472 33.4619 43.5227 33.4619C44.892 33.4619 46.035 32.4772 46.2826 31.179H47.9413V34.8055C47.9413 36.4058 47.2344 37.909 46.0018 38.9297L43.9362 40.6401C41.5177 42.6427 38.007 42.6427 35.5885 40.6401L33.523 38.9297C32.2903 37.9089 31.5834 36.4057 31.5834 34.8054ZM34.9158 41.4524C36.32 42.6151 38.0411 43.1964 39.7623 43.1964C41.4835 43.1964 43.2047 42.6151 44.6089 41.4524L45.4112 40.788V41.8982L39.7623 44.6759L34.1135 41.8982V40.788L34.9158 41.4524ZM33.316 42.772C33.3704 42.742 33.4363 42.7405 33.4921 42.768L39.1145 45.5328L35.4778 48.0174C35.4743 48.0197 35.4652 48.0258 35.4505 48.0227C35.4357 48.0196 35.43 48.0102 35.4279 48.0067L32.5053 43.2179L33.316 42.772ZM22.5547 52.0961C22.5547 47.4567 26.3054 43.6773 30.9338 43.6297L34.89 53.9453H22.5547V52.0961ZM42.2906 53.9453L41.6929 49.79C41.7494 49.7206 41.8014 49.6469 41.8468 49.5682L42.4512 48.5213C42.4958 48.444 42.5338 48.3643 42.5655 48.2827L43.4519 48.8883C43.6977 49.0563 44.0063 49.1163 44.2958 49.0539C44.5866 48.9914 44.8422 48.8099 44.9971 48.5561L46.5438 46.0218L43.5051 53.9452H42.2906V53.9453Z" fill="#D3BB8C"/>
<path d="M31.4655 51.1789H27.3424C27.0511 51.1789 26.815 51.415 26.815 51.7063C26.815 51.9976 27.0511 52.2337 27.3424 52.2337H31.4655C31.7568 52.2337 31.9929 51.9976 31.9929 51.7063C31.9929 51.415 31.7568 51.1789 31.4655 51.1789Z" fill="#D3BB8C"/>
<path d="M36.002 31.3851C36.4072 31.3851 36.7357 31.0567 36.7357 30.6515C36.7357 30.2463 36.4072 29.9179 36.002 29.9179C35.5968 29.9179 35.2684 30.2463 35.2684 30.6515C35.2684 31.0567 35.5968 31.3851 36.002 31.3851Z" fill="#D3BB8C"/>
<path d="M43.5227 31.3851C43.9279 31.3851 44.2563 31.0567 44.2563 30.6515C44.2563 30.2463 43.9279 29.9179 43.5227 29.9179C43.1175 29.9179 42.789 30.2463 42.789 30.6515C42.789 31.0567 43.1175 31.3851 43.5227 31.3851Z" fill="#D3BB8C"/>
</svg>
