<svg width="504" height="504" viewBox="0 0 504 504" fill="none" xmlns="http://www.w3.org/2000/svg">
<path d="M252 132.15C255.183 132.15 258.235 130.886 260.485 128.635C262.736 126.385 264 123.333 264 120.15V96.15C264 92.9674 262.736 89.9152 260.485 87.6647C258.235 85.4143 255.183 84.15 252 84.15C248.817 84.15 245.765 85.4143 243.515 87.6647C241.264 89.9152 240 92.9674 240 96.15V120.15C240 123.333 241.264 126.385 243.515 128.635C245.765 130.886 248.817 132.15 252 132.15Z" fill="#1C3661"/>
<path d="M88 224H76C72.8174 224 69.7652 225.264 67.5147 227.515C65.2643 229.765 64 232.817 64 236C64 239.183 65.2643 242.235 67.5147 244.485C69.7652 246.736 72.8174 248 76 248H88C91.1826 248 94.2348 246.736 96.4853 244.485C98.7357 242.235 100 239.183 100 236C100 232.817 98.7357 229.765 96.4853 227.515C94.2348 225.264 91.1826 224 88 224Z" fill="#1C3661"/>
<path d="M142.042 224H127.3C124.117 224 121.065 225.264 118.815 227.515C116.564 229.765 115.3 232.817 115.3 236C115.3 239.183 116.564 242.235 118.815 244.485C121.065 246.736 124.117 248 127.3 248H142.038C145.221 248 148.273 246.736 150.523 244.485C152.774 242.235 154.038 239.183 154.038 236C154.038 232.817 152.774 229.765 150.523 227.515C148.273 225.264 145.221 224 142.038 224H142.042Z" fill="#1C3661"/>
<path d="M199.3 226.87C193.569 225.138 187.633 224.18 181.648 224.021C178.479 223.962 175.416 225.159 173.127 227.351C170.838 229.542 169.508 232.551 169.429 235.719C169.35 238.887 170.527 241.958 172.704 244.261C174.881 246.565 177.88 247.913 181.048 248.013C184.895 248.119 188.711 248.738 192.394 249.854C195.433 250.738 198.697 250.387 201.478 248.876C204.259 247.364 206.33 244.816 207.24 241.785C208.151 238.755 207.827 235.487 206.34 232.693C204.853 229.9 202.323 227.807 199.3 226.87V226.87Z" fill="#1C3661"/>
<path d="M247.152 265.1C244.155 260.429 240.794 256.002 237.1 251.86C234.978 249.488 232.001 248.055 228.823 247.878C225.645 247.7 222.527 248.793 220.154 250.915C217.782 253.036 216.35 256.014 216.172 259.192C215.995 262.369 217.087 265.488 219.209 267.86C222.058 271.057 224.651 274.473 226.963 278.077C227.814 279.406 228.918 280.553 230.213 281.455C231.508 282.356 232.967 282.993 234.509 283.33C236.05 283.666 237.643 283.696 239.195 283.416C240.748 283.137 242.23 282.554 243.557 281.701C244.884 280.848 246.03 279.741 246.929 278.445C247.828 277.149 248.463 275.688 248.797 274.146C249.131 272.604 249.157 271.011 248.875 269.459C248.593 267.907 248.007 266.426 247.152 265.1V265.1Z" fill="#1C3661"/>
<path d="M500.485 347.515L404.485 251.515C402.807 249.837 400.669 248.694 398.341 248.231C396.013 247.768 393.6 248.006 391.408 248.914C389.215 249.822 387.341 251.36 386.022 253.334C384.704 255.307 384 257.627 384 260V295.936L316 295.572C314.661 295.572 313.329 295.601 312 295.644V120H348C350.373 120 352.693 119.296 354.666 117.978C356.64 116.659 358.178 114.785 359.086 112.592C359.994 110.4 360.232 107.987 359.769 105.659C359.306 103.331 358.163 101.193 356.485 99.515L260.485 3.51505C258.235 1.26478 255.182 0.000610352 252 0.000610352C248.817 0.000610352 245.765 1.26478 243.515 3.51505L147.515 99.515C145.837 101.193 144.694 103.331 144.231 105.659C143.768 107.987 144.006 110.4 144.914 112.592C145.822 114.785 147.36 116.659 149.333 117.978C151.307 119.296 153.627 120 156 120H192V176.073C190.648 176.029 189.294 176 187.936 176L120 176.365V140.43C120 138.057 119.296 135.737 117.978 133.763C116.659 131.79 114.785 130.252 112.593 129.343C110.4 128.435 107.987 128.197 105.659 128.66C103.331 129.123 101.193 130.266 99.5149 131.944L3.51494 227.944C2.40057 229.058 1.5166 230.381 0.913505 231.837C0.310409 233.293 0 234.854 0 236.43C0 238.005 0.310409 239.566 0.913505 241.022C1.5166 242.478 2.40057 243.801 3.51494 244.915L99.5149 340.915C101.193 342.593 103.331 343.736 105.659 344.199C107.987 344.662 110.399 344.424 112.592 343.516C114.785 342.608 116.659 341.07 117.977 339.097C119.296 337.123 120 334.803 120 332.43V296.365L188 296C189.061 296 190.078 296.421 190.828 297.172C191.579 297.922 192 298.939 192 300V492C192 495.183 193.264 498.235 195.515 500.485C197.765 502.736 200.817 504 204 504C207.183 504 210.235 502.736 212.485 500.485C214.736 498.235 216 495.183 216 492V419.572C216.026 393.07 226.562 367.659 245.296 348.913C264.03 330.167 289.434 319.615 315.936 319.572L395.936 320H396C399.183 320 402.235 318.736 404.485 316.485C406.736 314.235 408 311.183 408 308V288.971L475.029 356L408 423.029V404C408 400.829 406.744 397.786 404.508 395.537C402.271 393.289 399.235 392.017 396.064 392L316 391.572C308.576 391.581 301.459 394.533 296.21 399.782C290.961 405.032 288.008 412.149 288 419.572V492C288 495.183 289.264 498.235 291.515 500.485C293.765 502.736 296.817 504 300 504C303.183 504 306.235 502.736 308.485 500.485C310.736 498.235 312 495.183 312 492V419.572C311.997 418.521 312.409 417.512 313.146 416.763C313.883 416.015 314.885 415.587 315.936 415.572L384 415.936V452C384 454.373 384.704 456.693 386.022 458.667C387.341 460.64 389.215 462.178 391.408 463.086C393.6 463.994 396.013 464.232 398.341 463.769C400.669 463.306 402.807 462.163 404.485 460.485L500.485 364.485C502.735 362.235 503.999 359.183 503.999 356C503.999 352.818 502.735 349.765 500.485 347.515V347.515ZM184.971 96L252 28.971L319.029 96H300C296.817 96 293.765 97.2643 291.515 99.5148C289.264 101.765 288 104.817 288 108V226.759C285.913 223.913 283.701 221.15 281.362 218.47C276.112 212.468 270.298 206.982 264 202.09V184.15C264 180.967 262.736 177.915 260.485 175.665C258.235 173.414 255.183 172.15 252 172.15C248.817 172.15 245.765 173.414 243.515 175.665C241.264 177.915 240 180.967 240 184.15V187.45C232.305 183.883 224.262 181.12 216 179.204V108C216 104.817 214.736 101.765 212.485 99.5148C210.235 97.2643 207.183 96 204 96H184.971ZM216 346.341V300C215.988 292.567 213.025 285.442 207.763 280.192C202.501 274.942 195.369 271.995 187.936 272L107.936 272.43C104.764 272.447 101.729 273.719 99.492 275.967C97.2554 278.216 95.9999 281.259 95.9999 284.43V303.459L28.9709 236.43L95.9999 169.4V188.43C95.9999 190.011 96.3124 191.577 96.9195 193.037C97.5265 194.497 98.4162 195.823 99.5373 196.938C100.658 198.053 101.989 198.936 103.452 199.535C104.915 200.134 106.483 200.438 108.064 200.43C108.064 200.43 197.603 200.345 202.295 201.03C250.747 207.983 287.363 249.887 287.971 298.77C279.391 300.762 271.05 303.671 263.091 307.445C263.034 307.038 262.991 306.632 262.927 306.225C262.422 303.099 260.701 300.3 258.141 298.437C255.581 296.574 252.388 295.798 249.259 296.279C246.129 296.76 243.316 298.458 241.433 301.004C239.55 303.549 238.75 306.736 239.206 309.869C239.727 313.221 239.992 316.608 240 320C240.004 320.527 240.042 321.052 240.115 321.574C230.969 328.674 222.853 337.009 216 346.341V346.341Z" fill="#1C3661"/>
<path d="M252 460C248.817 460 245.765 461.264 243.515 463.515C241.264 465.765 240 468.817 240 472V484C240 487.183 241.264 490.235 243.515 492.485C245.765 494.736 248.817 496 252 496C255.183 496 258.235 494.736 260.485 492.485C262.736 490.235 264 487.183 264 484V472C264 468.817 262.736 465.765 260.485 463.515C258.235 461.264 255.183 460 252 460V460Z" fill="#1C3661"/>
<path d="M259.311 394.141C257.813 393.65 256.234 393.459 254.663 393.578C253.091 393.697 251.559 394.125 250.153 394.836C248.747 395.548 247.495 396.53 246.468 397.725C245.441 398.921 244.66 400.307 244.169 401.804C241.959 408.552 240.615 415.553 240.169 422.64C239.968 425.816 241.038 428.942 243.142 431.33C245.246 433.717 248.213 435.171 251.389 435.372C251.646 435.388 251.902 435.396 252.157 435.396C255.207 435.393 258.141 434.229 260.363 432.14C262.585 430.051 263.929 427.195 264.121 424.151C264.438 419.094 265.397 414.098 266.974 409.282C267.965 406.258 267.715 402.964 266.278 400.125C264.841 397.285 262.335 395.133 259.311 394.141V394.141Z" fill="#1C3661"/>
<path d="M367.383 368C370.566 368 373.618 366.736 375.868 364.485C378.119 362.235 379.383 359.183 379.383 356C379.383 352.817 378.119 349.765 375.868 347.515C373.618 345.264 370.566 344 367.383 344H349.156C345.973 344 342.921 345.264 340.671 347.515C338.42 349.765 337.156 352.817 337.156 356C337.156 359.183 338.42 362.235 340.671 364.485C342.921 366.736 345.973 368 349.156 368H367.383Z" fill="#1C3661"/>
<path d="M304.8 371.135C306.296 370.633 307.678 369.842 308.868 368.805C310.057 367.769 311.031 366.508 311.733 365.095C312.434 363.681 312.85 362.144 312.957 360.57C313.064 358.995 312.859 357.416 312.355 355.921C311.85 354.426 311.056 353.045 310.017 351.857C308.978 350.67 307.716 349.699 306.301 349C304.886 348.301 303.348 347.887 301.774 347.784C300.199 347.68 298.62 347.888 297.126 348.395C290.397 350.667 283.985 353.786 278.044 357.678C276.709 358.534 275.556 359.645 274.653 360.949C273.75 362.253 273.114 363.722 272.783 365.273C272.451 366.824 272.43 368.425 272.721 369.984C273.012 371.543 273.609 373.029 274.478 374.356C275.347 375.682 276.47 376.824 277.782 377.714C279.095 378.604 280.571 379.225 282.125 379.541C283.679 379.857 285.28 379.863 286.836 379.556C288.392 379.25 289.872 378.638 291.19 377.756C295.427 374.981 300.001 372.756 304.8 371.135V371.135Z" fill="#1C3661"/>
<path d="M416 368H428C431.183 368 434.235 366.736 436.485 364.485C438.736 362.235 440 359.183 440 356C440 352.817 438.736 349.765 436.485 347.515C434.235 345.264 431.183 344 428 344H416C412.817 344 409.765 345.264 407.515 347.515C405.264 349.765 404 352.817 404 356C404 359.183 405.264 362.235 407.515 364.485C409.765 366.736 412.817 368 416 368V368Z" fill="#1C3661"/>
</svg>
