<svg width="52" height="52" viewBox="0 0 52 52" fill="none" xmlns="http://www.w3.org/2000/svg">
<circle cx="26" cy="26" r="24.5" fill="#1C3661" stroke="#D3BB8C" stroke-width="3"/>
<path d="M33.5158 31.158L28.8635 33.4621C28.6994 32.7745 28.1816 32.1895 27.4565 31.9747L25.3023 31.3361C23.7492 30.8744 21.7052 30.4951 19.6688 31.6696C19.5395 31.7437 19.4238 31.8178 19.3217 31.8833C18.9345 32.1314 18.6977 32.2823 18.0214 32.2866C17.8043 31.752 17.2795 31.3739 16.6678 31.3739H14.4605C13.6552 31.3739 13 32.0288 13 32.8338V37.9539C13 38.7589 13.6552 39.4138 14.4605 39.4138H16.6678C17.4411 39.4138 18.0755 38.81 18.1249 38.0493C19.039 38.062 19.6379 38.131 20.8783 38.4955C21.5605 38.6964 24.4763 39.5445 24.6982 39.6089C25.4309 39.8214 26.0468 40.0001 26.6886 40C27.4135 40 28.1714 39.7721 29.1679 39.108C29.1726 39.1049 29.1772 39.1017 29.1817 39.0985L35.5876 34.5398C36.4967 33.8941 36.7611 32.7282 36.2031 31.8285C35.6548 30.9414 34.5249 30.6593 33.5158 31.158V31.158ZM17.0346 37.9539C17.0346 38.1558 16.8701 38.3201 16.6678 38.3201H14.4605C14.2583 38.3201 14.0938 38.1558 14.0938 37.9539V32.8338C14.0938 32.6319 14.2583 32.4676 14.4605 32.4676H16.6678C16.8701 32.4676 17.0346 32.6319 17.0346 32.8338V37.9539H17.0346ZM34.9539 33.6486L28.5544 38.2026C27.1035 39.1678 26.4876 38.9891 25.0029 38.5585C24.7781 38.4933 21.8686 37.647 21.187 37.4463C19.8572 37.0555 19.2002 36.9718 18.1283 36.9562V33.3787C19.0536 33.3538 19.4898 33.0747 19.9119 32.8042C20.0078 32.7427 20.1069 32.6791 20.214 32.6177C21.5399 31.853 22.9684 31.7833 24.9911 32.3847L27.1457 33.0233C27.6442 33.171 27.9321 33.6945 27.7878 34.1908C27.7875 34.1916 27.7873 34.1924 27.787 34.1932C27.6413 34.6895 27.1166 34.9753 26.6172 34.8306L23.5365 33.9377C23.2463 33.8536 22.943 34.0206 22.859 34.3108C22.7749 34.6008 22.9419 34.9042 23.2321 34.9882L26.3127 35.8811C27.3077 36.1694 28.3494 35.6632 28.7506 34.7384L34.0008 32.1382C34.4224 31.9298 34.9948 31.954 35.2731 32.4043C35.5228 32.807 35.3857 33.3418 34.9539 33.6486V33.6486Z" fill="#D3BB8C"/>
<path d="M24.0657 24.525L26.3304 26.7091C26.4364 26.8113 26.5732 26.8624 26.71 26.8624C26.8469 26.8624 26.9838 26.8113 27.0897 26.7091L29.3544 24.525C29.3591 24.5204 29.3638 24.5157 29.3683 24.511C30.1935 23.6555 30.1935 22.2634 29.3677 21.4073C28.6823 20.6988 27.5208 20.6738 26.7093 21.3262C25.8983 20.6732 24.7366 20.6981 24.0522 21.4074C23.2246 22.2632 23.2246 23.6558 24.0522 24.5115C24.0567 24.516 24.0611 24.5205 24.0657 24.525V24.525ZM24.839 22.1672C25.1836 21.81 25.7536 21.922 26.084 22.2305L26.1056 22.2508C26.2682 22.403 26.4364 22.5604 26.7099 22.5604C26.9844 22.5604 27.1521 22.4024 27.3144 22.2497L27.3346 22.2306C27.6652 21.922 28.2358 21.8103 28.5812 22.1672C28.9934 22.5945 28.9954 23.3151 28.5873 23.7453L26.7101 25.5558L24.8326 23.7451C24.4163 23.3079 24.4184 22.6022 24.839 22.1672V22.1672Z" fill="#D3BB8C"/>
<path d="M14.442 24.4039H17.4001C17.7021 24.4039 17.9469 24.159 17.9469 23.857C17.9469 23.555 17.7021 23.3101 17.4001 23.3101H14.442C14.14 23.3101 13.8951 23.555 13.8951 23.857C13.8951 24.159 14.14 24.4039 14.442 24.4039Z" fill="#D3BB8C"/>
<path d="M14.596 20.7149L17.1617 21.9674C17.239 22.0051 17.3207 22.0229 17.4012 22.0229C17.6037 22.0229 17.7982 21.9101 17.8931 21.7159C18.0256 21.4445 17.913 21.117 17.6416 20.9845L15.0759 19.732C14.8044 19.5995 14.477 19.7121 14.3445 19.9835C14.212 20.2549 14.3246 20.5824 14.596 20.7149V20.7149Z" fill="#D3BB8C"/>
<path d="M17.1617 25.7466L14.596 26.9991C14.3246 27.1316 14.212 27.459 14.3445 27.7304C14.4393 27.9246 14.6339 28.0375 14.8364 28.0375C14.9169 28.0375 14.9987 28.0196 15.0759 27.9819L17.6416 26.7294C17.913 26.5969 18.0256 26.2695 17.8931 25.9981C17.7605 25.7267 17.4331 25.614 17.1617 25.7466V25.7466Z" fill="#D3BB8C"/>
<path d="M38.9766 23.3101H36.0186C35.7166 23.3101 35.4717 23.555 35.4717 23.857C35.4717 24.159 35.7166 24.4039 36.0186 24.4039H38.9766C39.2786 24.4039 39.5235 24.159 39.5235 23.857C39.5235 23.555 39.2787 23.3101 38.9766 23.3101Z" fill="#D3BB8C"/>
<path d="M36.019 22.0229C36.0995 22.0229 36.1813 22.005 36.2586 21.9673L38.8227 20.7148C39.0941 20.5822 39.2066 20.2548 39.074 19.9834C38.9414 19.712 38.6142 19.5995 38.3426 19.7321L35.7785 20.9846C35.5072 21.1171 35.3946 21.4446 35.5272 21.716C35.622 21.9101 35.8165 22.0229 36.019 22.0229Z" fill="#D3BB8C"/>
<path d="M38.8227 26.9992L36.2586 25.7466C35.9871 25.6141 35.6597 25.7267 35.5272 25.998C35.3946 26.2693 35.5072 26.5968 35.7785 26.7294L38.3426 27.9819C38.4199 28.0196 38.5017 28.0375 38.5822 28.0375C38.7846 28.0375 38.9792 27.9246 39.074 27.7305C39.2066 27.4592 39.0941 27.1317 38.8227 26.9992Z" fill="#D3BB8C"/>
<path d="M19.7942 19.5221V27.5199C19.7942 28.5548 20.6365 29.3968 21.6719 29.3968H31.7482C32.7828 29.3968 33.6245 28.5548 33.6245 27.5199V19.5224C34.451 19.3711 35.0795 18.6465 35.0795 17.7774V17.0007C35.0795 16.0222 34.2831 15.2262 33.3041 15.2262H32.1713C32.301 14.7425 32.2678 14.2202 32.0617 13.7078C31.6927 12.7901 30.8445 12.1087 29.9511 12.0123C29.1424 11.9251 28.4057 12.3046 27.8771 13.0817L26.7098 14.8001L25.5414 13.0815C25.0136 12.3049 24.2776 11.9253 23.4688 12.0122C22.5751 12.1084 21.7265 12.7898 21.3571 13.7079C21.151 14.2203 21.1177 14.7425 21.2474 15.2261H20.1161C19.1371 15.2261 18.3407 16.0222 18.3407 17.0007V17.7773C18.3408 18.6459 18.9685 19.3702 19.7942 19.5221V19.5221ZM28.7818 13.6965C29.0805 13.2574 29.4349 13.0564 29.8338 13.0997C30.3291 13.1531 30.8279 13.571 31.047 14.1159C31.1429 14.3541 31.2477 14.7891 30.9978 15.2262H27.7428L28.7818 13.6965ZM22.3719 14.1161C22.5913 13.5709 23.0905 13.153 23.586 13.0996C23.985 13.0566 24.3387 13.2575 24.637 13.6964L25.6771 15.2262H22.4211C22.1712 14.7892 22.2761 14.3543 22.3719 14.1161V14.1161ZM19.4345 17.0007C19.4345 16.6253 19.7403 16.3199 20.1161 16.3199H33.3041C33.68 16.3199 33.9858 16.6254 33.9858 17.0007V17.7774C33.9858 18.1528 33.68 18.4582 33.3041 18.4582H26.7101C26.4082 18.4582 26.1633 18.703 26.1633 19.005C26.1633 19.3071 26.4082 19.5519 26.7101 19.5519H32.5308V27.52C32.5308 27.9518 32.1798 28.3031 31.7483 28.3031H21.672C21.2397 28.3031 20.888 27.9518 20.888 27.52V19.5519H21.7155C22.0175 19.5519 22.2623 19.3071 22.2623 19.005C22.2623 18.703 22.0175 18.4582 21.7155 18.4582H20.1162C19.7403 18.4582 19.4346 18.1527 19.4346 17.7774V17.0007H19.4345Z" fill="#D3BB8C"/>
<path d="M24.1723 19.5519C24.4743 19.5519 24.7192 19.307 24.7192 19.005C24.7192 18.703 24.4743 18.4581 24.1723 18.4581H24.1707C23.8687 18.4581 23.6246 18.703 23.6246 19.005C23.6246 19.307 23.8702 19.5519 24.1723 19.5519V19.5519Z" fill="#D3BB8C"/>
</svg>
