<svg width="498" height="497" viewBox="0 0 498 497" fill="none" xmlns="http://www.w3.org/2000/svg">
<path d="M493.736 178.544L253.736 2.54395C252.363 1.53536 250.704 0.991455 249 0.991455C247.296 0.991455 245.637 1.53536 244.264 2.54395L4.264 178.544C2.90172 179.541 1.88969 180.943 1.37274 182.55C0.8558 184.157 0.860439 185.886 1.386 187.491C1.91155 189.095 2.93109 190.492 4.2987 191.481C5.66632 192.471 7.31192 193.002 9 193H17V217C17 219.122 17.8429 221.157 19.3431 222.657C20.8434 224.157 22.8783 225 25 225H33V249C33 251.122 33.8429 253.157 35.3432 254.657C36.8434 256.157 38.8783 257 41 257H49V401H41C38.8783 401 36.8434 401.843 35.3432 403.343C33.8429 404.843 33 406.878 33 409V433H25C22.8783 433 20.8434 433.843 19.3431 435.343C17.8429 436.843 17 438.878 17 441V489C17 491.122 17.8429 493.157 19.3431 494.657C20.8434 496.157 22.8783 497 25 497H473C475.122 497 477.157 496.157 478.657 494.657C480.157 493.157 481 491.122 481 489V441C481 438.878 480.157 436.843 478.657 435.343C477.157 433.843 475.122 433 473 433H465V409C465 406.878 464.157 404.843 462.657 403.343C461.157 401.843 459.122 401 457 401H449V257H457C459.122 257 461.157 256.157 462.657 254.657C464.157 253.157 465 251.122 465 249V225H473C475.122 225 477.157 224.157 478.657 222.657C480.157 221.157 481 219.122 481 217V193H489C490.688 193.002 492.334 192.471 493.701 191.481C495.069 190.492 496.088 189.095 496.614 187.491C497.14 185.886 497.144 184.157 496.627 182.55C496.11 180.943 495.098 179.541 493.736 178.544ZM249 18.92L464.56 177H33.44L249 18.92ZM113 225V241H49V225H113ZM377 257H385V401H377C374.878 401 372.843 401.843 371.343 403.343C369.843 404.843 369 406.878 369 409V433H129V409C129 406.878 128.157 404.843 126.657 403.343C125.157 401.843 123.122 401 121 401H113V257H121C123.122 257 125.157 256.157 126.657 254.657C128.157 253.157 129 251.122 129 249V225H369V249C369 251.122 369.843 253.157 371.343 254.657C372.843 256.157 374.878 257 377 257ZM65 257H97V401H65V257ZM49 417H113V433H49V417ZM465 481H33V449H465V481ZM385 433V417H449V433H385ZM433 401H401V257H433V401ZM449 241H385V225H449V241ZM465 209H33V193H465V209Z" fill="#1C3661"/>
<path d="M249 65C239.507 65 230.226 67.8152 222.333 73.0895C214.439 78.3638 208.287 85.8603 204.654 94.6312C201.021 103.402 200.07 113.053 201.922 122.364C203.774 131.675 208.346 140.228 215.059 146.941C221.772 153.654 230.325 158.226 239.636 160.078C248.947 161.93 258.598 160.979 267.369 157.346C276.14 153.713 283.636 147.561 288.911 139.667C294.185 131.774 297 122.494 297 113C296.987 100.274 291.926 88.0719 282.927 79.0729C273.928 70.0739 261.727 65.0127 249 65V65ZM249 145C242.671 145 236.484 143.123 231.222 139.607C225.959 136.091 221.858 131.093 219.436 125.246C217.014 119.399 216.38 112.965 217.615 106.757C218.85 100.55 221.897 94.8479 226.373 90.3726C230.848 85.8973 236.55 82.8496 242.757 81.6149C248.965 80.3801 255.399 81.0138 261.246 83.4359C267.093 85.8579 272.091 89.9594 275.607 95.2218C279.123 100.484 281 106.671 281 113C281 121.487 277.629 129.626 271.627 135.627C265.626 141.629 257.487 145 249 145V145Z" fill="#1C3661"/>
<path d="M353 265H145C142.878 265 140.843 265.843 139.343 267.343C137.843 268.843 137 270.878 137 273V385C137 387.122 137.843 389.157 139.343 390.657C140.843 392.157 142.878 393 145 393H353C355.122 393 357.157 392.157 358.657 390.657C360.157 389.157 361 387.122 361 385V273C361 270.878 360.157 268.843 358.657 267.343C357.157 265.843 355.122 265 353 265ZM345 377H153V281H345V377Z" fill="#1C3661"/>
<path d="M185 361H201V313H217V297H169V313H185V361Z" fill="#1C3661"/>
<path d="M241 345H257V361H273V321C273 314.635 270.471 308.53 265.971 304.029C261.47 299.529 255.365 297 249 297C242.635 297 236.53 299.529 232.029 304.029C227.529 308.53 225 314.635 225 321V361H241V345ZM249 313C251.122 313 253.157 313.843 254.657 315.343C256.157 316.843 257 318.878 257 321V329H241V321C241 318.878 241.843 316.843 243.343 315.343C244.843 313.843 246.878 313 249 313Z" fill="#1C3661"/>
<path d="M297 361C297.054 353.423 299.902 346.133 305 340.528C310.098 346.133 312.946 353.423 313 361H329C328.948 349.096 324.372 337.656 316.2 329C324.372 320.344 328.948 308.904 329 297H313C312.946 304.577 310.098 311.867 305 317.472C299.902 311.867 297.054 304.577 297 297H281C281.052 308.904 285.628 320.344 293.8 329C285.628 337.656 281.052 349.096 281 361H297Z" fill="#1C3661"/>
</svg>
