<svg width="52" height="52" viewBox="0 0 52 52" fill="none" xmlns="http://www.w3.org/2000/svg">
<circle cx="26" cy="26" r="24.5" fill="#1C3661" stroke="#D3BB8C" stroke-width="3"/>
<path d="M25.6658 21.2067C25.6658 21.4361 25.8516 21.622 26.0811 21.622H27.4888C28.0111 23.0964 29.3236 24.1455 30.857 24.1455H31.5079C31.7371 24.1455 31.923 23.9595 31.923 23.7302C31.923 23.5008 31.7371 23.315 31.5079 23.315H30.857C29.7801 23.315 28.8449 22.626 28.3835 21.622H30.6199C30.8493 21.622 31.0352 21.4361 31.0352 21.2067C31.0352 20.9775 30.8493 20.7916 30.6199 20.7916H28.1271C28.0776 20.5022 28.0684 20.2441 28.0848 19.9835H30.6199C30.8493 19.9835 31.0352 19.7977 31.0352 19.5684C31.0352 19.339 30.8493 19.1532 30.6199 19.1532H28.2414C28.6281 17.9556 29.6545 17.097 30.857 17.097H31.5079C31.7371 17.097 31.923 16.9112 31.923 16.6818C31.923 16.4525 31.7371 16.2665 31.5079 16.2665H30.857C29.2004 16.2665 27.8018 17.4908 27.3786 19.1532H26.0811C25.8516 19.1532 25.6658 19.339 25.6658 19.5684C25.6658 19.7977 25.8516 19.9835 26.0811 19.9835H27.2528C27.2391 20.2497 27.2483 20.5124 27.2867 20.7916H26.0811C25.8516 20.7916 25.6658 20.9775 25.6658 21.2067V21.2067Z" fill="#D3BB8C"/>
<path d="M37.3086 36.2751H37.1952C37.6122 35.6517 37.6132 34.8367 37.1945 34.2093H37.6481C38.6903 34.2093 39.5651 33.3565 39.5474 32.3145C39.5301 31.3024 38.7014 30.4844 37.6852 30.4844H37.1945C38.0178 29.2503 37.1304 27.5883 35.6456 27.5883H33.5478C36.9587 25.9295 38.792 22.1608 37.977 18.4397C37.9277 18.2154 37.7062 18.0738 37.4825 18.1229C37.2584 18.1716 37.1166 18.3931 37.1659 18.6174C37.6773 20.9545 37.0401 23.4047 35.3937 25.1981C32.281 28.5887 26.8657 28.3206 24.0969 24.6971C24.0963 24.6971 24.0963 24.6965 24.0963 24.6965C23.6175 24.0708 23.2426 23.3733 22.9846 22.6325C22.9841 22.6318 22.9835 22.6314 22.9841 22.6308C22.6475 21.6663 22.5244 20.6648 22.5877 19.7364C22.587 19.7357 22.587 19.7353 22.5877 19.7347C22.596 19.6039 22.659 18.9325 22.6872 18.9041C23.706 13.1662 30.681 10.849 34.9479 14.7667C35.6799 15.4383 36.2589 16.2334 36.6686 17.1287C36.7639 17.3374 37.0102 17.4286 37.2191 17.3336C37.4272 17.2383 37.519 16.992 37.4237 16.7831C34.6695 10.7666 26.265 10.3336 22.8933 16.0097H18.2054C17.1789 16.0097 16.343 16.8452 16.343 17.8721C16.343 18.8992 17.1789 19.7347 18.2054 19.7347H18.2255C18.0277 20.031 17.9121 20.3862 17.9121 20.7684C17.9121 21.1504 18.0277 21.5058 18.2255 21.8019H17.5887C17.3594 21.8019 17.1734 21.988 17.1734 22.2172C17.1734 22.4466 17.3594 22.6325 17.5887 22.6325H22.1104C22.3362 23.3611 22.6628 24.0565 23.0805 24.6965H15.3738C14.815 24.6965 14.3384 24.2626 14.3172 23.704C14.2952 23.117 14.7663 22.6325 15.3486 22.6325H15.6693C15.8985 22.6325 16.0843 22.4466 16.0843 22.2172C16.0843 21.988 15.8985 21.8019 15.6693 21.8019H15.3856C14.3666 21.8019 13.5085 22.6049 13.4867 23.6239C13.4717 24.3201 13.8413 24.933 14.3969 25.2652C14.0588 25.6142 13.856 26.094 13.8731 26.6208C13.9056 27.631 14.7601 28.4214 15.7707 28.4214H16.446C15.6283 29.6528 16.5135 31.3132 17.9978 31.3132H19.0144C18.5997 31.9349 18.5931 32.7494 19.0144 33.3805H16.8019C15.3149 33.3805 14.4307 35.0454 15.2523 36.2751H14.8996C13.8575 36.2751 12.9825 37.1278 13.0003 38.1699C13.0176 39.182 13.8462 40 14.8626 40H37.3458C38.362 40 39.1906 39.182 39.2079 38.1699C39.2259 37.1278 38.3509 36.2751 37.3086 36.2751ZM19.7745 21.8004C19.2054 21.8004 18.7424 21.3375 18.7424 20.7684C18.7424 20.1991 19.2054 19.7364 19.7745 19.7364H21.7549C21.7156 20.4251 21.7637 21.117 21.8989 21.8004H19.7745ZM21.8447 18.9041H18.2054C17.6369 18.9041 17.1734 18.4414 17.1734 17.8721C17.1734 17.3037 17.6369 16.8401 18.2054 16.8401H22.4614C22.1664 17.4963 21.9587 18.1893 21.8447 18.9041ZM37.6852 31.315C38.2543 31.315 38.7172 31.7777 38.7172 32.347C38.7172 32.9154 38.2543 33.3788 37.6852 33.3788H26.5668C25.9975 33.3788 25.5348 32.9154 25.5348 32.347C25.5348 31.7777 25.9975 31.315 26.5668 31.315H37.6852ZM25.0165 33.3788H20.5636C19.9943 33.3788 19.5316 32.9154 19.5316 32.347C19.5316 31.7777 19.9943 31.315 20.5636 31.315H25.0165C24.6002 31.9394 24.6002 32.7543 25.0165 33.3788ZM24.5271 34.211H35.6456C36.2146 34.211 36.6776 34.674 36.6776 35.243C36.6776 35.8117 36.2146 36.2751 35.6456 36.2751H24.5271C23.9578 36.2751 23.4951 35.8117 23.4951 35.243C23.4951 34.674 23.9578 34.211 24.5271 34.211ZM35.6456 28.4187C36.2146 28.4187 36.6776 28.8816 36.6776 29.4507C36.6776 30.0198 36.2146 30.4827 35.6456 30.4827H24.5271C23.9578 30.4827 23.4951 30.0198 23.4951 29.4507C23.4951 28.8997 23.9286 28.4503 24.4722 28.4214C29.1328 28.4214 25.476 28.4187 35.6456 28.4187V28.4187ZM15.7344 27.5911C15.1653 27.5911 14.7026 27.1282 14.7026 26.5595C14.7026 25.9904 15.1653 25.5275 15.7344 25.5275H23.7004C24.4041 26.357 25.3032 27.075 26.354 27.5883C22.8256 27.5883 16.581 27.5911 15.7344 27.5911ZM17.9978 30.4827C17.4293 30.4827 16.9657 30.0198 16.9657 29.4507C16.9657 28.9059 17.3904 28.4586 17.9253 28.4214H22.9752C22.5665 29.0367 22.555 29.8499 22.9769 30.4827H17.9978ZM16.8019 34.211H22.9769C22.5605 34.8355 22.5599 35.65 22.9769 36.2751H16.8019C16.2328 36.2751 15.7699 35.8117 15.7699 35.243C15.7699 34.674 16.2328 34.211 16.8019 34.211ZM24.6777 39.1694H14.8626C14.2933 39.1694 13.8306 38.7067 13.8306 38.1374C13.8306 37.5683 14.2933 37.1054 14.8626 37.1054H24.6777C24.2607 37.7305 24.2614 38.545 24.6777 39.1694V39.1694ZM37.3458 39.1694C25.434 39.1694 26.1974 39.1735 26.1039 39.1617C25.5929 39.1009 25.196 38.6646 25.196 38.1374C25.196 37.6104 25.5929 37.1742 26.1039 37.1133C26.1996 37.1016 25.4649 37.1054 37.3458 37.1054C37.9149 37.1054 38.3778 37.5683 38.3778 38.1374C38.3778 38.7067 37.9149 39.1694 37.3458 39.1694Z" fill="#D3BB8C"/>
<path d="M24.7813 18.0483C24.5637 17.9765 24.3287 18.0949 24.2567 18.3126C23.0709 21.9063 25.4378 25.6178 29.0935 26.1491C34.2442 26.8976 37.8574 21.1339 34.9199 16.8249C32.5775 13.3892 27.4993 13.3016 25.0601 16.7256C24.9272 16.9123 24.9706 17.1716 25.1575 17.3047C25.3442 17.4378 25.6036 17.3942 25.7367 17.2073C27.8425 14.2514 32.218 14.3362 34.2337 17.2927C36.7553 20.9918 33.6601 25.9731 29.2129 25.3271C26.0624 24.8693 24.023 21.6709 25.0454 18.5728C25.1174 18.3551 24.999 18.1203 24.7813 18.0483V18.0483Z" fill="#D3BB8C"/>
</svg>
