<svg width="335" height="338" viewBox="0 0 335 338" fill="none" xmlns="http://www.w3.org/2000/svg">
<path d="M112.15 253.96V120.14L50.7599 181.52V253.96H0.199951" stroke="white" stroke-width="2.76" stroke-miterlimit="10"/>
<path d="M88.8201 253.96V86.99H161.26V253.96" stroke="white" stroke-width="2.76" stroke-miterlimit="10"/>
<path d="M216.43 253.96V30.5099H182.24V2.27991H174.88H142.77V29.2899V253.96" stroke="white" stroke-width="2.76" stroke-miterlimit="10"/>
<path d="M230.01 253.96V176.61H281.57V253.96H334.86" stroke="white" stroke-width="2.76" stroke-miterlimit="10"/>
<path d="M202.1 253.96V70.74L265.33 132.21V309.69" stroke="#D3BB8C" stroke-width="2.76" stroke-miterlimit="10"/>
<path d="M55.75 288.19C55.98 298.34 49.48 308.6 35.52 308.6H22V268.7H35.52C49 268.7 55.53 278.39 55.75 288.19ZM25.08 271.61V305.61H35.52C47.37 305.61 52.85 296.71 52.67 288.16C52.5 279.84 47.03 271.58 35.52 271.58L25.08 271.61Z" fill="white"/>
<path d="M75.3 287.11H98.67V289.9H75.3V305.64H100.5V308.64H72.28V268.7H99.81V271.61H75.3V287.11Z" fill="white"/>
<path d="M151.68 273.14L136.41 296.52H135.41L120 273.14V308.6H116.92V268.7H120.57L135.84 292L150.94 268.74H154.71V308.64H151.71L151.68 273.14Z" fill="white"/>
<path d="M176.08 287.11H199.45V289.9H176.08V305.64H201.27V308.64H173.05V268.7H200.59V271.61H176.08V287.11Z" fill="white"/>
<path d="M231.31 271.49H216.89V268.75H248.81V271.49H234.39V308.6H231.31V271.49Z" fill="white"/>
<path d="M312.65 276.39C309.74 271.72 305.07 271.03 300.56 270.98C295.89 270.98 288.48 272.69 288.48 279.07C288.48 284.15 293.95 285.34 300.68 286.6C308.37 288.08 316.35 289.45 316.35 298.06C316.3 307.06 307.23 309.23 300.56 309.23C294.35 309.23 287.28 306.66 284.2 300.56L286.94 299.2C289.39 304.04 295.66 306.44 300.56 306.44C305.46 306.44 313.27 305.07 313.27 298C313.33 292 306.72 290.7 300.16 289.45C292.87 288.02 285.4 286.54 285.4 279.19C285.23 270.75 294.01 268.13 300.56 268.13C306.26 268.13 311.22 269.04 315.16 274.91L312.65 276.39Z" fill="white"/>
<path d="M5.99986 331.54H2.13986V334.92H6.67986V335.92H0.859863V326.47H6.60986V327.47H2.13986V330.53H5.99986V331.54Z" fill="#D3BB8C"/>
<path d="M15.34 335.92H14.06L9.50995 328.7V335.91H8.19995V326.46H9.46995L14 333.68V326.48H15.2799L15.34 335.92Z" fill="#D3BB8C"/>
<path d="M22.5901 333.54C22.5955 333.337 22.5572 333.136 22.4778 332.95C22.3985 332.763 22.2799 332.596 22.1301 332.46C21.6558 332.089 21.1008 331.836 20.5101 331.72C19.6897 331.547 18.9199 331.187 18.2601 330.67C18.0022 330.458 17.7954 330.19 17.6552 329.887C17.5149 329.584 17.4448 329.254 17.4501 328.92C17.445 328.566 17.5206 328.215 17.6714 327.894C17.8221 327.574 18.044 327.292 18.3201 327.07C18.9589 326.558 19.762 326.295 20.5801 326.33C21.0134 326.307 21.4469 326.37 21.8555 326.516C22.2642 326.662 22.6396 326.887 22.9601 327.18C23.2427 327.429 23.4665 327.737 23.6153 328.083C23.764 328.429 23.834 328.804 23.8201 329.18H22.5801C22.5854 328.931 22.5383 328.684 22.4418 328.455C22.3453 328.226 22.2016 328.02 22.0201 327.85C21.826 327.673 21.5989 327.536 21.3518 327.447C21.1048 327.357 20.8425 327.318 20.5801 327.33C20.086 327.299 19.5978 327.452 19.2101 327.76C19.0529 327.902 18.9285 328.077 18.8456 328.272C18.7627 328.467 18.7233 328.678 18.7301 328.89C18.7324 329.086 18.7807 329.278 18.871 329.452C18.9613 329.626 19.0912 329.776 19.2501 329.89C19.7652 330.237 20.3424 330.481 20.9501 330.61C21.757 330.784 22.5069 331.159 23.1301 331.7C23.3693 331.93 23.5585 332.206 23.6858 332.513C23.8132 332.819 23.8759 333.148 23.8701 333.48C23.8797 333.836 23.8029 334.19 23.6462 334.51C23.4894 334.831 23.2575 335.109 22.9701 335.32C22.2892 335.805 21.4653 336.048 20.6301 336.01C19.7624 336.026 18.913 335.759 18.2101 335.25C17.8824 335.022 17.6185 334.714 17.4434 334.355C17.2684 333.996 17.1881 333.599 17.2101 333.2H18.4301C18.4171 333.466 18.4717 333.732 18.5889 333.971C18.706 334.211 18.8819 334.417 19.1001 334.57C19.5462 334.888 20.0821 335.056 20.6301 335.05C21.138 335.079 21.6411 334.938 22.0601 334.65C22.2313 334.521 22.3689 334.353 22.4611 334.16C22.5534 333.967 22.5977 333.754 22.5901 333.54Z" fill="#D3BB8C"/>
<path d="M30.8399 331.54H26.9999V334.92H31.5499V335.92H25.6799V326.47H31.4299V327.47H26.9999V330.53H30.8799L30.8399 331.54Z" fill="#D3BB8C"/>
<path d="M37.7 334.15L40.7 326.47H42.29V335.92H41.07V328.84L38.21 335.93H37.32L34.32 328.61V335.93H33V326.48H34.7L37.7 334.15Z" fill="#D3BB8C"/>
<path d="M44.5701 335.92V326.47H47.6501C48.473 326.42 49.289 326.645 49.9701 327.11C50.2486 327.336 50.4691 327.626 50.6135 327.955C50.7578 328.283 50.8218 328.642 50.8001 329C50.8063 329.398 50.6757 329.786 50.4301 330.1C50.1687 330.429 49.8231 330.681 49.4301 330.83C50.0075 330.896 50.5357 331.187 50.9001 331.64C51.2602 332.091 51.4513 332.653 51.4401 333.23C51.4677 333.606 51.406 333.983 51.26 334.331C51.1141 334.678 50.8879 334.987 50.6001 335.23C49.9403 335.719 49.1304 335.963 48.3101 335.92H44.5701ZM45.8501 330.48H47.9201C48.3416 330.498 48.7548 330.359 49.0801 330.09C49.2321 329.954 49.3515 329.785 49.4294 329.596C49.5073 329.408 49.5417 329.204 49.5301 329C49.5431 328.783 49.5056 328.567 49.4205 328.367C49.3355 328.168 49.2053 327.991 49.0401 327.85C48.6316 327.573 48.1427 327.439 47.6501 327.47H45.8501V330.48ZM45.8501 331.48V334.92H48.3101C48.8008 334.949 49.285 334.796 49.6701 334.49C49.8359 334.333 49.9655 334.141 50.0501 333.929C50.1347 333.716 50.1722 333.488 50.1601 333.26C50.1688 333.027 50.1289 332.794 50.0428 332.577C49.9567 332.36 49.8264 332.164 49.6601 332C49.2958 331.669 48.8223 331.484 48.3301 331.48H45.8501Z" fill="#D3BB8C"/>
<path d="M54.3 334.92H58.9V335.92H53V326.47H54.3V334.92Z" fill="#D3BB8C"/>
<path d="M65.4901 331.54H61.6101V334.92H66.1501V335.92H60.3301V326.47H66.0801V327.47H61.6101V330.53H65.4901V331.54Z" fill="#D3BB8C"/>
<path d="M68.5998 335.61L67.5998 337.61H66.8398L67.2898 335.61V334.55H68.5698L68.5998 335.61Z" fill="#D3BB8C"/>
<path d="M74.8699 331.82V335.92H73.5898V326.47H76.8198C77.6667 326.412 78.5066 326.656 79.1898 327.16C79.4698 327.409 79.6892 327.719 79.8313 328.065C79.9734 328.412 80.0345 328.786 80.0098 329.16C80.0188 329.613 79.8859 330.057 79.6298 330.43C79.3482 330.813 78.9632 331.108 78.5198 331.28C78.9791 331.411 79.3764 331.702 79.6398 332.1C79.8806 332.53 79.9983 333.018 79.9799 333.51V334.4C79.9747 334.667 80.0084 334.933 80.0798 335.19C80.1363 335.409 80.2543 335.606 80.4198 335.76V335.92H79.0998C78.9192 335.747 78.8028 335.518 78.7698 335.27C78.7263 334.979 78.7029 334.685 78.6998 334.39V333.52C78.7196 333.068 78.5616 332.627 78.2598 332.29C78.1022 332.131 77.9131 332.008 77.7047 331.927C77.4962 331.846 77.2732 331.809 77.0499 331.82H74.8699ZM74.8699 330.82H76.6898C77.2431 330.869 77.7958 330.72 78.2498 330.4C78.4182 330.241 78.5487 330.046 78.6318 329.829C78.7149 329.613 78.7484 329.381 78.7299 329.15C78.7422 328.923 78.7078 328.696 78.6287 328.482C78.5495 328.269 78.4274 328.074 78.2698 327.91C77.859 327.586 77.3413 327.429 76.8198 327.47H74.8699V330.82Z" fill="#D3BB8C"/>
<path d="M87.21 331.54H83.33V334.92H87.87V335.92H82.05V326.47H87.8V327.47H83.33V330.53H87.21V331.54ZM85.58 323.82H87.07L85.33 325.51H84.33L85.58 323.82Z" fill="#D3BB8C"/>
<path d="M90.8 335.92H89.51V326.47H90.8V335.92Z" fill="#D3BB8C"/>
<path d="M100.29 335.92H98.9999L94.4499 328.7V335.91H93.1699V326.46H94.4499L98.9999 333.67V326.47H100.28L100.29 335.92Z" fill="#D3BB8C"/>
<path d="M105.37 333.44L105.58 334.22L105.8 333.44L108.24 326.44H109.62L106.11 335.89H105.01L101.5 326.44H102.89L105.37 333.44Z" fill="#D3BB8C"/>
<path d="M116.07 331.54H112.19V334.92H116.73V335.92H110.91V326.47H116.66V327.47H112.19V330.53H116.07V331.54Z" fill="#D3BB8C"/>
<path d="M125.39 335.92H124.11L119.56 328.7V335.91H118.28V326.46H119.56L124.11 333.67V326.47H125.39V335.92Z" fill="#D3BB8C"/>
<path d="M134 327.47H130.89V335.92H129.61V327.47H126.53V326.47H134V327.47Z" fill="#D3BB8C"/>
<path d="M142.4 332C142.419 332.525 142.334 333.049 142.151 333.541C141.967 334.034 141.688 334.485 141.33 334.87C140.972 335.247 140.538 335.543 140.057 335.74C139.576 335.936 139.059 336.028 138.54 336.01C138.036 336.028 137.533 335.936 137.068 335.739C136.604 335.542 136.188 335.245 135.85 334.87C135.163 334.076 134.805 333.049 134.85 332V330.32C134.805 329.268 135.162 328.238 135.85 327.44C136.186 327.062 136.601 326.763 137.066 326.564C137.531 326.365 138.035 326.272 138.54 326.29C139.06 326.271 139.578 326.364 140.06 326.562C140.541 326.761 140.974 327.06 141.33 327.44C142.05 328.223 142.434 329.257 142.4 330.32V332ZM141.12 330.3C141.151 329.529 140.903 328.772 140.42 328.17C140.19 327.898 139.902 327.681 139.576 327.538C139.25 327.394 138.896 327.326 138.54 327.34C138.199 327.328 137.86 327.397 137.55 327.541C137.241 327.685 136.97 327.901 136.76 328.17C136.295 328.78 136.058 329.534 136.09 330.3V332C136.057 332.77 136.294 333.527 136.76 334.14C136.97 334.409 137.241 334.625 137.55 334.769C137.86 334.913 138.199 334.982 138.54 334.97C138.896 334.985 139.251 334.917 139.576 334.773C139.902 334.63 140.191 334.413 140.42 334.14C140.906 333.535 141.155 332.775 141.12 332V330.3Z" fill="#D3BB8C"/>
<path d="M151.39 335.92H150.11L145.56 328.7V335.91H144.28V326.46H145.56L150.11 333.67V326.47H151.39V335.92Z" fill="#D3BB8C"/>
<path d="M158.64 333.54C158.645 333.338 158.607 333.136 158.528 332.95C158.448 332.763 158.33 332.596 158.18 332.46C157.706 332.089 157.151 331.836 156.56 331.72C155.739 331.547 154.97 331.188 154.31 330.67C154.052 330.458 153.845 330.191 153.705 329.888C153.565 329.585 153.495 329.254 153.5 328.92C153.495 328.566 153.57 328.215 153.721 327.895C153.872 327.574 154.094 327.292 154.37 327.07C155.009 326.558 155.812 326.295 156.63 326.33C157.063 326.308 157.496 326.371 157.905 326.517C158.313 326.663 158.689 326.888 159.01 327.18C159.293 327.429 159.516 327.737 159.665 328.083C159.814 328.429 159.884 328.804 159.87 329.18H158.65C158.655 328.931 158.608 328.685 158.512 328.455C158.415 328.226 158.271 328.02 158.09 327.85C157.896 327.673 157.669 327.536 157.422 327.447C157.175 327.358 156.912 327.318 156.65 327.33C156.155 327.293 155.665 327.447 155.28 327.76C155.123 327.902 154.998 328.077 154.915 328.272C154.832 328.467 154.793 328.678 154.8 328.89C154.802 329.086 154.851 329.278 154.941 329.452C155.031 329.626 155.161 329.776 155.32 329.89C155.835 330.237 156.412 330.482 157.02 330.61C157.825 330.782 158.572 331.157 159.19 331.7C159.432 331.928 159.624 332.204 159.754 332.511C159.883 332.817 159.946 333.147 159.94 333.48C159.95 333.837 159.873 334.19 159.716 334.511C159.559 334.831 159.327 335.109 159.04 335.32C158.356 335.807 157.528 336.05 156.69 336.01C155.826 336.024 154.98 335.757 154.28 335.25C153.952 335.022 153.688 334.714 153.513 334.355C153.338 333.996 153.258 333.599 153.28 333.2H154.5C154.489 333.467 154.546 333.733 154.664 333.972C154.783 334.212 154.961 334.417 155.18 334.57C155.623 334.887 156.155 335.055 156.7 335.05C157.211 335.081 157.718 334.94 158.14 334.65C158.304 334.517 158.434 334.347 158.521 334.154C158.608 333.961 158.649 333.751 158.64 333.54Z" fill="#D3BB8C"/>
<path d="M166.32 334.92H170.92V335.92H165V326.47H166.28L166.32 334.92Z" fill="#D3BB8C"/>
<path d="M177.35 333.48H173.79L172.95 335.92H171.64L175.05 326.47H176.15L179.49 335.92H178.18L177.35 333.48ZM174.16 332.41H177L175.62 328.36L174.16 332.41Z" fill="#D3BB8C"/>
<path d="M191 334.65C190.706 335.082 190.302 335.427 189.83 335.65C189.157 335.972 188.415 336.123 187.67 336.09C187.168 336.106 186.669 336.018 186.202 335.833C185.736 335.647 185.313 335.367 184.96 335.01C184.603 334.639 184.324 334.2 184.14 333.719C183.956 333.238 183.871 332.725 183.89 332.21V330.26C183.839 329.228 184.199 328.218 184.89 327.45C185.233 327.094 185.647 326.813 186.105 326.627C186.564 326.441 187.056 326.354 187.55 326.37C188.46 326.321 189.354 326.621 190.05 327.21C190.347 327.479 190.581 327.811 190.734 328.18C190.888 328.55 190.958 328.95 190.94 329.35H189.71C189.718 329.086 189.674 328.822 189.579 328.575C189.485 328.328 189.342 328.102 189.16 327.91C188.686 327.503 188.069 327.299 187.446 327.344C186.822 327.389 186.241 327.679 185.83 328.15C185.365 328.733 185.127 329.465 185.16 330.21V332.21C185.128 332.965 185.381 333.704 185.87 334.28C186.088 334.542 186.362 334.75 186.672 334.891C186.982 335.031 187.32 335.099 187.66 335.09C188.11 335.108 188.558 335.037 188.98 334.88C189.262 334.769 189.513 334.591 189.71 334.36V332.23H187.57V331.23H191V334.65Z" fill="#D3BB8C"/>
<path d="M198.34 331.54H194.46V334.92H199V335.92H193.18V326.47H198.93V327.47H194.46V330.53H198.34V331.54Z" fill="#D3BB8C"/>
<path d="M205.55 333.54C205.555 333.337 205.517 333.136 205.438 332.95C205.358 332.763 205.24 332.596 205.09 332.46C204.617 332.087 204.061 331.834 203.47 331.72C202.65 331.547 201.88 331.187 201.22 330.67C200.962 330.458 200.755 330.19 200.615 329.887C200.475 329.584 200.405 329.254 200.41 328.92C200.405 328.566 200.481 328.215 200.631 327.894C200.782 327.574 201.004 327.292 201.28 327.07C201.92 326.559 202.722 326.296 203.54 326.33C203.973 326.307 204.407 326.37 204.816 326.516C205.224 326.662 205.6 326.887 205.92 327.18C206.203 327.429 206.426 327.737 206.575 328.083C206.724 328.429 206.794 328.804 206.78 329.18H205.56C205.565 328.931 205.518 328.684 205.422 328.455C205.325 328.226 205.182 328.02 205 327.85C204.806 327.673 204.579 327.536 204.332 327.447C204.085 327.357 203.823 327.318 203.56 327.33C203.066 327.299 202.578 327.452 202.19 327.76C202.033 327.902 201.908 328.077 201.826 328.272C201.743 328.467 201.703 328.678 201.71 328.89C201.715 329.085 201.764 329.277 201.854 329.45C201.944 329.624 202.073 329.774 202.23 329.89C202.745 330.237 203.322 330.481 203.93 330.61C204.737 330.784 205.487 331.159 206.11 331.7C206.349 331.93 206.538 332.206 206.666 332.513C206.793 332.819 206.856 333.148 206.85 333.48C206.86 333.836 206.783 334.19 206.626 334.51C206.469 334.831 206.237 335.109 205.95 335.32C205.269 335.805 204.445 336.048 203.61 336.01C202.742 336.026 201.893 335.759 201.19 335.25C200.862 335.022 200.598 334.714 200.423 334.355C200.248 333.996 200.168 333.599 200.19 333.2H201.41C201.397 333.466 201.452 333.732 201.569 333.971C201.686 334.211 201.862 334.417 202.08 334.57C202.526 334.888 203.062 335.056 203.61 335.05C204.118 335.079 204.621 334.938 205.04 334.65C205.208 334.519 205.341 334.35 205.43 334.157C205.519 333.964 205.56 333.752 205.55 333.54Z" fill="#D3BB8C"/>
<path d="M215.25 327.47H212.14V335.92H210.86V327.47H207.78V326.47H215.25V327.47Z" fill="#D3BB8C"/>
<path d="M218 335.92H216.72V326.47H218V335.92Z" fill="#D3BB8C"/>
<path d="M227.57 332C227.589 332.525 227.504 333.049 227.321 333.541C227.137 334.034 226.858 334.485 226.5 334.87C226.142 335.247 225.708 335.543 225.227 335.74C224.746 335.936 224.229 336.028 223.71 336.01C223.206 336.027 222.704 335.934 222.239 335.737C221.775 335.54 221.358 335.244 221.02 334.87C220.333 334.076 219.975 333.049 220.02 332V330.32C219.975 329.268 220.332 328.238 221.02 327.44C221.356 327.062 221.772 326.764 222.237 326.565C222.702 326.366 223.205 326.272 223.71 326.29C224.23 326.271 224.748 326.364 225.23 326.562C225.711 326.761 226.144 327.06 226.5 327.44C227.22 328.223 227.604 329.257 227.57 330.32V332ZM226.29 330.3C226.321 329.529 226.072 328.772 225.59 328.17C225.36 327.898 225.072 327.681 224.746 327.538C224.42 327.394 224.066 327.326 223.71 327.34C223.369 327.329 223.03 327.398 222.721 327.542C222.411 327.686 222.14 327.901 221.93 328.17C221.465 328.78 221.228 329.534 221.26 330.3V332C221.227 332.77 221.464 333.527 221.93 334.14C222.14 334.409 222.411 334.624 222.721 334.768C223.03 334.912 223.369 334.981 223.71 334.97C224.067 334.984 224.423 334.916 224.75 334.773C225.078 334.629 225.368 334.413 225.6 334.14C226.078 333.532 226.323 332.773 226.29 332V330.3Z" fill="#D3BB8C"/>
<path d="M236.56 335.92H235.28L230.73 328.7V335.91H229.45V326.46H230.73L235.27 333.67V326.47H236.55L236.56 335.92Z" fill="#D3BB8C"/>
<path d="M242.08 335.92V326.47H245.08C245.626 326.438 246.171 326.522 246.682 326.716C247.193 326.909 247.658 327.208 248.046 327.593C248.433 327.978 248.736 328.44 248.933 328.95C249.13 329.459 249.218 330.004 249.19 330.55V331.84C249.219 332.386 249.133 332.932 248.936 333.442C248.739 333.953 248.437 334.416 248.049 334.801C247.661 335.186 247.196 335.485 246.684 335.678C246.173 335.871 245.626 335.953 245.08 335.92H242.08ZM243.36 327.47V334.92H245.05C245.437 334.939 245.824 334.872 246.182 334.724C246.54 334.575 246.861 334.348 247.12 334.06C247.642 333.441 247.913 332.649 247.88 331.84V330.54C247.914 329.737 247.642 328.951 247.12 328.34C246.862 328.049 246.543 327.82 246.184 327.669C245.826 327.518 245.438 327.45 245.05 327.47H243.36Z" fill="#D3BB8C"/>
<path d="M256.24 331.54H252.36V334.92H256.91V335.92H251.08V326.47H256.84V327.47H252.36V330.53H256.24V331.54Z" fill="#D3BB8C"/>
<path d="M263 332.13V335.92H261.72V326.47H265.34C266.195 326.417 267.037 326.697 267.69 327.25C268.229 327.796 268.531 328.533 268.531 329.3C268.531 330.067 268.229 330.804 267.69 331.35C267.037 331.903 266.195 332.183 265.34 332.13H263ZM263 331.13H265.34C265.59 331.156 265.842 331.128 266.08 331.048C266.317 330.967 266.535 330.835 266.716 330.662C266.898 330.489 267.04 330.278 267.132 330.045C267.224 329.811 267.264 329.561 267.25 329.31C267.265 328.828 267.093 328.358 266.77 328C266.584 327.814 266.36 327.67 266.113 327.579C265.866 327.487 265.602 327.45 265.34 327.47H263V331.13Z" fill="#D3BB8C"/>
<path d="M274.16 333.48H270.6L269.76 335.92H268.46L271.86 326.47H273L276.34 335.92H275L274.16 333.48ZM271 332.41H273.83L272.45 328.36L271 332.41Z" fill="#D3BB8C"/>
<path d="M283.46 327.47H280.34V335.92H279.06V327.47H276V326.47H283.48L283.46 327.47Z" fill="#D3BB8C"/>
<path d="M286.08 331.82V335.92H284.8V326.47H288C288.847 326.41 289.688 326.655 290.37 327.16C290.65 327.409 290.869 327.718 291.012 328.065C291.154 328.412 291.215 328.786 291.19 329.16C291.199 329.613 291.066 330.057 290.81 330.43C290.528 330.813 290.143 331.108 289.7 331.28C290.159 331.411 290.557 331.702 290.82 332.1C291.061 332.53 291.178 333.018 291.16 333.51V334.4C291.16 334.666 291.194 334.932 291.26 335.19C291.32 335.407 291.438 335.604 291.6 335.76V335.92H290.28C290.096 335.751 289.982 335.519 289.96 335.27C289.908 334.979 289.881 334.685 289.88 334.39V333.52C289.892 333.296 289.859 333.072 289.784 332.861C289.708 332.65 289.591 332.456 289.44 332.29C289.284 332.133 289.096 332.01 288.889 331.929C288.683 331.848 288.462 331.811 288.24 331.82H286.08ZM286.08 330.82H287.9C288.454 330.872 289.008 330.723 289.46 330.4C289.628 330.241 289.759 330.046 289.842 329.829C289.925 329.613 289.959 329.381 289.94 329.15C289.955 328.923 289.922 328.695 289.842 328.481C289.763 328.267 289.64 328.073 289.48 327.91C289.07 327.584 288.552 327.427 288.03 327.47H286.08V330.82Z" fill="#D3BB8C"/>
<path d="M294.67 335.92H293.39V326.47H294.67V335.92Z" fill="#D3BB8C"/>
<path d="M301.7 334.15L304.7 326.47H306.29V335.92H305.01V328.84L302.15 335.93H301.26L298.31 328.61V335.93H297V326.48H298.68L301.7 334.15Z" fill="#D3BB8C"/>
<path d="M315.78 332C315.799 332.525 315.714 333.049 315.531 333.541C315.347 334.034 315.068 334.485 314.71 334.87C314.352 335.247 313.918 335.543 313.437 335.74C312.956 335.936 312.439 336.028 311.92 336.01C311.416 336.027 310.914 335.934 310.449 335.737C309.985 335.54 309.569 335.244 309.23 334.87C308.543 334.076 308.185 333.049 308.23 332V330.32C308.185 329.268 308.542 328.238 309.23 327.44C309.566 327.062 309.982 326.764 310.447 326.565C310.912 326.366 311.415 326.272 311.92 326.29C312.44 326.271 312.958 326.364 313.44 326.562C313.921 326.761 314.354 327.06 314.71 327.44C315.069 327.826 315.349 328.279 315.533 328.773C315.716 329.267 315.8 329.793 315.78 330.32V332ZM314.5 330.3C314.531 329.529 314.283 328.772 313.8 328.17C313.571 327.897 313.282 327.68 312.956 327.537C312.631 327.393 312.276 327.325 311.92 327.34C311.579 327.329 311.24 327.398 310.931 327.542C310.621 327.686 310.351 327.901 310.14 328.17C309.68 328.783 309.443 329.534 309.47 330.3V332C309.442 332.769 309.678 333.524 310.14 334.14C310.351 334.409 310.621 334.624 310.931 334.768C311.24 334.912 311.579 334.981 311.92 334.97C312.277 334.984 312.633 334.916 312.961 334.773C313.288 334.629 313.578 334.413 313.81 334.14C314.288 333.532 314.533 332.773 314.5 332V330.3Z" fill="#D3BB8C"/>
<path d="M319 335.92H317.72V326.47H319V335.92Z" fill="#D3BB8C"/>
</svg>
