<svg width="337" height="337" viewBox="0 0 337 337" fill="none" xmlns="http://www.w3.org/2000/svg">
<path d="M112.37 253.28V119.46L50.99 180.84V253.28H0.420044" stroke="white" stroke-width="2.76" stroke-miterlimit="10"/>
<path d="M89.05 253.28V86.3099H161.48V253.28" stroke="white" stroke-width="2.76" stroke-miterlimit="10"/>
<path d="M216.66 253.28V29.84H182.47V1.59998H175.1H142.99V28.61V253.28" stroke="white" stroke-width="2.76" stroke-miterlimit="10"/>
<path d="M230.23 253.28V175.93H281.8V253.28H335.09" stroke="white" stroke-width="2.76" stroke-miterlimit="10"/>
<path d="M202.33 253.28V70.0599L265.56 131.53V309.01" stroke="#1C3661" stroke-width="2.76" stroke-miterlimit="10"/>
<path d="M55.9799 287.52C56.2099 297.66 49.71 307.92 35.74 307.92H22.23V268H35.76C49.25 268 55.7599 277.71 55.9799 287.52ZM25.31 270.93V304.93H35.76C47.62 304.93 53.09 296.04 52.92 287.49C52.75 279.16 47.28 270.9 35.76 270.9L25.31 270.93Z" fill="#1C3661"/>
<path d="M75.52 286.43H98.9V289.23H75.52V305H100.76V308H72.5V268H100.04V270.91H75.52V286.43Z" fill="#1C3661"/>
<path d="M151.91 272.47L136.63 295.84H135.63L120.24 272.47V307.92H117.16V268H120.76L136.04 291.26L151.17 268H154.93V307.9H151.93L151.91 272.47Z" fill="#1C3661"/>
<path d="M176.3 286.43H199.67V289.23H176.3V305H201.5V308H173.28V268H200.81V270.91H176.3V286.43Z" fill="#1C3661"/>
<path d="M231.53 270.81H217.11V268.08H249.03V270.81H234.61V307.92H231.53V270.81Z" fill="#1C3661"/>
<path d="M312.87 275.72C309.96 271.04 305.29 270.36 300.79 270.3C296.11 270.3 288.7 272.01 288.7 278.4C288.7 283.47 294.17 284.67 300.9 285.92C308.6 287.4 316.58 288.77 316.58 297.38C316.52 306.38 307.46 308.55 300.79 308.55C294.57 308.55 287.5 305.99 284.43 299.89L287.16 298.52C289.61 303.36 295.88 305.76 300.79 305.76C305.7 305.76 313.5 304.39 313.5 297.32C313.56 291.32 306.94 290.02 300.39 288.77C293.09 287.35 285.62 285.86 285.62 278.51C285.45 270.07 294.23 267.45 300.79 267.45C306.49 267.45 311.45 268.36 315.38 274.23L312.87 275.72Z" fill="#1C3661"/>
<path d="M6.24008 330.86H2.36008V334.24H6.91006V335.24H1.08008V325.79H6.84006V326.79H2.36008V329.84H6.24008V330.86Z" fill="white"/>
<path d="M15.57 335.24H14.29L9.75998 328V335.2H8.47998V325.75H9.75998L14.31 332.96V325.76H15.59L15.57 335.24Z" fill="white"/>
<path d="M22.82 332.86C22.8228 332.658 22.7834 332.457 22.7042 332.271C22.6249 332.085 22.5077 331.918 22.36 331.78C21.8955 331.398 21.3473 331.13 20.76 331C19.9438 330.842 19.1744 330.5 18.51 330C18.2544 329.786 18.05 329.518 17.9115 329.216C17.7731 328.913 17.7042 328.583 17.71 328.25C17.7056 327.896 17.7816 327.545 17.9323 327.225C18.083 326.904 18.3044 326.622 18.58 326.4C19.2157 325.889 20.0152 325.626 20.83 325.66C21.2632 325.637 21.6968 325.7 22.1054 325.846C22.514 325.992 22.8895 326.217 23.21 326.51C23.4921 326.759 23.7154 327.068 23.8641 327.414C24.0128 327.759 24.0831 328.134 24.07 328.51H22.76C22.768 328.26 22.7222 328.01 22.6256 327.779C22.5289 327.548 22.3838 327.34 22.2 327.17C22.0059 326.993 21.7788 326.856 21.5317 326.767C21.2846 326.678 21.0224 326.638 20.76 326.65C20.2658 326.619 19.7777 326.772 19.39 327.08C19.234 327.223 19.1111 327.398 19.0299 327.593C18.9487 327.788 18.9112 327.999 18.92 328.21C18.9223 328.406 18.9706 328.598 19.0609 328.772C19.1512 328.946 19.281 329.096 19.44 329.21C19.9503 329.561 20.5244 329.809 21.13 329.94C21.9391 330.108 22.6905 330.483 23.31 331.03C23.5535 331.257 23.7462 331.533 23.8754 331.84C24.0047 332.147 24.0676 332.477 24.06 332.81C24.0696 333.165 23.9928 333.517 23.836 333.836C23.6792 334.155 23.4472 334.431 23.16 334.64C22.4772 335.13 21.6496 335.377 20.81 335.34C19.9411 335.353 19.0916 335.083 18.39 334.57C18.0594 334.345 17.7933 334.037 17.618 333.678C17.4426 333.318 17.364 332.919 17.39 332.52H18.61C18.597 332.786 18.6516 333.052 18.7687 333.291C18.8859 333.531 19.0618 333.737 19.28 333.89C19.7235 334.215 20.2604 334.386 20.81 334.38C21.3223 334.408 21.8291 334.263 22.25 333.97C22.4285 333.846 22.5738 333.68 22.6732 333.486C22.7726 333.292 22.823 333.077 22.82 332.86Z" fill="white"/>
<path d="M31.0699 330.86H27.1899V334.24H31.7599V335.24H25.9399V325.79H31.6899V326.79H27.2199V329.84H31.0999L31.0699 330.86Z" fill="white"/>
<path d="M37.93 333.47L40.93 325.79H42.52V335.24H41.24V328.16L38.38 335.25H37.49L34.54 327.93V335.25H33.26V325.8H34.94L37.93 333.47Z" fill="white"/>
<path d="M44.76 335.24V325.79H47.84C48.6629 325.74 49.479 325.965 50.16 326.43C50.4453 326.658 50.6709 326.952 50.8172 327.286C50.9635 327.621 51.0263 327.986 51 328.35C51.0011 328.746 50.867 329.13 50.62 329.44C50.3585 329.771 50.0133 330.027 49.62 330.18C49.9059 330.209 50.1833 330.294 50.4357 330.432C50.6881 330.569 50.9105 330.755 51.09 330.98C51.4502 331.431 51.6412 331.993 51.63 332.57C51.6553 332.946 51.5925 333.322 51.4467 333.669C51.3008 334.016 51.076 334.325 50.79 334.57C50.1313 335.053 49.3257 335.293 48.51 335.25L44.76 335.24ZM46.04 329.81H48.11C48.5337 329.831 48.9492 329.687 49.27 329.41C49.4173 329.264 49.5341 329.09 49.6139 328.899C49.6937 328.708 49.7347 328.502 49.7347 328.295C49.7347 328.088 49.6937 327.882 49.6139 327.691C49.5341 327.5 49.4173 327.326 49.27 327.18C48.8597 326.899 48.3662 326.765 47.87 326.8H46.07L46.04 329.81ZM46.04 330.81V334.24H48.51C49.0008 334.269 49.4849 334.116 49.87 333.81C50.0332 333.653 50.1606 333.463 50.2435 333.252C50.3263 333.042 50.3627 332.816 50.35 332.59C50.3591 332.356 50.3203 332.123 50.236 331.904C50.1518 331.686 50.0238 331.487 49.86 331.32C49.4917 330.99 49.0144 330.808 48.52 330.81H46.04Z" fill="white"/>
<path d="M54.52 334.24H59.13V335.24H53.24V325.79H54.52V334.24Z" fill="white"/>
<path d="M65.7601 330.86H61.8801V334.24H66.42V335.24H60.6001V325.79H66.3501V326.79H61.8801V329.84H65.7601V330.86Z" fill="white"/>
<path d="M68.8301 334.93L67.8301 336.93H67.0701L67.5301 334.87V333.82H68.8101L68.8301 334.93Z" fill="white"/>
<path d="M75.0901 331.14V335.24H73.8101V325.8H77.05C77.8926 325.739 78.7294 325.98 79.4101 326.48C79.69 326.729 79.9094 327.038 80.0515 327.385C80.1936 327.732 80.2547 328.106 80.23 328.48C80.2438 328.933 80.1106 329.379 79.8501 329.75C79.568 330.131 79.1878 330.428 78.7501 330.61C79.2135 330.732 79.6135 331.025 79.8701 331.43C80.1062 331.858 80.2237 332.341 80.2101 332.83V333.72C80.2063 333.986 80.2365 334.252 80.3 334.51C80.3554 334.729 80.4736 334.927 80.6401 335.08V335.24H79.3201C79.1404 335.068 79.0271 334.837 79.0001 334.59C78.9511 334.299 78.9277 334.005 78.9301 333.71V332.85C78.9414 332.624 78.9075 332.397 78.8303 332.184C78.753 331.972 78.6339 331.776 78.48 331.61C78.3235 331.453 78.1361 331.33 77.9295 331.249C77.7229 331.168 77.5018 331.131 77.2801 331.14H75.0901ZM75.0901 330.14H76.92C77.4717 330.187 78.0226 330.042 78.48 329.73C78.6446 329.566 78.7718 329.369 78.8529 329.151C78.934 328.934 78.9672 328.701 78.9501 328.47C78.9637 328.243 78.9298 328.015 78.8506 327.801C78.7714 327.588 78.6486 327.393 78.4901 327.23C78.0842 326.905 77.5677 326.751 77.05 326.8H75.05L75.0901 330.14Z" fill="white"/>
<path d="M87.43 330.86H83.55V334.24H88.09V335.24H82.27V325.79H88.02V326.79H83.55V329.84H87.43V330.86ZM85.76 323.15H87.26L85.51 324.83H84.51L85.76 323.15Z" fill="white"/>
<path d="M91.02 335.24H89.76V325.79H91.04L91.02 335.24Z" fill="white"/>
<path d="M100.51 335.24H99.23L94.68 328V335.2H93.36V325.75H94.64L99.19 332.96V325.76H100.47L100.51 335.24Z" fill="white"/>
<path d="M105.59 332.76L105.81 333.55L106.02 332.76L108.46 325.76H109.84L106.33 335.21H105.24L101.76 325.79H103.15L105.59 332.76Z" fill="white"/>
<path d="M116.29 330.86H112.41V334.24H116.95V335.24H111.13V325.79H116.88V326.79H112.41V329.84H116.29V330.86Z" fill="white"/>
<path d="M125.61 335.24H124.33L119.76 328V335.2H118.46V325.75H119.76L124.31 332.96V325.76H125.59L125.61 335.24Z" fill="white"/>
<path d="M134.25 326.8H131.13V335.24H129.85V326.8H126.76V325.8H134.24L134.25 326.8Z" fill="white"/>
<path d="M142.63 331.36C142.648 331.886 142.561 332.41 142.376 332.903C142.191 333.395 141.91 333.846 141.55 334.23C141.195 334.611 140.762 334.91 140.28 335.109C139.799 335.307 139.28 335.4 138.76 335.38C138.255 335.398 137.752 335.304 137.287 335.105C136.822 334.906 136.406 334.608 136.07 334.23C135.382 333.436 135.024 332.409 135.07 331.36V329.68C135.026 328.628 135.383 327.598 136.07 326.8C136.408 326.424 136.824 326.127 137.288 325.929C137.753 325.73 138.255 325.635 138.76 325.65C139.28 325.63 139.799 325.723 140.28 325.921C140.762 326.12 141.195 326.419 141.55 326.8C141.911 327.185 142.193 327.638 142.378 328.132C142.563 328.626 142.649 329.152 142.63 329.68V331.36ZM141.35 329.66C141.38 328.89 141.127 328.136 140.64 327.54C140.413 327.264 140.125 327.045 139.799 326.899C139.473 326.753 139.117 326.685 138.76 326.7C138.418 326.688 138.078 326.758 137.768 326.904C137.459 327.05 137.188 327.268 136.98 327.54C136.521 328.149 136.288 328.898 136.32 329.66V331.36C136.286 332.128 136.52 332.884 136.98 333.5C137.191 333.769 137.462 333.984 137.771 334.128C138.08 334.272 138.419 334.341 138.76 334.33C139.118 334.346 139.474 334.28 139.802 334.136C140.13 333.992 140.42 333.774 140.65 333.5C141.133 332.894 141.382 332.134 141.35 331.36V329.66Z" fill="white"/>
<path d="M151.62 335.24H150.34L145.76 328V335.2H144.48V325.75H145.76L150.31 332.96V325.76H151.59L151.62 335.24Z" fill="white"/>
<path d="M158.87 332.86C158.873 332.657 158.833 332.455 158.752 332.269C158.671 332.083 158.551 331.916 158.4 331.78C157.926 331.388 157.363 331.12 156.76 331C155.944 330.842 155.174 330.5 154.51 330C154.251 329.788 154.044 329.521 153.904 329.218C153.764 328.915 153.694 328.584 153.7 328.25C153.696 327.896 153.772 327.545 153.922 327.225C154.073 326.904 154.294 326.622 154.57 326.4C155.21 325.889 156.012 325.627 156.83 325.66C157.263 325.637 157.697 325.7 158.105 325.846C158.514 325.992 158.89 326.217 159.21 326.51C159.492 326.759 159.715 327.068 159.864 327.414C160.013 327.759 160.083 328.134 160.07 328.51H158.85C158.858 328.26 158.812 328.01 158.716 327.779C158.619 327.548 158.474 327.34 158.29 327.17C158.096 326.993 157.869 326.856 157.622 326.767C157.375 326.678 157.112 326.638 156.85 326.65C156.356 326.619 155.868 326.772 155.48 327.08C155.323 327.222 155.198 327.397 155.115 327.592C155.033 327.787 154.993 327.998 155 328.21C155.004 328.406 155.054 328.599 155.146 328.773C155.238 328.946 155.37 329.096 155.53 329.21C156.039 329.563 156.614 329.811 157.22 329.94C158.029 330.108 158.78 330.483 159.4 331.03C159.64 331.259 159.83 331.536 159.957 331.842C160.085 332.149 160.147 332.478 160.14 332.81C160.15 333.165 160.073 333.517 159.916 333.836C159.759 334.155 159.527 334.431 159.24 334.64C158.561 335.13 157.737 335.377 156.9 335.34C156.031 335.353 155.182 335.083 154.48 334.57C154.152 334.343 153.887 334.035 153.712 333.676C153.537 333.317 153.457 332.919 153.48 332.52H154.7C154.687 332.786 154.742 333.052 154.859 333.291C154.976 333.531 155.152 333.737 155.37 333.89C155.813 334.216 156.35 334.388 156.9 334.38C157.412 334.405 157.918 334.261 158.34 333.97C158.511 333.841 158.649 333.673 158.741 333.48C158.833 333.287 158.878 333.074 158.87 332.86Z" fill="white"/>
<path d="M166.54 334.24H171.15V335.24H165.26V325.79H166.54V334.24Z" fill="white"/>
<path d="M177.57 332.81H174.02L173.17 335.24H171.87L175.28 325.79H176.37L179.71 335.24H178.4L177.57 332.81ZM174.39 331.74H177.21L175.83 327.68L174.39 331.74Z" fill="white"/>
<path d="M191.2 334C190.898 334.424 190.496 334.767 190.03 335C189.352 335.317 188.608 335.468 187.86 335.44C187.358 335.455 186.857 335.366 186.391 335.179C185.925 334.991 185.502 334.709 185.15 334.35C184.792 333.979 184.513 333.54 184.329 333.059C184.145 332.578 184.06 332.065 184.08 331.55V329.55C184.054 329.04 184.13 328.531 184.301 328.05C184.473 327.57 184.737 327.128 185.08 326.75C185.42 326.389 185.833 326.105 186.292 325.917C186.751 325.729 187.245 325.641 187.74 325.66C188.647 325.61 189.539 325.911 190.23 326.5C190.528 326.768 190.762 327.099 190.916 327.47C191.07 327.84 191.14 328.24 191.12 328.64H189.89C189.897 328.375 189.851 328.111 189.755 327.864C189.659 327.617 189.514 327.391 189.33 327.2C189.12 327.002 188.871 326.849 188.599 326.751C188.327 326.653 188.038 326.612 187.75 326.63C187.415 326.619 187.083 326.686 186.779 326.827C186.475 326.967 186.208 327.177 186 327.44C185.545 328.028 185.311 328.757 185.34 329.5V331.5C185.305 332.253 185.555 332.993 186.04 333.57C186.256 333.834 186.53 334.045 186.84 334.187C187.15 334.329 187.489 334.399 187.83 334.39C188.284 334.405 188.736 334.33 189.16 334.17C189.441 334.056 189.691 333.878 189.89 333.65V331.52H187.76V330.52H191.18L191.2 334Z" fill="white"/>
<path d="M198.57 330.86H194.68V334.24H199.23V335.24H193.41V325.79H199.16V326.79H194.68V329.84H198.57V330.86Z" fill="white"/>
<path d="M205.76 332.86C205.763 332.658 205.723 332.457 205.644 332.271C205.565 332.085 205.448 331.918 205.3 331.78C204.823 331.408 204.264 331.154 203.67 331.04C202.854 330.882 202.084 330.54 201.42 330.04C201.164 329.826 200.96 329.558 200.822 329.256C200.683 328.953 200.614 328.623 200.62 328.29C200.616 327.936 200.692 327.585 200.842 327.265C200.993 326.944 201.214 326.662 201.49 326.44C202.129 325.928 202.932 325.665 203.75 325.7C204.182 325.677 204.613 325.741 205.02 325.887C205.427 326.033 205.801 326.258 206.12 326.55C206.404 326.798 206.628 327.106 206.777 327.452C206.926 327.798 206.995 328.173 206.98 328.55H205.76C205.768 328.299 205.722 328.05 205.626 327.819C205.529 327.588 205.384 327.38 205.2 327.21C204.806 326.889 204.318 326.707 203.81 326.691C203.303 326.675 202.804 326.825 202.39 327.12C202.234 327.263 202.111 327.438 202.03 327.633C201.949 327.828 201.911 328.039 201.92 328.25C201.922 328.446 201.971 328.638 202.061 328.812C202.151 328.986 202.281 329.136 202.44 329.25C202.95 329.601 203.524 329.849 204.13 329.98C204.939 330.147 205.69 330.523 206.31 331.07C206.553 331.297 206.746 331.573 206.875 331.88C207.005 332.186 207.068 332.517 207.06 332.85C207.07 333.205 206.993 333.557 206.836 333.876C206.679 334.195 206.447 334.471 206.16 334.68C205.477 335.17 204.65 335.417 203.81 335.38C202.941 335.393 202.092 335.123 201.39 334.61C201.059 334.385 200.793 334.077 200.618 333.718C200.443 333.358 200.364 332.959 200.39 332.56H201.61C201.596 332.827 201.651 333.094 201.771 333.334C201.89 333.574 202.069 333.779 202.29 333.93C202.729 334.256 203.263 334.428 203.81 334.42C204.322 334.448 204.829 334.303 205.25 334.01C205.423 333.875 205.561 333.7 205.65 333.499C205.739 333.298 205.776 333.079 205.76 332.86Z" fill="white"/>
<path d="M215.48 326.8H212.36V335.24H211.08V326.8H208V325.8H215.48V326.8Z" fill="white"/>
<path d="M218.23 335.24H216.95V325.79H218.23V335.24Z" fill="white"/>
<path d="M227.76 331.36C227.778 331.886 227.691 332.41 227.506 332.903C227.321 333.395 227.04 333.846 226.68 334.23C226.325 334.612 225.892 334.912 225.411 335.11C224.929 335.309 224.41 335.401 223.89 335.38C223.385 335.398 222.882 335.304 222.417 335.105C221.952 334.906 221.536 334.608 221.2 334.23C220.512 333.436 220.154 332.409 220.2 331.36V329.68C220.156 328.628 220.513 327.598 221.2 326.8C221.538 326.424 221.954 326.127 222.418 325.929C222.883 325.73 223.385 325.635 223.89 325.65C224.424 325.617 224.958 325.703 225.454 325.902C225.951 326.101 226.397 326.408 226.76 326.8C227.121 327.185 227.402 327.638 227.588 328.132C227.773 328.626 227.859 329.152 227.84 329.68L227.76 331.36ZM226.48 329.66C226.509 328.892 226.26 328.14 225.78 327.54C225.55 327.264 225.26 327.045 224.933 326.9C224.605 326.754 224.248 326.686 223.89 326.7C223.548 326.69 223.209 326.76 222.899 326.906C222.59 327.052 222.319 327.269 222.11 327.54C221.651 328.149 221.418 328.898 221.45 329.66V331.36C221.416 332.128 221.649 332.884 222.11 333.5C222.322 333.767 222.593 333.982 222.902 334.126C223.211 334.27 223.549 334.34 223.89 334.33C224.248 334.347 224.604 334.281 224.932 334.137C225.26 333.993 225.55 333.775 225.78 333.5C226.267 332.896 226.516 332.135 226.48 331.36V329.66Z" fill="white"/>
<path d="M236.76 335.24H235.48L230.96 328V335.2H229.68V325.75H230.96L235.51 332.96V325.76H236.76V335.24Z" fill="white"/>
<path d="M242.3 335.24V325.79H245.3C245.845 325.76 246.39 325.845 246.899 326.039C247.409 326.233 247.872 326.532 248.259 326.917C248.646 327.301 248.947 327.763 249.144 328.272C249.34 328.781 249.428 329.325 249.4 329.87V331.16C249.429 331.705 249.343 332.25 249.147 332.76C248.951 333.269 248.649 333.732 248.262 334.117C247.875 334.502 247.412 334.801 246.901 334.995C246.391 335.188 245.845 335.272 245.3 335.24H242.3ZM243.58 326.8V334.24H245.28C245.666 334.258 246.05 334.19 246.407 334.041C246.763 333.893 247.082 333.667 247.34 333.38C247.862 332.761 248.133 331.969 248.1 331.16V329.86C248.134 329.057 247.862 328.271 247.34 327.66C247.083 327.371 246.765 327.143 246.408 326.995C246.052 326.846 245.666 326.779 245.28 326.8H243.58Z" fill="white"/>
<path d="M256.47 330.86H252.59V334.24H257.13V335.24H251.31V325.79H257.06V326.79H252.59V329.84H256.47V330.86Z" fill="white"/>
<path d="M263.23 331.45V335.24H261.95V325.79H265.56C266.418 325.737 267.263 326.016 267.92 326.57C268.459 327.118 268.761 327.856 268.761 328.625C268.761 329.394 268.459 330.132 267.92 330.68C267.259 331.226 266.416 331.501 265.56 331.45H263.23ZM263.23 330.45H265.56C265.81 330.478 266.063 330.451 266.302 330.371C266.54 330.291 266.758 330.16 266.94 329.986C267.122 329.813 267.264 329.601 267.356 329.367C267.447 329.133 267.486 328.881 267.47 328.63C267.484 328.15 267.316 327.682 267 327.32C266.811 327.136 266.585 326.994 266.336 326.904C266.088 326.814 265.823 326.779 265.56 326.8H263.23V330.45Z" fill="white"/>
<path d="M274.39 332.81H270.83L269.98 335.24H268.68L272.09 325.79H273.18L276.52 335.24H275.22L274.39 332.81ZM271.2 331.74H274.02L272.65 327.68L271.2 331.74Z" fill="white"/>
<path d="M283.68 326.8H280.56V335.24H279.29V326.8H276.21V325.8H283.68V326.8Z" fill="white"/>
<path d="M286.3 331.14V335.24H285.02V325.8H288.26C289.105 325.741 289.945 325.981 290.63 326.48C290.906 326.731 291.123 327.041 291.263 327.388C291.403 327.734 291.464 328.107 291.44 328.48C291.454 328.933 291.32 329.379 291.06 329.75C290.778 330.131 290.398 330.428 289.96 330.61C290.423 330.732 290.823 331.025 291.08 331.43C291.316 331.858 291.434 332.341 291.42 332.83V333.72C291.416 333.986 291.446 334.252 291.51 334.51C291.565 334.729 291.684 334.927 291.85 335.08V335.24H290.54C290.357 335.069 290.241 334.839 290.21 334.59C290.161 334.299 290.138 334.005 290.14 333.71V332.85C290.151 332.624 290.117 332.397 290.04 332.185C289.963 331.972 289.844 331.776 289.69 331.61C289.533 331.453 289.346 331.33 289.139 331.249C288.933 331.168 288.712 331.131 288.49 331.14H286.3ZM286.3 330.14H288.13C288.682 330.187 289.233 330.042 289.69 329.73C289.856 329.567 289.984 329.37 290.066 329.152C290.147 328.935 290.179 328.702 290.16 328.47C290.174 328.243 290.14 328.015 290.061 327.802C289.981 327.588 289.859 327.393 289.7 327.23C289.294 326.905 288.778 326.751 288.26 326.8H286.26L286.3 330.14Z" fill="white"/>
<path d="M294.9 335.24H293.61V325.79H294.9V335.24Z" fill="white"/>
<path d="M301.93 333.47L304.93 325.79H306.52V335.24H305.24V328.16L302.38 335.25H301.49L298.49 327.93V335.25H297.21V325.8H298.89L301.93 333.47Z" fill="white"/>
<path d="M316.01 331.36C316.028 331.886 315.941 332.41 315.756 332.903C315.571 333.395 315.29 333.846 314.93 334.23C314.576 334.61 314.145 334.91 313.665 335.108C313.186 335.307 312.669 335.399 312.15 335.38C311.643 335.399 311.138 335.305 310.672 335.106C310.205 334.908 309.788 334.608 309.45 334.23C308.762 333.436 308.404 332.409 308.45 331.36V329.68C308.406 328.628 308.763 327.598 309.45 326.8C309.789 326.423 310.206 326.125 310.673 325.926C311.139 325.728 311.643 325.633 312.15 325.65C312.669 325.63 313.186 325.723 313.665 325.922C314.145 326.12 314.576 326.42 314.93 326.8C315.291 327.185 315.572 327.638 315.758 328.132C315.943 328.626 316.029 329.152 316.01 329.68V331.36ZM314.73 329.66C314.759 328.892 314.51 328.14 314.03 327.54C313.802 327.265 313.514 327.047 313.188 326.901C312.862 326.755 312.507 326.687 312.15 326.7C311.806 326.688 311.465 326.758 311.154 326.904C310.842 327.05 310.57 327.268 310.36 327.54C309.901 328.149 309.668 328.898 309.7 329.66V331.36C309.666 332.128 309.899 332.884 310.36 333.5C310.573 333.769 310.845 333.984 311.156 334.128C311.467 334.272 311.807 334.341 312.15 334.33C312.506 334.347 312.862 334.281 313.188 334.137C313.514 333.993 313.802 333.775 314.03 333.5C314.517 332.896 314.766 332.135 314.73 331.36V329.66Z" fill="white"/>
<path d="M319.27 335.24H317.98V325.79H319.27V335.24Z" fill="white"/>
<path d="M328.76 335.24H327.48L322.93 328V335.2H321.65V325.75H322.93L327.48 332.96V325.76H328.76V335.24Z" fill="white"/>
<path d="M336.13 330.86H332.25V334.24H336.76V335.24H330.94V325.79H336.76V326.79H332.29V329.84H336.17L336.13 330.86Z" fill="white"/>
</svg>
