<svg width="133" height="134" viewBox="0 0 133 134" fill="none" xmlns="http://www.w3.org/2000/svg">
<path d="M44 102V49L19.8757 73.3138V102H0" stroke="#D3BB8C" stroke-width="2.76" stroke-miterlimit="10"/>
<path d="M35 102V36H64V102" stroke="#D3BB8C" stroke-width="2.76" stroke-miterlimit="10"/>
<path d="M86 102V13.2206H72.0752V2H69.0736H56V12.7319V102" stroke="#D3BB8C" stroke-width="2.76" stroke-miterlimit="10"/>
<path d="M91 102V71H111.656V102H133" stroke="#D3BB8C" stroke-width="2.76" stroke-miterlimit="10"/>
<path d="M80 101.843V29L105 53.4388V124" stroke="#1C3661" stroke-width="2.76" stroke-miterlimit="10"/>
<path d="M21.9977 115.329C22.0863 119.14 19.583 123 14.2029 123H9V108H14.2029C19.4059 108 21.9092 111.642 21.9977 115.329ZM10.1862 109.094V121.872H14.2029C18.7704 121.872 20.877 118.531 20.8116 115.318C20.7461 112.187 18.6395 109.082 14.2029 109.082L10.1862 109.094Z" fill="#1C3661"/>
<path d="M30.1811 115.379H39.2906V116.497H30.1811V122.798H40V124H29V108H39.7544V109.166H30.1811V115.379Z" fill="#1C3661"/>
<path d="M59.7897 109.783L53.7262 119.156H53.3294L47.2183 109.791V124H46V108H47.4445L53.5119 117.32L59.5079 108H61V123.992H59.8095L59.7897 109.783Z" fill="#1C3661"/>
<path d="M69.2842 115.379H79.2218V116.497H69.2842V122.798H80V124H68V108H79.7066V109.166H69.2842V115.379Z" fill="#1C3661"/>
<path d="M91.881 109.096H86V108H99V109.096H93.1353V124H91.881V109.096Z" fill="#1C3661"/>
<path d="M123.615 110.421C122.533 108.485 120.786 108.204 119.106 108.179C117.36 108.179 114.594 108.886 114.594 111.529C114.594 113.626 116.635 114.123 119.147 114.64C122.021 115.252 125 115.818 125 119.38C124.978 123.102 121.596 124 119.106 124C116.785 124 114.146 122.941 113 120.418L114.019 119.851C114.933 121.857 117.274 122.846 119.106 122.846C120.939 122.846 123.85 122.279 123.85 119.355C123.873 116.873 121.402 116.34 118.957 115.818C116.232 115.231 113.444 114.615 113.444 111.575C113.381 108.084 116.658 107 119.106 107C121.234 107 123.085 107.376 124.552 109.804L123.615 110.421Z" fill="#1C3661"/>
<path d="M2.65979 132.61H0.654633V133.683H3V134H0V131H2.96391V131.317H0.654633V132.292H2.65979V132.61Z" fill="#D3BB8C"/>
<path d="M6 134H5.45992L3.54008 131.713V133.994H3V131H3.54008L5.45992 133.284V131.003H6V134Z" fill="#D3BB8C"/>
<path d="M8.61857 133.22C8.61942 133.158 8.6076 133.096 8.58387 133.039C8.56015 132.982 8.52504 132.93 8.48079 132.888C8.33722 132.774 8.17019 132.696 7.99261 132.66C7.74688 132.607 7.51634 132.496 7.31873 132.337C7.24203 132.271 7.18067 132.189 7.13919 132.096C7.09772 132.002 7.07719 131.901 7.07913 131.798C7.0778 131.689 7.10057 131.581 7.1457 131.483C7.19084 131.384 7.25716 131.297 7.33969 131.229C7.53102 131.071 7.77155 130.99 8.01657 131.001C8.27747 130.989 8.53255 131.083 8.72639 131.263C8.81077 131.34 8.8778 131.435 8.9228 131.541C8.9678 131.647 8.98969 131.762 8.98695 131.878H8.62156C8.62375 131.801 8.60961 131.725 8.58013 131.654C8.55065 131.583 8.50653 131.52 8.45085 131.469C8.33376 131.368 8.18724 131.311 8.03469 131.306C7.88215 131.301 7.73236 131.348 7.60924 131.441C7.56284 131.485 7.52626 131.539 7.50196 131.599C7.47767 131.659 7.46626 131.724 7.46848 131.789C7.46869 131.849 7.48293 131.909 7.51003 131.962C7.53712 132.016 7.57627 132.062 7.62422 132.097C7.77789 132.205 7.95091 132.282 8.13337 132.321C8.37459 132.374 8.59852 132.489 8.78329 132.657C8.85653 132.729 8.91371 132.817 8.95092 132.914C8.98814 133.011 9.00451 133.116 8.99893 133.22C9.00183 133.329 8.97881 133.438 8.93185 133.536C8.88489 133.634 8.8154 133.719 8.72938 133.783C8.52553 133.935 8.2772 134.011 8.02555 133.999C7.76532 134.003 7.51089 133.919 7.30075 133.762C7.20218 133.692 7.12282 133.597 7.07034 133.487C7.01787 133.376 6.99407 133.254 7.00125 133.131H7.36665C7.36336 133.213 7.3803 133.295 7.4159 133.368C7.4515 133.442 7.50461 133.505 7.57031 133.552C7.70183 133.653 7.86181 133.706 8.02555 133.703C8.17899 133.712 8.3308 133.667 8.45684 133.577C8.51083 133.536 8.55396 133.482 8.58223 133.42C8.6105 133.357 8.623 133.289 8.61857 133.22Z" fill="#D3BB8C"/>
<path d="M11.7801 132.61H10.4399V133.683H12V134H10V131H11.9759V131.317H10.4399V132.292H11.7801V132.61Z" fill="#D3BB8C"/>
<path d="M15.0173 133.436L16.3132 131H17V133.997H16.4471V131.752L15.2117 134H14.8272L13.5529 131.679V133.997H13V131H13.7257L15.0173 133.436Z" fill="#D3BB8C"/>
<path d="M18 133.998V131.002H18.8965C19.136 130.986 19.3735 131.058 19.5718 131.205C19.6544 131.278 19.7198 131.371 19.7624 131.477C19.8049 131.583 19.8234 131.698 19.8163 131.814C19.817 131.939 19.778 132.062 19.7057 132.159C19.6295 132.264 19.5291 132.345 19.4146 132.394C19.5823 132.414 19.7361 132.505 19.8425 132.648C19.9583 132.816 20.0134 133.024 19.9973 133.233C19.9812 133.443 19.895 133.638 19.7551 133.783C19.5634 133.936 19.3289 134.012 19.0915 133.998H18ZM18.3784 132.293H18.9809C19.1036 132.298 19.224 132.254 19.3185 132.169C19.3625 132.125 19.397 132.071 19.4197 132.01C19.4423 131.95 19.4525 131.885 19.4495 131.82C19.4541 131.752 19.4438 131.684 19.4196 131.621C19.3953 131.558 19.3577 131.503 19.3098 131.459C19.1904 131.37 19.0467 131.327 18.9023 131.338H18.3784V132.293ZM18.3784 132.61V133.697H19.0973C19.2402 133.706 19.3811 133.658 19.4932 133.561C19.5407 133.511 19.5778 133.451 19.6019 133.384C19.626 133.317 19.6366 133.246 19.6329 133.174C19.6362 133.1 19.6253 133.026 19.6007 132.956C19.5761 132.887 19.5385 132.824 19.4903 132.771C19.3838 132.668 19.246 132.61 19.1031 132.61H18.3784Z" fill="#D3BB8C"/>
<path d="M21.4482 133.683H23V134H21V131H21.4346L21.4482 133.683Z" fill="#D3BB8C"/>
<path d="M25.7732 132.61H24.4399V133.683H26V134H24V131H25.9759V131.317H24.4399V132.292H25.7732V132.61Z" fill="#D3BB8C"/>
<path d="M27 59.3485L26.4253 60H26L26.2644 59.3322V59H27V59.3485Z" fill="#D3BB8C"/>
<path d="M29.559 132.7V133.997H29V131.003H30.4323C30.802 130.985 31.1686 131.062 31.4672 131.221C31.589 131.301 31.6841 131.399 31.7454 131.509C31.8067 131.619 31.8326 131.737 31.8209 131.856C31.827 132 31.7687 132.141 31.655 132.259C31.5331 132.38 31.3667 132.475 31.1747 132.531C31.3763 132.571 31.5505 132.664 31.6637 132.791C31.7665 132.927 31.8177 133.081 31.8122 133.236V133.518C31.8108 133.603 31.824 133.689 31.8515 133.772C31.8779 133.84 31.9292 133.903 32 133.952V134H31.428C31.3482 133.946 31.2972 133.873 31.2838 133.794C31.2625 133.702 31.2522 133.608 31.2533 133.515V133.242C31.2619 133.097 31.1912 132.956 31.0568 132.849C30.9882 132.799 30.9062 132.761 30.816 132.735C30.7257 132.71 30.6293 132.699 30.5327 132.703L29.559 132.7ZM29.559 132.382H30.3581C30.599 132.397 30.8395 132.351 31.0393 132.252C31.1119 132.201 31.1679 132.138 31.2034 132.069C31.2389 132 31.2529 131.926 31.2445 131.853C31.2505 131.781 31.2357 131.708 31.2011 131.641C31.1665 131.573 31.1129 131.511 31.0437 131.459C30.8664 131.356 30.6409 131.307 30.4149 131.323H29.5415L29.559 132.382Z" fill="#D3BB8C"/>
<path d="M34.6604 132.551H32.6638V133.669H35V134H32V130.873H34.9588V131.204H32.6587V132.22H34.6552L34.6604 132.551ZM33.8216 130H34.5935L33.6981 130.566H33.1835L33.8216 130Z" fill="#D3BB8C"/>
<path d="M36 134H35V131H36V134Z" fill="#D3BB8C"/>
<path d="M40 134H39.4592L37.5366 131.713V133.994H37V131H37.5366L39.4592 133.284V131.003H40V134Z" fill="#D3BB8C"/>
<path d="M41.4298 133.222L41.5111 133.473L41.5887 133.222L42.4901 131H43L41.7032 134H41.3005L40 131H40.5136L41.4298 133.222Z" fill="#D3BB8C"/>
<path d="M45.7748 132.61H44.4505V133.683H46V134H44V131H45.9625V131.317H44.4369V132.292H45.7611L45.7748 132.61Z" fill="#D3BB8C"/>
<path d="M50 134H49.4599L47.5401 131.713V133.994H47V131H47.5401L49.4599 133.284V131.003H50V134Z" fill="#D3BB8C"/>
<path d="M53 131.318H51.7394V134H51.2287V131.318H50V131H52.9841L53 131.318Z" fill="#D3BB8C"/>
<path d="M55.999 132.76C56.0065 132.923 55.9725 133.085 55.899 133.237C55.8255 133.39 55.714 133.529 55.5708 133.648C55.4294 133.764 55.2575 133.856 55.0667 133.917C54.8758 133.977 54.6705 134.005 54.4646 133.999C54.2646 134.004 54.0656 133.976 53.8814 133.915C53.6972 133.854 53.5322 133.763 53.398 133.648C53.1254 133.402 52.9836 133.085 53.0015 132.76V132.243C52.984 131.918 53.1258 131.601 53.398 131.355C53.532 131.239 53.6969 131.148 53.8811 131.087C54.0652 131.025 54.2643 130.996 54.4646 131.001C54.6708 130.995 54.8762 131.024 55.067 131.085C55.2578 131.146 55.4296 131.238 55.5708 131.355C55.714 131.474 55.8255 131.613 55.899 131.766C55.9725 131.918 56.0065 132.08 55.999 132.243V132.76ZM55.4915 132.24C55.5035 132.002 55.4049 131.769 55.2139 131.583C55.1227 131.499 55.0076 131.432 54.8777 131.387C54.7477 131.343 54.6064 131.322 54.4646 131.327C54.3293 131.324 54.1948 131.345 54.0721 131.389C53.9495 131.434 53.8421 131.5 53.7588 131.583C53.5762 131.772 53.4837 132.004 53.4971 132.24V132.76C53.4838 132.997 53.5763 133.23 53.7588 133.42C53.8421 133.503 53.9495 133.569 54.0721 133.614C54.1948 133.658 54.3293 133.679 54.4646 133.676C54.606 133.681 54.7471 133.661 54.877 133.617C55.0068 133.573 55.1221 133.507 55.2139 133.423C55.4065 133.235 55.5051 133 55.4915 132.76V132.24Z" fill="#D3BB8C"/>
<path d="M60 134H59.4599L57.5401 131.713V133.994H57V131H57.5401L59.4599 133.284V131.003H60V134Z" fill="#D3BB8C"/>
<path d="M62.6103 133.232C62.6112 133.169 62.5994 133.107 62.5756 133.049C62.5519 132.992 62.5168 132.94 62.4725 132.897C62.3289 132.783 62.1618 132.705 61.9842 132.669C61.7383 132.615 61.5077 132.504 61.3101 132.344C61.2328 132.278 61.1711 132.196 61.1295 132.102C61.088 132.008 61.0678 131.906 61.0704 131.802C61.0684 131.693 61.0908 131.584 61.136 131.485C61.1812 131.386 61.248 131.298 61.331 131.23C61.5215 131.072 61.761 130.991 62.0051 131.001C62.2671 130.988 62.5235 131.083 62.7182 131.264C62.8022 131.342 62.8688 131.437 62.9133 131.544C62.9578 131.651 62.9792 131.767 62.9758 131.883H62.6103C62.6129 131.806 62.5992 131.729 62.5703 131.658C62.5413 131.587 62.4977 131.523 62.4425 131.471C62.3846 131.416 62.3167 131.373 62.2427 131.345C62.1686 131.317 62.09 131.304 62.0111 131.307C61.8627 131.299 61.7164 131.347 61.6007 131.444C61.5532 131.487 61.5157 131.541 61.4909 131.602C61.466 131.662 61.4544 131.728 61.4569 131.793C61.4576 131.854 61.4725 131.914 61.5001 131.968C61.5277 132.021 61.5673 132.068 61.6157 132.102C61.7686 132.211 61.9406 132.288 62.122 132.328C62.3644 132.38 62.5895 132.496 62.7751 132.665C62.8481 132.736 62.9058 132.821 62.9445 132.916C62.9832 133.011 63.0021 133.113 62.9998 133.216C63.002 133.326 62.9786 133.434 62.9317 133.533C62.8847 133.631 62.8157 133.717 62.7302 133.782C62.526 133.935 62.2778 134.011 62.0261 133.999C61.7658 134.003 61.5113 133.919 61.3011 133.761C61.202 133.691 61.1223 133.596 61.0698 133.484C61.0172 133.373 60.9937 133.25 61.0015 133.126H61.367C61.3631 133.209 61.3794 133.291 61.4145 133.365C61.4496 133.439 61.5023 133.503 61.5677 133.55C61.7004 133.651 61.8614 133.704 62.0261 133.702C62.1795 133.71 62.3313 133.665 62.4575 133.575C62.5077 133.534 62.5478 133.482 62.5744 133.422C62.601 133.363 62.6133 133.297 62.6103 133.232Z" fill="#D3BB8C"/>
<path d="M65.652 133.683H68V134H65V131H65.652V133.683Z" fill="#D3BB8C"/>
<path d="M70.1811 133.229H68.8227L68.4974 134H68L69.3048 131H69.7219L71 134H70.5026L70.1811 133.229ZM68.9643 132.889H70.0434L69.5191 131.6L68.9643 132.889Z" fill="#D3BB8C"/>
<path d="M76 133.555C75.8727 133.686 75.7036 133.792 75.5074 133.863C75.2219 133.961 74.9086 134.008 74.5936 133.999C74.3826 134.004 74.1725 133.977 73.9767 133.919C73.7809 133.861 73.6038 133.774 73.4567 133.663C73.3045 133.55 73.1856 133.415 73.1073 133.266C73.0291 133.118 72.9933 132.96 73.002 132.801V132.2C72.9807 131.883 73.1321 131.573 73.423 131.337C73.5666 131.227 73.7407 131.139 73.9338 131.082C74.1269 131.024 74.3346 130.996 74.5431 131.002C74.925 130.986 75.3004 131.079 75.5916 131.26C75.7168 131.343 75.8153 131.445 75.8801 131.559C75.9449 131.673 75.9744 131.796 75.9663 131.92H75.4484C75.4513 131.838 75.4319 131.757 75.3914 131.681C75.3509 131.604 75.2901 131.535 75.2126 131.476C75.124 131.415 75.0193 131.368 74.9049 131.338C74.7904 131.308 74.6687 131.295 74.5473 131.3C74.4064 131.297 74.2663 131.318 74.1383 131.361C74.0103 131.404 73.898 131.469 73.8104 131.55C73.6186 131.731 73.5202 131.956 73.5325 132.185V132.801C73.5177 133.033 73.623 133.26 73.8273 133.438C73.9185 133.519 74.0338 133.584 74.1644 133.628C74.2949 133.672 74.4374 133.693 74.581 133.691C74.7721 133.697 74.9628 133.674 75.141 133.623C75.2589 133.589 75.3642 133.535 75.4484 133.466V132.81H74.5473V132.502H75.9874L76 133.555Z" fill="#D3BB8C"/>
<path d="M78.6598 132.61H76.6598V133.683H79V134H76V131H78.9639V131.317H76.6598V132.292H78.6598V132.61Z" fill="#D3BB8C"/>
<path d="M81.4105 133.22C81.4118 133.157 81.394 133.096 81.3584 133.038C81.3228 132.981 81.2702 132.93 81.2038 132.887C80.9884 132.774 80.7377 132.696 80.4713 132.659C80.1036 132.607 79.759 132.496 79.4647 132.336C79.3481 132.271 79.2546 132.189 79.1915 132.096C79.1284 132.002 79.0974 131.9 79.1007 131.797C79.0987 131.688 79.1329 131.58 79.2006 131.482C79.2683 131.383 79.3679 131.296 79.4917 131.228C79.7956 131.074 80.1652 130.994 80.5427 131C80.9201 131.006 81.2838 131.098 81.5768 131.262C81.7021 131.339 81.8015 131.434 81.8682 131.54C81.9349 131.647 81.9673 131.762 81.9632 131.877H81.415C81.4183 131.8 81.3971 131.724 81.3528 131.653C81.3086 131.582 81.2424 131.519 81.1588 131.468C80.9832 131.367 80.7633 131.31 80.5345 131.305C80.3056 131.3 80.0808 131.347 79.8961 131.44C79.8265 131.484 79.7716 131.538 79.7352 131.598C79.6987 131.658 79.6816 131.723 79.6849 131.788C79.6852 131.848 79.7066 131.908 79.7472 131.961C79.7879 132.015 79.8466 132.061 79.9186 132.096C80.1492 132.205 80.4088 132.281 80.6825 132.321C81.0444 132.373 81.3804 132.489 81.6576 132.656C81.7708 132.728 81.8599 132.815 81.9189 132.912C81.9779 133.01 82.0053 133.114 81.9992 133.22C82.0035 133.329 81.969 133.437 81.8985 133.536C81.8281 133.634 81.7238 133.719 81.5947 133.783C81.2889 133.935 80.9163 134.011 80.5387 133.999C80.1483 134.003 79.7665 133.919 79.4512 133.762C79.3034 133.692 79.1843 133.597 79.1055 133.486C79.0268 133.376 78.9911 133.253 79.0019 133.13H79.5501C79.5452 133.213 79.5706 133.294 79.624 133.368C79.6774 133.442 79.7571 133.505 79.8557 133.552C80.0533 133.652 80.2931 133.705 80.5387 133.703C80.7689 133.712 80.9967 133.667 81.1858 133.577C81.2635 133.535 81.3248 133.48 81.364 133.418C81.4032 133.355 81.4192 133.287 81.4105 133.22Z" fill="#D3BB8C"/>
<path d="M84.996 131.318H83.7447V134H83.2353V131.318H82V131H85L84.996 131.318Z" fill="#D3BB8C"/>
<path d="M89.999 132.76C90.0065 132.923 89.9725 133.085 89.899 133.237C89.8255 133.39 89.714 133.529 89.5708 133.648C89.43 133.764 89.2587 133.856 89.0686 133.916C88.8785 133.977 88.6739 134.005 88.4685 133.999C88.2679 134.005 88.0682 133.976 87.8834 133.915C87.6985 133.855 87.5328 133.763 87.398 133.648C87.1254 133.402 86.9836 133.085 87.0015 132.76V132.243C86.984 131.918 87.1258 131.601 87.398 131.355C87.5325 131.239 87.6979 131.147 87.8828 131.086C88.0678 131.025 88.2676 130.996 88.4685 131.001C88.6741 130.995 88.8789 131.024 89.069 131.085C89.2591 131.146 89.4301 131.238 89.5708 131.355C89.714 131.474 89.8255 131.613 89.899 131.766C89.9725 131.918 90.0065 132.08 89.999 132.243V132.76ZM89.4915 132.24C89.5035 132.002 89.4049 131.769 89.2139 131.583C89.1231 131.499 89.0087 131.432 88.8795 131.388C88.7502 131.344 88.6096 131.323 88.4685 131.327C88.3326 131.323 88.1973 131.344 88.0739 131.389C87.9505 131.433 87.8425 131.5 87.7588 131.583C87.5762 131.772 87.4837 132.004 87.4971 132.24V132.76C87.4838 132.997 87.5762 133.23 87.7588 133.42C87.8425 133.503 87.9505 133.57 88.0739 133.614C88.1973 133.659 88.3326 133.68 88.4685 133.676C88.6094 133.681 88.7499 133.661 88.8791 133.617C89.0084 133.573 89.1229 133.507 89.2139 133.423C89.4064 133.235 89.505 133 89.4915 132.76V132.24Z" fill="#D3BB8C"/>
<path d="M94 134H93.4599L91.5401 131.713V133.994H91V131H91.5401L93.4599 133.284V131.003H94V134Z" fill="#D3BB8C"/>
<path d="M96 133.998V131.002H97.2667C97.4967 130.992 97.7267 131.019 97.942 131.081C98.1572 131.142 98.3528 131.237 98.5161 131.359C98.6793 131.481 98.8066 131.628 98.8896 131.789C98.9726 131.95 99.0095 132.123 98.9979 132.296V132.708C99.0065 132.879 98.9687 133.05 98.8867 133.211C98.8047 133.371 98.6802 133.517 98.5208 133.64C98.354 133.762 98.1553 133.857 97.9373 133.919C97.7193 133.98 97.4867 134.007 97.2541 133.998H96ZM96.5405 131.322V133.681H97.2541C97.4175 133.687 97.5805 133.665 97.7315 133.618C97.8826 133.571 98.018 133.499 98.1281 133.409C98.3456 133.212 98.4584 132.963 98.4448 132.708V132.292C98.4577 132.038 98.3449 131.79 98.1281 131.595C98.0185 131.503 97.8832 131.432 97.732 131.384C97.5809 131.337 97.4176 131.316 97.2541 131.322H96.5405Z" fill="#D3BB8C"/>
<path d="M101.68 132.61H99.6804V133.683H102V134H99V131H102V131.317H99.6804V132.292H101.68V132.61Z" fill="#D3BB8C"/>
<path d="M104.376 132.798V134H104V131.002H105.063C105.314 130.986 105.561 131.074 105.753 131.249C105.911 131.423 106 131.657 106 131.901C106 132.145 105.911 132.379 105.753 132.553C105.56 132.726 105.313 132.813 105.063 132.798H104.376ZM104.376 132.48H105.063C105.139 132.487 105.216 132.476 105.289 132.448C105.361 132.42 105.427 132.376 105.483 132.319C105.572 132.202 105.621 132.055 105.621 131.903C105.621 131.751 105.572 131.604 105.483 131.487C105.428 131.429 105.362 131.384 105.289 131.356C105.217 131.327 105.14 131.316 105.063 131.322H104.376V132.48Z" fill="#D3BB8C"/>
<path d="M108.185 133.229H106.823L106.501 134H106L107.305 131H107.722L109 134H108.503L108.185 133.229ZM106.964 132.889H108.043L107.519 131.6L106.964 132.889Z" fill="#D3BB8C"/>
<path d="M112 131.318H110.751V134H110.237V131.318H109V131H112V131.318Z" fill="#D3BB8C"/>
<path d="M113.562 132.7V133.997H113V131.003H114.423C114.795 130.985 115.164 131.062 115.464 131.221C115.587 131.3 115.683 131.399 115.746 131.508C115.808 131.618 115.835 131.737 115.824 131.856C115.829 132 115.769 132.141 115.653 132.259C115.53 132.38 115.363 132.475 115.17 132.531C115.373 132.571 115.548 132.664 115.662 132.791C115.767 132.927 115.819 133.08 115.811 133.236V133.518C115.809 133.604 115.824 133.689 115.855 133.772C115.878 133.841 115.929 133.903 116 133.952V134H115.425C115.344 133.946 115.293 133.873 115.28 133.794C115.258 133.702 115.248 133.608 115.249 133.515V133.242C115.258 133.097 115.186 132.956 115.051 132.849C114.982 132.799 114.9 132.761 114.809 132.735C114.718 132.71 114.621 132.699 114.524 132.703L113.562 132.7ZM113.562 132.382H114.348C114.591 132.397 114.833 132.351 115.034 132.252C115.107 132.201 115.164 132.138 115.201 132.069C115.237 132 115.252 131.926 115.244 131.853C115.25 131.78 115.234 131.708 115.199 131.64C115.163 131.572 115.109 131.511 115.038 131.459C114.86 131.356 114.633 131.307 114.406 131.323H113.527L113.562 132.382Z" fill="#D3BB8C"/>
<path d="M117 134H116V131H117V134Z" fill="#D3BB8C"/>
<path d="M119.513 133.436L120.485 131H121V133.997H120.585V131.752L119.659 134H119.37L118.415 131.679V133.997H118V131H118.544L119.513 133.436Z" fill="#D3BB8C"/>
<path d="M124.999 132.76C125.006 132.923 124.972 133.085 124.899 133.237C124.825 133.39 124.714 133.529 124.57 133.648C124.429 133.764 124.258 133.856 124.067 133.916C123.877 133.977 123.672 134.005 123.467 133.999C123.266 134.005 123.067 133.976 122.882 133.916C122.698 133.855 122.533 133.764 122.399 133.648C122.126 133.402 121.984 133.085 122.002 132.76V132.243C121.984 131.918 122.126 131.601 122.399 131.355C122.532 131.239 122.697 131.147 122.882 131.086C123.066 131.025 123.266 130.996 123.467 131.001C123.672 130.995 123.877 131.024 124.068 131.085C124.258 131.146 124.429 131.238 124.57 131.355C124.714 131.474 124.825 131.613 124.899 131.766C124.972 131.918 125.006 132.08 124.999 132.243V132.76ZM124.491 132.24C124.505 132.002 124.406 131.768 124.213 131.583C124.122 131.499 124.007 131.432 123.878 131.388C123.749 131.344 123.608 131.323 123.467 131.327C123.33 131.323 123.195 131.344 123.071 131.389C122.948 131.433 122.84 131.5 122.756 131.583C122.573 131.772 122.48 132.004 122.494 132.24V132.76C122.48 132.997 122.573 133.23 122.756 133.42C122.84 133.503 122.948 133.57 123.071 133.614C123.195 133.659 123.33 133.68 123.467 133.676C123.608 133.681 123.748 133.661 123.878 133.617C124.007 133.573 124.122 133.507 124.213 133.423C124.406 133.235 124.504 133 124.491 132.76V132.24Z" fill="#D3BB8C"/>
<path d="M130 134H129.46L127.54 131.713V133.994H127V131H127.54L129.46 133.284V131.003H130V134Z" fill="#D3BB8C"/>
<path d="M132.773 132.61H131.44V133.683H133V134H131V131H132.976V131.317H131.44V132.292H132.773V132.61Z" fill="#D3BB8C"/>
</svg>
